# MagicaVoxel @ Ephtracy

# group
o 

# material
mtllib Ground_005.mtl
usemtl palette

# normals
vn -1 0 0
vn 1 0 0
vn 0 0 1
vn 0 0 -1
vn 0 -1 0
vn 0 1 0

# texcoords
vt 0.814453 0.5
vt 0.845703 0.5
vt 0.849609 0.5

# verts
v -3.2 -0.8 3.2
v -3.2 -0.8 2
v -3.2 -0.8 1.8
v -3.2 -0.8 -1.8
v -3.2 -0.8 -2
v -3.2 -0.8 -3.2
v -3.2 -0.7 3.2
v -3.2 -0.7 2
v -3.2 -0.7 1.8
v -3.2 -0.7 -1.8
v -3.2 -0.7 -2
v -3.2 -0.7 -3.2
v 3.2 -0.8 3.2
v 3.2 -0.8 2
v 3.2 -0.8 1.8
v 3.2 -0.8 -1.8
v 3.2 -0.8 -2
v 3.2 -0.8 -3.2
v 3.2 -0.7 3.2
v 3.2 -0.7 2
v 3.2 -0.7 1.8
v 3.2 -0.7 -1.8
v 3.2 -0.7 -2
v 3.2 -0.7 -3.2
v -3.2 -0.8 3.2
v -3.2 -0.7 3.2
v 3.2 -0.8 3.2
v 3.2 -0.7 3.2
v -3.2 -0.8 -3.2
v -3.2 -0.7 -3.2
v -2 -0.8 -3.2
v -2 -0.7 -3.2
v -1.8 -0.8 -3.2
v -1.8 -0.7 -3.2
v 1.8 -0.8 -3.2
v 1.8 -0.7 -3.2
v 2 -0.8 -3.2
v 2 -0.7 -3.2
v 3.2 -0.8 -3.2
v 3.2 -0.7 -3.2
v -3.2 -0.8 3.2
v 3.2 -0.8 3.2
v -3.2 -0.8 2
v 3.2 -0.8 2
v -3.2 -0.8 1.8
v 3.2 -0.8 1.8
v -3.2 -0.8 -1.8
v -1.8 -0.8 -1.8
v 1.8 -0.8 -1.8
v 3.2 -0.8 -1.8
v -3.2 -0.8 -2
v -2 -0.8 -2
v 2 -0.8 -2
v 3.2 -0.8 -2
v -3.2 -0.8 -3.2
v -2 -0.8 -3.2
v -1.8 -0.8 -3.2
v 1.8 -0.8 -3.2
v 2 -0.8 -3.2
v 3.2 -0.8 -3.2
v -3.2 -0.7 3.2
v 3.2 -0.7 3.2
v -3.2 -0.7 2
v 3.2 -0.7 2
v -3.2 -0.7 1.8
v 3.2 -0.7 1.8
v -3.2 -0.7 -1.8
v -1.8 -0.7 -1.8
v 1.8 -0.7 -1.8
v 3.2 -0.7 -1.8
v -3.2 -0.7 -2
v -2 -0.7 -2
v 2 -0.7 -2
v 3.2 -0.7 -2
v -3.2 -0.7 -3.2
v -2 -0.7 -3.2
v -1.8 -0.7 -3.2
v 1.8 -0.7 -3.2
v 2 -0.7 -3.2
v 3.2 -0.7 -3.2

# faces
f 7/2/1 2/2/1 1/2/1
f 8/3/1 3/3/1 2/3/1
f 8/2/1 2/2/1 7/2/1
f 9/1/1 4/1/1 3/1/1
f 9/3/1 3/3/1 8/3/1
f 10/3/1 5/3/1 4/3/1
f 10/1/1 4/1/1 9/1/1
f 11/2/1 6/2/1 5/2/1
f 11/3/1 5/3/1 10/3/1
f 12/2/1 6/2/1 11/2/1
f 13/2/2 14/2/2 19/2/2
f 14/3/2 15/3/2 20/3/2
f 19/2/2 14/2/2 20/2/2
f 15/1/2 16/1/2 21/1/2
f 20/3/2 15/3/2 21/3/2
f 16/3/2 17/3/2 22/3/2
f 21/1/2 16/1/2 22/1/2
f 17/2/2 18/2/2 23/2/2
f 22/3/2 17/3/2 23/3/2
f 23/2/2 18/2/2 24/2/2
f 27/2/3 26/2/3 25/2/3
f 28/2/3 26/2/3 27/2/3
f 29/2/4 30/2/4 31/2/4
f 31/2/4 30/2/4 32/2/4
f 31/3/4 32/3/4 33/3/4
f 33/3/4 32/3/4 34/3/4
f 33/1/4 34/1/4 35/1/4
f 35/1/4 34/1/4 36/1/4
f 35/3/4 36/3/4 37/3/4
f 37/3/4 36/3/4 38/3/4
f 37/2/4 38/2/4 39/2/4
f 39/2/4 38/2/4 40/2/4
f 43/2/5 42/2/5 41/2/5
f 44/2/5 42/2/5 43/2/5
f 45/3/5 44/3/5 43/3/5
f 46/3/5 44/3/5 45/3/5
f 47/1/5 46/1/5 45/1/5
f 48/1/5 46/1/5 47/1/5
f 49/1/5 46/1/5 48/1/5
f 50/1/5 46/1/5 49/1/5
f 51/3/5 48/3/5 47/3/5
f 52/3/5 48/3/5 51/3/5
f 53/3/5 50/3/5 49/3/5
f 54/3/5 50/3/5 53/3/5
f 55/2/5 52/2/5 51/2/5
f 56/3/5 48/3/5 52/3/5
f 56/2/5 52/2/5 55/2/5
f 57/1/5 49/1/5 48/1/5
f 57/3/5 48/3/5 56/3/5
f 58/3/5 53/3/5 49/3/5
f 58/1/5 49/1/5 57/1/5
f 59/2/5 54/2/5 53/2/5
f 59/3/5 53/3/5 58/3/5
f 60/2/5 54/2/5 59/2/5
f 61/2/6 62/2/6 63/2/6
f 63/2/6 62/2/6 64/2/6
f 63/3/6 64/3/6 65/3/6
f 65/3/6 64/3/6 66/3/6
f 65/1/6 66/1/6 67/1/6
f 67/1/6 66/1/6 68/1/6
f 68/1/6 66/1/6 69/1/6
f 69/1/6 66/1/6 70/1/6
f 67/3/6 68/3/6 71/3/6
f 71/3/6 68/3/6 72/3/6
f 69/3/6 70/3/6 73/3/6
f 73/3/6 70/3/6 74/3/6
f 71/2/6 72/2/6 75/2/6
f 72/3/6 68/3/6 76/3/6
f 75/2/6 72/2/6 76/2/6
f 68/1/6 69/1/6 77/1/6
f 76/3/6 68/3/6 77/3/6
f 69/3/6 73/3/6 78/3/6
f 77/1/6 69/1/6 78/1/6
f 73/2/6 74/2/6 79/2/6
f 78/3/6 73/3/6 79/3/6
f 79/2/6 74/2/6 80/2/6
