# MagicaVoxel @ Ephtracy

# group
o 

# material
mtllib Building008(3).mtl
usemtl palette

# normals
vn -1 0 0
vn 1 0 0
vn 0 0 1
vn 0 0 -1
vn 0 -1 0
vn 0 1 0

# texcoords
vt 0.0292969 0.5
vt 0.943359 0.5
vt 0.982422 0.5
vt 0.986328 0.5
vt 0.994141 0.5

# verts
v -2.8 0 2.6
v -2.8 0 2.4
v -2.8 0 -2.6
v -2.8 0 -2.8
v -2.8 0.2 2.6
v -2.8 0.2 2.5
v -2.8 0.2 -2.7
v -2.8 0.2 -2.8
v -2.8 0.3 2.5
v -2.8 0.3 2.4
v -2.8 0.3 -2.6
v -2.8 0.3 -2.7
v -2.8 5.7 2.5
v -2.8 5.7 2.4
v -2.8 5.7 -2.6
v -2.8 5.7 -2.7
v -2.8 5.8 2.7
v -2.8 5.8 2.5
v -2.8 5.8 -2.7
v -2.8 5.8 -2.9
v -2.8 6 2.7
v -2.8 6 2.4
v -2.8 6 -2.6
v -2.8 6 -2.9
v -0.9 1.2 2.4
v -0.9 1.2 2.2
v -0.9 1.9 2.4
v -0.9 1.9 2.2
v -0.9 2.3 2.4
v -0.9 2.3 2.2
v -0.9 3 2.4
v -0.9 3 2.2
v -0.9 4.5 2.4
v -0.9 4.5 2.2
v -0.9 5.2 2.4
v -0.9 5.2 2.2
v -0.8 1.2 -2.4
v -0.8 1.2 -2.6
v -0.8 1.9 -2.4
v -0.8 1.9 -2.6
v -0.8 2.4 -2.4
v -0.8 2.4 -2.6
v -0.8 3.1 -2.4
v -0.8 3.1 -2.6
v -0.8 4.6 -2.4
v -0.8 4.6 -2.6
v -0.8 5.3 -2.4
v -0.8 5.3 -2.6
v 0.7 1.2 2.4
v 0.7 1.2 2.2
v 0.7 1.9 2.4
v 0.7 1.9 2.2
v 0.7 2.3 2.4
v 0.7 2.3 2.2
v 0.7 3 2.4
v 0.7 3 2.2
v 0.7 4.5 2.4
v 0.7 4.5 2.2
v 0.7 5.2 2.4
v 0.7 5.2 2.2
v 0.8 1.2 -2.4
v 0.8 1.2 -2.6
v 0.8 1.9 -2.4
v 0.8 1.9 -2.6
v 0.8 2.4 -2.4
v 0.8 2.4 -2.6
v 0.8 3.1 -2.4
v 0.8 3.1 -2.6
v 0.8 4.6 -2.4
v 0.8 4.6 -2.6
v 0.8 5.3 -2.4
v 0.8 5.3 -2.6
v 2.3 1.2 2.4
v 2.3 1.2 2.2
v 2.3 1.9 2.4
v 2.3 1.9 2.2
v 2.3 2.3 2.4
v 2.3 2.3 2.2
v 2.3 3 2.4
v 2.3 3 2.2
v 2.3 4.5 2.4
v 2.3 4.5 2.2
v 2.3 5.2 2.4
v 2.3 5.2 2.2
v 2.4 1.2 -2.4
v 2.4 1.2 -2.6
v 2.4 1.9 -2.4
v 2.4 1.9 -2.6
v 2.4 2.4 -2.4
v 2.4 2.4 -2.6
v 2.4 3.1 -2.4
v 2.4 3.1 -2.6
v 2.4 4.6 -2.4
v 2.4 4.6 -2.6
v 2.4 5.3 -2.4
v 2.4 5.3 -2.6
v -2.3 1.2 2.4
v -2.3 1.2 2.2
v -2.3 1.2 -2.4
v -2.3 1.2 -2.6
v -2.3 1.9 2.4
v -2.3 1.9 2.2
v -2.3 1.9 -2.4
v -2.3 1.9 -2.6
v -2.3 2.3 2.4
v -2.3 2.3 2.2
v -2.3 2.4 -2.4
v -2.3 2.4 -2.6
v -2.3 3 2.4
v -2.3 3 2.2
v -2.3 3.1 -2.4
v -2.3 3.1 -2.6
v -2.3 4.5 2.4
v -2.3 4.5 2.2
v -2.3 4.6 -2.4
v -2.3 4.6 -2.6
v -2.3 5.2 2.4
v -2.3 5.2 2.2
v -2.3 5.3 -2.4
v -2.3 5.3 -2.6
v -0.7 1.2 2.4
v -0.7 1.2 2.2
v -0.7 1.9 2.4
v -0.7 1.9 2.2
v -0.7 2.3 2.4
v -0.7 2.3 2.2
v -0.7 3 2.4
v -0.7 3 2.2
v -0.7 4.5 2.4
v -0.7 4.5 2.2
v -0.7 5.2 2.4
v -0.7 5.2 2.2
v -0.6 1.2 -2.4
v -0.6 1.2 -2.6
v -0.6 1.9 -2.4
v -0.6 1.9 -2.6
v -0.6 2.4 -2.4
v -0.6 2.4 -2.6
v -0.6 3.1 -2.4
v -0.6 3.1 -2.6
v -0.6 4.6 -2.4
v -0.6 4.6 -2.6
v -0.6 5.3 -2.4
v -0.6 5.3 -2.6
v 0.9 1.2 2.4
v 0.9 1.2 2.2
v 0.9 1.9 2.4
v 0.9 1.9 2.2
v 0.9 2.3 2.4
v 0.9 2.3 2.2
v 0.9 3 2.4
v 0.9 3 2.2
v 0.9 4.5 2.4
v 0.9 4.5 2.2
v 0.9 5.2 2.4
v 0.9 5.2 2.2
v 1 1.2 -2.4
v 1 1.2 -2.6
v 1 1.9 -2.4
v 1 1.9 -2.6
v 1 2.4 -2.4
v 1 2.4 -2.6
v 1 3.1 -2.4
v 1 3.1 -2.6
v 1 4.6 -2.4
v 1 4.6 -2.6
v 1 5.3 -2.4
v 1 5.3 -2.6
v 2.8 0 2.6
v 2.8 0 2.4
v 2.8 0 -2.6
v 2.8 0 -2.8
v 2.8 0.2 2.6
v 2.8 0.2 2.5
v 2.8 0.2 -2.7
v 2.8 0.2 -2.8
v 2.8 0.3 2.5
v 2.8 0.3 2.4
v 2.8 0.3 -2.6
v 2.8 0.3 -2.7
v 2.8 5.7 2.5
v 2.8 5.7 2.4
v 2.8 5.7 -2.6
v 2.8 5.7 -2.7
v 2.8 5.8 2.7
v 2.8 5.8 2.5
v 2.8 5.8 -2.7
v 2.8 5.8 -2.9
v 2.8 6 2.7
v 2.8 6 2.4
v 2.8 6 -2.6
v 2.8 6 -2.9
v -2.8 5.8 2.7
v -2.8 6 2.7
v 2.8 5.8 2.7
v 2.8 6 2.7
v -2.8 0 2.6
v -2.8 0.2 2.6
v 2.8 0 2.6
v 2.8 0.2 2.6
v -2.8 0.2 2.5
v -2.8 0.3 2.5
v -2.8 5.7 2.5
v -2.8 5.8 2.5
v 2.8 0.2 2.5
v 2.8 0.3 2.5
v 2.8 5.7 2.5
v 2.8 5.8 2.5
v -2.8 0.3 2.4
v -2.8 5.7 2.4
v -2.3 1.2 2.4
v -2.3 1.9 2.4
v -2.3 2.3 2.4
v -2.3 3 2.4
v -2.3 4.5 2.4
v -2.3 5.2 2.4
v -0.9 1.2 2.4
v -0.9 1.9 2.4
v -0.9 2.3 2.4
v -0.9 3 2.4
v -0.9 4.5 2.4
v -0.9 5.2 2.4
v -0.7 1.2 2.4
v -0.7 1.9 2.4
v -0.7 2.3 2.4
v -0.7 3 2.4
v -0.7 4.5 2.4
v -0.7 5.2 2.4
v 0.7 1.2 2.4
v 0.7 1.9 2.4
v 0.7 2.3 2.4
v 0.7 3 2.4
v 0.7 4.5 2.4
v 0.7 5.2 2.4
v 0.9 1.2 2.4
v 0.9 1.9 2.4
v 0.9 2.3 2.4
v 0.9 3 2.4
v 0.9 4.5 2.4
v 0.9 5.2 2.4
v 2.3 1.2 2.4
v 2.3 1.9 2.4
v 2.3 2.3 2.4
v 2.3 3 2.4
v 2.3 4.5 2.4
v 2.3 5.2 2.4
v 2.8 0.3 2.4
v 2.8 5.7 2.4
v -2.3 1.2 2.2
v -2.3 1.9 2.2
v -2.3 2.3 2.2
v -2.3 3 2.2
v -2.3 4.5 2.2
v -2.3 5.2 2.2
v -0.9 1.2 2.2
v -0.9 1.9 2.2
v -0.9 2.3 2.2
v -0.9 3 2.2
v -0.9 4.5 2.2
v -0.9 5.2 2.2
v -0.7 1.2 2.2
v -0.7 1.9 2.2
v -0.7 2.3 2.2
v -0.7 3 2.2
v -0.7 4.5 2.2
v -0.7 5.2 2.2
v 0.7 1.2 2.2
v 0.7 1.9 2.2
v 0.7 2.3 2.2
v 0.7 3 2.2
v 0.7 4.5 2.2
v 0.7 5.2 2.2
v 0.9 1.2 2.2
v 0.9 1.9 2.2
v 0.9 2.3 2.2
v 0.9 3 2.2
v 0.9 4.5 2.2
v 0.9 5.2 2.2
v 2.3 1.2 2.2
v 2.3 1.9 2.2
v 2.3 2.3 2.2
v 2.3 3 2.2
v 2.3 4.5 2.2
v 2.3 5.2 2.2
v -2.3 1.2 -2.4
v -2.3 1.9 -2.4
v -2.3 2.4 -2.4
v -2.3 3.1 -2.4
v -2.3 4.6 -2.4
v -2.3 5.3 -2.4
v -0.8 1.2 -2.4
v -0.8 1.9 -2.4
v -0.8 2.4 -2.4
v -0.8 3.1 -2.4
v -0.8 4.6 -2.4
v -0.8 5.3 -2.4
v -0.6 1.2 -2.4
v -0.6 1.9 -2.4
v -0.6 2.4 -2.4
v -0.6 3.1 -2.4
v -0.6 4.6 -2.4
v -0.6 5.3 -2.4
v 0.8 1.2 -2.4
v 0.8 1.9 -2.4
v 0.8 2.4 -2.4
v 0.8 3.1 -2.4
v 0.8 4.6 -2.4
v 0.8 5.3 -2.4
v 1 1.2 -2.4
v 1 1.9 -2.4
v 1 2.4 -2.4
v 1 3.1 -2.4
v 1 4.6 -2.4
v 1 5.3 -2.4
v 2.4 1.2 -2.4
v 2.4 1.9 -2.4
v 2.4 2.4 -2.4
v 2.4 3.1 -2.4
v 2.4 4.6 -2.4
v 2.4 5.3 -2.4
v -2.8 0.3 -2.6
v -2.8 5.7 -2.6
v -2.3 1.2 -2.6
v -2.3 1.9 -2.6
v -2.3 2.4 -2.6
v -2.3 3.1 -2.6
v -2.3 4.6 -2.6
v -2.3 5.3 -2.6
v -0.8 1.2 -2.6
v -0.8 1.9 -2.6
v -0.8 2.4 -2.6
v -0.8 3.1 -2.6
v -0.8 4.6 -2.6
v -0.8 5.3 -2.6
v -0.6 1.2 -2.6
v -0.6 1.9 -2.6
v -0.6 2.4 -2.6
v -0.6 3.1 -2.6
v -0.6 4.6 -2.6
v -0.6 5.3 -2.6
v 0.8 1.2 -2.6
v 0.8 1.9 -2.6
v 0.8 2.4 -2.6
v 0.8 3.1 -2.6
v 0.8 4.6 -2.6
v 0.8 5.3 -2.6
v 1 1.2 -2.6
v 1 1.9 -2.6
v 1 2.4 -2.6
v 1 3.1 -2.6
v 1 4.6 -2.6
v 1 5.3 -2.6
v 2.4 1.2 -2.6
v 2.4 1.9 -2.6
v 2.4 2.4 -2.6
v 2.4 3.1 -2.6
v 2.4 4.6 -2.6
v 2.4 5.3 -2.6
v 2.8 0.3 -2.6
v 2.8 5.7 -2.6
v -2.8 0.2 -2.7
v -2.8 0.3 -2.7
v -2.8 5.7 -2.7
v -2.8 5.8 -2.7
v 2.8 0.2 -2.7
v 2.8 0.3 -2.7
v 2.8 5.7 -2.7
v 2.8 5.8 -2.7
v -2.8 0 -2.8
v -2.8 0.2 -2.8
v 2.8 0 -2.8
v 2.8 0.2 -2.8
v -2.8 5.8 -2.9
v -2.8 6 -2.9
v 2.8 5.8 -2.9
v 2.8 6 -2.9
v -2.8 0 2.6
v 2.8 0 2.6
v -2.8 0 2.4
v 2.8 0 2.4
v -2.8 0 -2.6
v 2.8 0 -2.6
v -2.8 0 -2.8
v 2.8 0 -2.8
v -2.3 1.9 2.4
v -0.9 1.9 2.4
v -0.7 1.9 2.4
v 0.7 1.9 2.4
v 0.9 1.9 2.4
v 2.3 1.9 2.4
v -2.3 1.9 2.2
v -0.9 1.9 2.2
v -0.7 1.9 2.2
v 0.7 1.9 2.2
v 0.9 1.9 2.2
v 2.3 1.9 2.2
v -2.3 1.9 -2.4
v -0.8 1.9 -2.4
v -0.6 1.9 -2.4
v 0.8 1.9 -2.4
v 1 1.9 -2.4
v 2.4 1.9 -2.4
v -2.3 1.9 -2.6
v -0.8 1.9 -2.6
v -0.6 1.9 -2.6
v 0.8 1.9 -2.6
v 1 1.9 -2.6
v 2.4 1.9 -2.6
v -2.3 3 2.4
v -0.9 3 2.4
v -0.7 3 2.4
v 0.7 3 2.4
v 0.9 3 2.4
v 2.3 3 2.4
v -2.3 3 2.2
v -0.9 3 2.2
v -0.7 3 2.2
v 0.7 3 2.2
v 0.9 3 2.2
v 2.3 3 2.2
v -2.3 3.1 -2.4
v -0.8 3.1 -2.4
v -0.6 3.1 -2.4
v 0.8 3.1 -2.4
v 1 3.1 -2.4
v 2.4 3.1 -2.4
v -2.3 3.1 -2.6
v -0.8 3.1 -2.6
v -0.6 3.1 -2.6
v 0.8 3.1 -2.6
v 1 3.1 -2.6
v 2.4 3.1 -2.6
v -2.3 5.2 2.4
v -0.9 5.2 2.4
v -0.7 5.2 2.4
v 0.7 5.2 2.4
v 0.9 5.2 2.4
v 2.3 5.2 2.4
v -2.3 5.2 2.2
v -0.9 5.2 2.2
v -0.7 5.2 2.2
v 0.7 5.2 2.2
v 0.9 5.2 2.2
v 2.3 5.2 2.2
v -2.3 5.3 -2.4
v -0.8 5.3 -2.4
v -0.6 5.3 -2.4
v 0.8 5.3 -2.4
v 1 5.3 -2.4
v 2.4 5.3 -2.4
v -2.3 5.3 -2.6
v -0.8 5.3 -2.6
v -0.6 5.3 -2.6
v 0.8 5.3 -2.6
v 1 5.3 -2.6
v 2.4 5.3 -2.6
v -2.8 5.7 2.5
v 2.8 5.7 2.5
v -2.8 5.7 2.4
v 2.8 5.7 2.4
v -2.8 5.7 -2.6
v 2.8 5.7 -2.6
v -2.8 5.7 -2.7
v 2.8 5.7 -2.7
v -2.8 5.8 2.7
v 2.8 5.8 2.7
v -2.8 5.8 2.5
v 2.8 5.8 2.5
v -2.8 5.8 -2.7
v 2.8 5.8 -2.7
v -2.8 5.8 -2.9
v 2.8 5.8 -2.9
v -2.8 0.2 2.6
v 2.8 0.2 2.6
v -2.8 0.2 2.5
v 2.8 0.2 2.5
v -2.8 0.2 -2.7
v 2.8 0.2 -2.7
v -2.8 0.2 -2.8
v 2.8 0.2 -2.8
v -2.8 0.3 2.5
v 2.8 0.3 2.5
v -2.8 0.3 2.4
v 2.8 0.3 2.4
v -2.8 0.3 -2.6
v 2.8 0.3 -2.6
v -2.8 0.3 -2.7
v 2.8 0.3 -2.7
v -2.3 1.2 2.4
v -0.9 1.2 2.4
v -0.7 1.2 2.4
v 0.7 1.2 2.4
v 0.9 1.2 2.4
v 2.3 1.2 2.4
v -2.3 1.2 2.2
v -0.9 1.2 2.2
v -0.7 1.2 2.2
v 0.7 1.2 2.2
v 0.9 1.2 2.2
v 2.3 1.2 2.2
v -2.3 1.2 -2.4
v -0.8 1.2 -2.4
v -0.6 1.2 -2.4
v 0.8 1.2 -2.4
v 1 1.2 -2.4
v 2.4 1.2 -2.4
v -2.3 1.2 -2.6
v -0.8 1.2 -2.6
v -0.6 1.2 -2.6
v 0.8 1.2 -2.6
v 1 1.2 -2.6
v 2.4 1.2 -2.6
v -2.3 2.3 2.4
v -0.9 2.3 2.4
v -0.7 2.3 2.4
v 0.7 2.3 2.4
v 0.9 2.3 2.4
v 2.3 2.3 2.4
v -2.3 2.3 2.2
v -0.9 2.3 2.2
v -0.7 2.3 2.2
v 0.7 2.3 2.2
v 0.9 2.3 2.2
v 2.3 2.3 2.2
v -2.3 2.4 -2.4
v -0.8 2.4 -2.4
v -0.6 2.4 -2.4
v 0.8 2.4 -2.4
v 1 2.4 -2.4
v 2.4 2.4 -2.4
v -2.3 2.4 -2.6
v -0.8 2.4 -2.6
v -0.6 2.4 -2.6
v 0.8 2.4 -2.6
v 1 2.4 -2.6
v 2.4 2.4 -2.6
v -2.3 4.5 2.4
v -0.9 4.5 2.4
v -0.7 4.5 2.4
v 0.7 4.5 2.4
v 0.9 4.5 2.4
v 2.3 4.5 2.4
v -2.3 4.5 2.2
v -0.9 4.5 2.2
v -0.7 4.5 2.2
v 0.7 4.5 2.2
v 0.9 4.5 2.2
v 2.3 4.5 2.2
v -2.3 4.6 -2.4
v -0.8 4.6 -2.4
v -0.6 4.6 -2.4
v 0.8 4.6 -2.4
v 1 4.6 -2.4
v 2.4 4.6 -2.4
v -2.3 4.6 -2.6
v -0.8 4.6 -2.6
v -0.6 4.6 -2.6
v 0.8 4.6 -2.6
v 1 4.6 -2.6
v 2.4 4.6 -2.6
v -2.8 6 2.7
v 2.8 6 2.7
v -2.8 6 2.4
v 2.8 6 2.4
v -2.8 6 -2.6
v 2.8 6 -2.6
v -2.8 6 -2.9
v 2.8 6 -2.9

# faces
f 5/4/1 2/4/1 1/4/1
f 6/4/1 2/4/1 5/4/1
f 7/4/1 4/4/1 3/4/1
f 8/4/1 4/4/1 7/4/1
f 9/4/1 2/4/1 6/4/1
f 10/2/1 3/2/1 2/2/1
f 10/4/1 2/4/1 9/4/1
f 11/4/1 7/4/1 3/4/1
f 11/2/1 3/2/1 10/2/1
f 12/4/1 7/4/1 11/4/1
f 14/2/1 11/2/1 10/2/1
f 15/2/1 11/2/1 14/2/1
f 18/4/1 14/4/1 13/4/1
f 19/4/1 16/4/1 15/4/1
f 21/4/1 18/4/1 17/4/1
f 22/4/1 14/4/1 18/4/1
f 22/4/1 18/4/1 21/4/1
f 22/2/1 15/2/1 14/2/1
f 23/4/1 19/4/1 15/4/1
f 23/2/1 15/2/1 22/2/1
f 23/4/1 20/4/1 19/4/1
f 24/4/1 20/4/1 23/4/1
f 27/2/1 26/2/1 25/2/1
f 28/2/1 26/2/1 27/2/1
f 31/2/1 30/2/1 29/2/1
f 32/2/1 30/2/1 31/2/1
f 35/2/1 34/2/1 33/2/1
f 36/2/1 34/2/1 35/2/1
f 39/2/1 38/2/1 37/2/1
f 40/2/1 38/2/1 39/2/1
f 43/2/1 42/2/1 41/2/1
f 44/2/1 42/2/1 43/2/1
f 47/2/1 46/2/1 45/2/1
f 48/2/1 46/2/1 47/2/1
f 51/2/1 50/2/1 49/2/1
f 52/2/1 50/2/1 51/2/1
f 55/2/1 54/2/1 53/2/1
f 56/2/1 54/2/1 55/2/1
f 59/2/1 58/2/1 57/2/1
f 60/2/1 58/2/1 59/2/1
f 63/2/1 62/2/1 61/2/1
f 64/2/1 62/2/1 63/2/1
f 67/2/1 66/2/1 65/2/1
f 68/2/1 66/2/1 67/2/1
f 71/2/1 70/2/1 69/2/1
f 72/2/1 70/2/1 71/2/1
f 75/2/1 74/2/1 73/2/1
f 76/2/1 74/2/1 75/2/1
f 79/2/1 78/2/1 77/2/1
f 80/2/1 78/2/1 79/2/1
f 83/2/1 82/2/1 81/2/1
f 84/2/1 82/2/1 83/2/1
f 87/2/1 86/2/1 85/2/1
f 88/2/1 86/2/1 87/2/1
f 91/2/1 90/2/1 89/2/1
f 92/2/1 90/2/1 91/2/1
f 95/2/1 94/2/1 93/2/1
f 96/2/1 94/2/1 95/2/1
f 97/2/2 98/2/2 101/2/2
f 101/2/2 98/2/2 102/2/2
f 99/2/2 100/2/2 103/2/2
f 103/2/2 100/2/2 104/2/2
f 105/2/2 106/2/2 109/2/2
f 109/2/2 106/2/2 110/2/2
f 107/2/2 108/2/2 111/2/2
f 111/2/2 108/2/2 112/2/2
f 113/2/2 114/2/2 117/2/2
f 117/2/2 114/2/2 118/2/2
f 115/2/2 116/2/2 119/2/2
f 119/2/2 116/2/2 120/2/2
f 121/2/2 122/2/2 123/2/2
f 123/2/2 122/2/2 124/2/2
f 125/2/2 126/2/2 127/2/2
f 127/2/2 126/2/2 128/2/2
f 129/2/2 130/2/2 131/2/2
f 131/2/2 130/2/2 132/2/2
f 133/2/2 134/2/2 135/2/2
f 135/2/2 134/2/2 136/2/2
f 137/2/2 138/2/2 139/2/2
f 139/2/2 138/2/2 140/2/2
f 141/2/2 142/2/2 143/2/2
f 143/2/2 142/2/2 144/2/2
f 145/2/2 146/2/2 147/2/2
f 147/2/2 146/2/2 148/2/2
f 149/2/2 150/2/2 151/2/2
f 151/2/2 150/2/2 152/2/2
f 153/2/2 154/2/2 155/2/2
f 155/2/2 154/2/2 156/2/2
f 157/2/2 158/2/2 159/2/2
f 159/2/2 158/2/2 160/2/2
f 161/2/2 162/2/2 163/2/2
f 163/2/2 162/2/2 164/2/2
f 165/2/2 166/2/2 167/2/2
f 167/2/2 166/2/2 168/2/2
f 169/4/2 170/4/2 173/4/2
f 173/4/2 170/4/2 174/4/2
f 171/4/2 172/4/2 175/4/2
f 175/4/2 172/4/2 176/4/2
f 174/4/2 170/4/2 177/4/2
f 170/2/2 171/2/2 178/2/2
f 177/4/2 170/4/2 178/4/2
f 171/4/2 175/4/2 179/4/2
f 178/2/2 171/2/2 179/2/2
f 179/4/2 175/4/2 180/4/2
f 178/2/2 179/2/2 182/2/2
f 182/2/2 179/2/2 183/2/2
f 181/4/2 182/4/2 186/4/2
f 183/4/2 184/4/2 187/4/2
f 185/4/2 186/4/2 189/4/2
f 186/4/2 182/4/2 190/4/2
f 189/4/2 186/4/2 190/4/2
f 182/2/2 183/2/2 190/2/2
f 183/4/2 187/4/2 191/4/2
f 190/2/2 183/2/2 191/2/2
f 187/4/2 188/4/2 191/4/2
f 191/4/2 188/4/2 192/4/2
f 195/4/3 194/4/3 193/4/3
f 196/4/3 194/4/3 195/4/3
f 199/4/3 198/4/3 197/4/3
f 200/4/3 198/4/3 199/4/3
f 205/4/3 202/4/3 201/4/3
f 206/4/3 202/4/3 205/4/3
f 207/4/3 204/4/3 203/4/3
f 208/4/3 204/4/3 207/4/3
f 211/2/3 210/2/3 209/2/3
f 212/2/3 210/2/3 211/2/3
f 213/2/3 210/2/3 212/2/3
f 214/2/3 210/2/3 213/2/3
f 215/2/3 210/2/3 214/2/3
f 216/2/3 210/2/3 215/2/3
f 217/2/3 211/2/3 209/2/3
f 218/2/3 213/2/3 212/2/3
f 219/2/3 213/2/3 218/2/3
f 220/2/3 215/2/3 214/2/3
f 221/2/3 215/2/3 220/2/3
f 222/2/3 210/2/3 216/2/3
f 223/2/3 221/2/3 220/2/3
f 223/2/3 222/2/3 221/2/3
f 223/2/3 219/2/3 218/2/3
f 223/2/3 217/2/3 209/2/3
f 223/2/3 220/2/3 219/2/3
f 223/2/3 218/2/3 217/2/3
f 224/2/3 222/2/3 223/2/3
f 225/2/3 222/2/3 224/2/3
f 226/2/3 222/2/3 225/2/3
f 227/2/3 222/2/3 226/2/3
f 228/2/3 210/2/3 222/2/3
f 228/2/3 222/2/3 227/2/3
f 229/2/3 223/2/3 209/2/3
f 230/2/3 225/2/3 224/2/3
f 231/2/3 225/2/3 230/2/3
f 232/2/3 227/2/3 226/2/3
f 233/2/3 227/2/3 232/2/3
f 234/2/3 210/2/3 228/2/3
f 235/2/3 231/2/3 230/2/3
f 235/2/3 234/2/3 233/2/3
f 235/2/3 233/2/3 232/2/3
f 235/2/3 229/2/3 209/2/3
f 235/2/3 232/2/3 231/2/3
f 235/2/3 230/2/3 229/2/3
f 236/2/3 234/2/3 235/2/3
f 237/2/3 234/2/3 236/2/3
f 238/2/3 234/2/3 237/2/3
f 239/2/3 234/2/3 238/2/3
f 240/2/3 210/2/3 234/2/3
f 240/2/3 234/2/3 239/2/3
f 241/2/3 235/2/3 209/2/3
f 242/2/3 237/2/3 236/2/3
f 243/2/3 237/2/3 242/2/3
f 244/2/3 239/2/3 238/2/3
f 245/2/3 239/2/3 244/2/3
f 246/2/3 210/2/3 240/2/3
f 247/2/3 243/2/3 242/2/3
f 247/2/3 246/2/3 245/2/3
f 247/2/3 245/2/3 244/2/3
f 247/2/3 241/2/3 209/2/3
f 247/2/3 244/2/3 243/2/3
f 247/2/3 242/2/3 241/2/3
f 248/2/3 210/2/3 246/2/3
f 248/2/3 246/2/3 247/2/3
f 255/1/3 250/1/3 249/1/3
f 256/1/3 250/1/3 255/1/3
f 257/5/3 252/5/3 251/5/3
f 258/5/3 252/5/3 257/5/3
f 259/1/3 254/1/3 253/1/3
f 260/1/3 254/1/3 259/1/3
f 267/1/3 262/1/3 261/1/3
f 268/1/3 262/1/3 267/1/3
f 269/1/3 264/1/3 263/1/3
f 270/1/3 264/1/3 269/1/3
f 271/5/3 266/5/3 265/5/3
f 272/5/3 266/5/3 271/5/3
f 279/1/3 274/1/3 273/1/3
f 280/1/3 274/1/3 279/1/3
f 281/5/3 276/5/3 275/5/3
f 282/5/3 276/5/3 281/5/3
f 283/1/3 278/1/3 277/1/3
f 284/1/3 278/1/3 283/1/3
f 285/5/4 286/5/4 291/5/4
f 291/5/4 286/5/4 292/5/4
f 287/1/4 288/1/4 293/1/4
f 293/1/4 288/1/4 294/1/4
f 289/1/4 290/1/4 295/1/4
f 295/1/4 290/1/4 296/1/4
f 297/5/4 298/5/4 303/5/4
f 303/5/4 298/5/4 304/5/4
f 299/1/4 300/1/4 305/1/4
f 305/1/4 300/1/4 306/1/4
f 301/1/4 302/1/4 307/1/4
f 307/1/4 302/1/4 308/1/4
f 309/1/4 310/1/4 315/1/4
f 315/1/4 310/1/4 316/1/4
f 311/1/4 312/1/4 317/1/4
f 317/1/4 312/1/4 318/1/4
f 313/5/4 314/5/4 319/5/4
f 319/5/4 314/5/4 320/5/4
f 321/2/4 322/2/4 323/2/4
f 323/2/4 322/2/4 324/2/4
f 324/2/4 322/2/4 325/2/4
f 325/2/4 322/2/4 326/2/4
f 326/2/4 322/2/4 327/2/4
f 327/2/4 322/2/4 328/2/4
f 321/2/4 323/2/4 329/2/4
f 324/2/4 325/2/4 330/2/4
f 330/2/4 325/2/4 331/2/4
f 326/2/4 327/2/4 332/2/4
f 332/2/4 327/2/4 333/2/4
f 328/2/4 322/2/4 334/2/4
f 332/2/4 333/2/4 335/2/4
f 333/2/4 334/2/4 335/2/4
f 330/2/4 331/2/4 335/2/4
f 321/2/4 329/2/4 335/2/4
f 331/2/4 332/2/4 335/2/4
f 329/2/4 330/2/4 335/2/4
f 335/2/4 334/2/4 336/2/4
f 336/2/4 334/2/4 337/2/4
f 337/2/4 334/2/4 338/2/4
f 338/2/4 334/2/4 339/2/4
f 334/2/4 322/2/4 340/2/4
f 339/2/4 334/2/4 340/2/4
f 321/2/4 335/2/4 341/2/4
f 336/2/4 337/2/4 342/2/4
f 342/2/4 337/2/4 343/2/4
f 338/2/4 339/2/4 344/2/4
f 344/2/4 339/2/4 345/2/4
f 340/2/4 322/2/4 346/2/4
f 342/2/4 343/2/4 347/2/4
f 345/2/4 346/2/4 347/2/4
f 344/2/4 345/2/4 347/2/4
f 321/2/4 341/2/4 347/2/4
f 343/2/4 344/2/4 347/2/4
f 341/2/4 342/2/4 347/2/4
f 347/2/4 346/2/4 348/2/4
f 348/2/4 346/2/4 349/2/4
f 349/2/4 346/2/4 350/2/4
f 350/2/4 346/2/4 351/2/4
f 346/2/4 322/2/4 352/2/4
f 351/2/4 346/2/4 352/2/4
f 321/2/4 347/2/4 353/2/4
f 348/2/4 349/2/4 354/2/4
f 354/2/4 349/2/4 355/2/4
f 350/2/4 351/2/4 356/2/4
f 356/2/4 351/2/4 357/2/4
f 352/2/4 322/2/4 358/2/4
f 354/2/4 355/2/4 359/2/4
f 357/2/4 358/2/4 359/2/4
f 356/2/4 357/2/4 359/2/4
f 321/2/4 353/2/4 359/2/4
f 355/2/4 356/2/4 359/2/4
f 353/2/4 354/2/4 359/2/4
f 358/2/4 322/2/4 360/2/4
f 359/2/4 358/2/4 360/2/4
f 361/4/4 362/4/4 365/4/4
f 365/4/4 362/4/4 366/4/4
f 363/4/4 364/4/4 367/4/4
f 367/4/4 364/4/4 368/4/4
f 369/4/4 370/4/4 371/4/4
f 371/4/4 370/4/4 372/4/4
f 373/4/4 374/4/4 375/4/4
f 375/4/4 374/4/4 376/4/4
f 379/4/5 378/4/5 377/4/5
f 380/4/5 378/4/5 379/4/5
f 381/2/5 380/2/5 379/2/5
f 382/2/5 380/2/5 381/2/5
f 383/4/5 382/4/5 381/4/5
f 384/4/5 382/4/5 383/4/5
f 391/2/5 386/2/5 385/2/5
f 392/2/5 386/2/5 391/2/5
f 393/2/5 388/2/5 387/2/5
f 394/2/5 388/2/5 393/2/5
f 395/2/5 390/2/5 389/2/5
f 396/2/5 390/2/5 395/2/5
f 403/2/5 398/2/5 397/2/5
f 404/2/5 398/2/5 403/2/5
f 405/2/5 400/2/5 399/2/5
f 406/2/5 400/2/5 405/2/5
f 407/2/5 402/2/5 401/2/5
f 408/2/5 402/2/5 407/2/5
f 415/2/5 410/2/5 409/2/5
f 416/2/5 410/2/5 415/2/5
f 417/2/5 412/2/5 411/2/5
f 418/2/5 412/2/5 417/2/5
f 419/2/5 414/2/5 413/2/5
f 420/2/5 414/2/5 419/2/5
f 427/2/5 422/2/5 421/2/5
f 428/2/5 422/2/5 427/2/5
f 429/2/5 424/2/5 423/2/5
f 430/2/5 424/2/5 429/2/5
f 431/2/5 426/2/5 425/2/5
f 432/2/5 426/2/5 431/2/5
f 439/2/5 434/2/5 433/2/5
f 440/2/5 434/2/5 439/2/5
f 441/2/5 436/2/5 435/2/5
f 442/2/5 436/2/5 441/2/5
f 443/2/5 438/2/5 437/2/5
f 444/2/5 438/2/5 443/2/5
f 451/2/5 446/2/5 445/2/5
f 452/2/5 446/2/5 451/2/5
f 453/2/5 448/2/5 447/2/5
f 454/2/5 448/2/5 453/2/5
f 455/2/5 450/2/5 449/2/5
f 456/2/5 450/2/5 455/2/5
f 459/4/5 458/4/5 457/4/5
f 460/4/5 458/4/5 459/4/5
f 463/4/5 462/4/5 461/4/5
f 464/4/5 462/4/5 463/4/5
f 467/4/5 466/4/5 465/4/5
f 468/4/5 466/4/5 467/4/5
f 471/4/5 470/4/5 469/4/5
f 472/4/5 470/4/5 471/4/5
f 473/4/6 474/4/6 475/4/6
f 475/4/6 474/4/6 476/4/6
f 477/4/6 478/4/6 479/4/6
f 479/4/6 478/4/6 480/4/6
f 481/4/6 482/4/6 483/4/6
f 483/4/6 482/4/6 484/4/6
f 485/4/6 486/4/6 487/4/6
f 487/4/6 486/4/6 488/4/6
f 489/2/6 490/2/6 495/2/6
f 495/2/6 490/2/6 496/2/6
f 491/2/6 492/2/6 497/2/6
f 497/2/6 492/2/6 498/2/6
f 493/2/6 494/2/6 499/2/6
f 499/2/6 494/2/6 500/2/6
f 501/2/6 502/2/6 507/2/6
f 507/2/6 502/2/6 508/2/6
f 503/2/6 504/2/6 509/2/6
f 509/2/6 504/2/6 510/2/6
f 505/2/6 506/2/6 511/2/6
f 511/2/6 506/2/6 512/2/6
f 513/2/6 514/2/6 519/2/6
f 519/2/6 514/2/6 520/2/6
f 515/2/6 516/2/6 521/2/6
f 521/2/6 516/2/6 522/2/6
f 517/2/6 518/2/6 523/2/6
f 523/2/6 518/2/6 524/2/6
f 525/2/6 526/2/6 531/2/6
f 531/2/6 526/2/6 532/2/6
f 527/2/6 528/2/6 533/2/6
f 533/2/6 528/2/6 534/2/6
f 529/2/6 530/2/6 535/2/6
f 535/2/6 530/2/6 536/2/6
f 537/2/6 538/2/6 543/2/6
f 543/2/6 538/2/6 544/2/6
f 539/2/6 540/2/6 545/2/6
f 545/2/6 540/2/6 546/2/6
f 541/2/6 542/2/6 547/2/6
f 547/2/6 542/2/6 548/2/6
f 549/2/6 550/2/6 555/2/6
f 555/2/6 550/2/6 556/2/6
f 551/2/6 552/2/6 557/2/6
f 557/2/6 552/2/6 558/2/6
f 553/2/6 554/2/6 559/2/6
f 559/2/6 554/2/6 560/2/6
f 561/4/6 562/4/6 563/4/6
f 563/4/6 562/4/6 564/4/6
f 563/2/6 564/2/6 565/2/6
f 565/2/6 564/2/6 566/2/6
f 565/4/6 566/4/6 567/4/6
f 567/4/6 566/4/6 568/4/6
