# MagicaVoxel @ Ephtracy

# group
o 

# material
mtllib Signborad_013.mtl
usemtl palette

# normals
vn -1 0 0
vn 1 0 0
vn 0 0 1
vn 0 0 -1
vn 0 -1 0
vn 0 1 0

# texcoords
vt 0.0292969 0.5
vt 0.0800781 0.5
vt 0.951172 0.5

# verts
v -3.2 2.2 -2.8
v -3.2 2.2 -2.9
v -3.2 2.2 -3.2
v -3.2 3.2 -2.9
v -3.2 3.2 -3.2
v -3.2 3.4 -2.9
v -3.2 3.4 -3.2
v -3.2 4.4 -2.8
v -3.2 4.4 -2.9
v -3.2 4.4 -3.2
v -3.1 2 -2.8
v -3.1 2 -3.2
v -3.1 2.1 -2.9
v -3.1 2.1 -3.2
v -3.1 2.2 -2.8
v -3.1 2.2 -2.9
v -3.1 2.2 -3.2
v -3.1 4.4 -2.8
v -3.1 4.4 -2.9
v -3.1 4.4 -3.2
v -3.1 4.5 -2.9
v -3.1 4.5 -3.2
v -3.1 4.6 -2.8
v -3.1 4.6 -3.2
v 2.9 3.1 -2.8
v 2.9 3.1 -2.9
v 2.9 3.2 -2.8
v 2.9 3.2 -2.9
v 2.9 3.4 -2.8
v 2.9 3.4 -2.9
v 2.9 3.5 -2.8
v 2.9 3.5 -2.9
v 3.1 2.3 -2.8
v 3.1 2.3 -2.9
v 3.1 3.1 -2.8
v 3.1 3.1 -2.9
v 3.1 3.5 -2.8
v 3.1 3.5 -2.9
v 3.1 4.3 -2.8
v 3.1 4.3 -2.9
v -3.1 2.3 -2.8
v -3.1 2.3 -2.9
v -3.1 3.1 -2.8
v -3.1 3.1 -2.9
v -3.1 3.5 -2.8
v -3.1 3.5 -2.9
v -3.1 4.3 -2.8
v -3.1 4.3 -2.9
v -2.9 3.1 -2.8
v -2.9 3.1 -2.9
v -2.9 3.2 -2.8
v -2.9 3.2 -2.9
v -2.9 3.4 -2.8
v -2.9 3.4 -2.9
v -2.9 3.5 -2.8
v -2.9 3.5 -2.9
v 3.1 2 -2.8
v 3.1 2 -3.2
v 3.1 2.1 -2.9
v 3.1 2.1 -3.2
v 3.1 2.2 -2.8
v 3.1 2.2 -2.9
v 3.1 2.2 -3.2
v 3.1 4.4 -2.8
v 3.1 4.4 -2.9
v 3.1 4.4 -3.2
v 3.1 4.5 -2.9
v 3.1 4.5 -3.2
v 3.1 4.6 -2.8
v 3.1 4.6 -3.2
v 3.2 2.2 -2.8
v 3.2 2.2 -2.9
v 3.2 2.2 -3.2
v 3.2 3.2 -2.9
v 3.2 3.2 -3.2
v 3.2 3.4 -2.9
v 3.2 3.4 -3.2
v 3.2 4.4 -2.8
v 3.2 4.4 -2.9
v 3.2 4.4 -3.2
v -3.2 2.2 -2.8
v -3.2 4.4 -2.8
v -3.1 2 -2.8
v -3.1 2.2 -2.8
v -3.1 2.3 -2.8
v -3.1 3.1 -2.8
v -3.1 3.2 -2.8
v -3.1 3.4 -2.8
v -3.1 3.5 -2.8
v -3.1 4.3 -2.8
v -3.1 4.4 -2.8
v -3.1 4.6 -2.8
v -3 2.1 -2.8
v -3 2.2 -2.8
v -3 3.2 -2.8
v -3 3.4 -2.8
v -3 4.4 -2.8
v -3 4.5 -2.8
v -2.9 2.1 -2.8
v -2.9 2.2 -2.8
v -2.9 3.1 -2.8
v -2.9 3.2 -2.8
v -2.9 3.4 -2.8
v -2.9 3.5 -2.8
v -2.9 4.4 -2.8
v -2.9 4.5 -2.8
v 2.9 2.1 -2.8
v 2.9 2.2 -2.8
v 2.9 3.1 -2.8
v 2.9 3.2 -2.8
v 2.9 3.4 -2.8
v 2.9 3.5 -2.8
v 2.9 4.4 -2.8
v 2.9 4.5 -2.8
v 3 2.1 -2.8
v 3 2.2 -2.8
v 3 3.2 -2.8
v 3 3.4 -2.8
v 3 4.4 -2.8
v 3 4.5 -2.8
v 3.1 2 -2.8
v 3.1 2.2 -2.8
v 3.1 2.3 -2.8
v 3.1 3.1 -2.8
v 3.1 3.2 -2.8
v 3.1 3.4 -2.8
v 3.1 3.5 -2.8
v 3.1 4.3 -2.8
v 3.1 4.4 -2.8
v 3.1 4.6 -2.8
v 3.2 2.2 -2.8
v 3.2 4.4 -2.8
v -3.1 2.3 -2.9
v -3.1 3.1 -2.9
v -3.1 3.5 -2.9
v -3.1 4.3 -2.9
v -2.9 3.1 -2.9
v -2.9 3.2 -2.9
v -2.9 3.4 -2.9
v -2.9 3.5 -2.9
v -2.8 2.4 -2.9
v -2.8 2.5 -2.9
v -2.8 2.7 -2.9
v -2.8 2.9 -2.9
v -2.8 3.7 -2.9
v -2.8 4.1 -2.9
v -2.7 2.4 -2.9
v -2.7 2.5 -2.9
v -2.7 2.6 -2.9
v -2.7 2.7 -2.9
v -2.7 2.9 -2.9
v -2.7 3.6 -2.9
v -2.7 3.7 -2.9
v -2.7 4.1 -2.9
v -2.6 2.4 -2.9
v -2.6 2.5 -2.9
v -2.6 3.6 -2.9
v -2.6 3.7 -2.9
v -2.5 2.5 -2.9
v -2.5 2.6 -2.9
v -2.5 2.7 -2.9
v -2.5 3.6 -2.9
v -2.5 4.1 -2.9
v -2.4 2.4 -2.9
v -2.4 2.6 -2.9
v -2.4 2.9 -2.9
v -2.4 3.6 -2.9
v -2.4 4.1 -2.9
v -2.3 2.6 -2.9
v -2.3 2.9 -2.9
v -2.2 3.6 -2.9
v -2.2 3.7 -2.9
v -2.2 3.9 -2.9
v -2.2 4.1 -2.9
v -2.1 2.6 -2.9
v -2.1 2.9 -2.9
v -2.1 3.9 -2.9
v -2.1 4.1 -2.9
v -2 2.4 -2.9
v -2 2.6 -2.9
v -2 2.9 -2.9
v -2 3.6 -2.9
v -2 3.7 -2.9
v -2 3.8 -2.9
v -1.9 2.4 -2.9
v -1.9 2.6 -2.9
v -1.9 2.7 -2.9
v -1.9 3.7 -2.9
v -1.9 3.8 -2.9
v -1.9 3.9 -2.9
v -1.9 4.1 -2.9
v -1.8 2.4 -2.9
v -1.8 2.5 -2.9
v -1.8 2.8 -2.9
v -1.8 2.9 -2.9
v -1.8 3.9 -2.9
v -1.8 4.1 -2.9
v -1.7 2.6 -2.9
v -1.7 2.7 -2.9
v -1.7 2.8 -2.9
v -1.7 2.9 -2.9
v -1.6 2.4 -2.9
v -1.6 2.5 -2.9
v -1.6 3.6 -2.9
v -1.6 3.7 -2.9
v -1.6 3.8 -2.9
v -1.6 3.9 -2.9
v -1.5 3.6 -2.9
v -1.5 3.7 -2.9
v -1.4 2.4 -2.9
v -1.4 2.9 -2.9
v -1.4 3.7 -2.9
v -1.4 3.8 -2.9
v -1.4 3.9 -2.9
v -1.3 2.4 -2.9
v -1.3 2.9 -2.9
v -1.3 3.8 -2.9
v -1.3 4.1 -2.9
v -1.2 2.6 -2.9
v -1.2 2.8 -2.9
v -1.2 3.7 -2.9
v -1.2 4.1 -2.9
v -1.1 2.4 -2.9
v -1.1 2.5 -2.9
v -1.1 2.6 -2.9
v -1.1 2.8 -2.9
v -1.1 3.7 -2.9
v -1.1 4 -2.9
v -1 2.4 -2.9
v -1 2.5 -2.9
v -1 3.8 -2.9
v -1 4 -2.9
v -1 4.1 -2.9
v -0.9 3.6 -2.9
v -0.9 3.7 -2.9
v -0.9 3.8 -2.9
v -0.8 3.7 -2.9
v -0.8 3.8 -2.9
v -0.7 2.5 -2.9
v -0.7 2.7 -2.9
v -0.7 3.6 -2.9
v -0.7 3.8 -2.9
v -0.7 4 -2.9
v -0.7 4.1 -2.9
v -0.6 2.4 -2.9
v -0.6 2.5 -2.9
v -0.6 2.7 -2.9
v -0.6 3.6 -2.9
v -0.6 3.9 -2.9
v -0.5 2.7 -2.9
v -0.5 2.9 -2.9
v -0.5 3.6 -2.9
v -0.5 3.9 -2.9
v -0.4 2.7 -2.9
v -0.4 2.9 -2.9
v -0.3 2.7 -2.9
v -0.3 2.9 -2.9
v -0.2 2.7 -2.9
v -0.2 2.9 -2.9
v -0.0999999 2.4 -2.9
v -0.0999999 2.5 -2.9
v -0.0999999 2.7 -2.9
v 0 2.5 -2.9
v 0 2.7 -2.9
v 0.1 3.7 -2.9
v 0.1 4.1 -2.9
v 0.2 2.5 -2.9
v 0.2 2.6 -2.9
v 0.2 3.6 -2.9
v 0.2 3.7 -2.9
v 0.2 4.1 -2.9
v 0.3 2.5 -2.9
v 0.3 2.6 -2.9
v 0.3 2.7 -2.9
v 0.3 3.6 -2.9
v 0.3 3.7 -2.9
v 0.3 3.8 -2.9
v 0.4 3.7 -2.9
v 0.4 3.8 -2.9
v 0.4 4.1 -2.9
v 0.5 2.5 -2.9
v 0.5 2.6 -2.9
v 0.5 2.7 -2.9
v 0.5 3.6 -2.9
v 0.5 3.7 -2.9
v 0.5 3.8 -2.9
v 0.5 4.1 -2.9
v 0.6 3.6 -2.9
v 0.6 3.7 -2.9
v 0.6 3.8 -2.9
v 0.7 2.5 -2.9
v 0.7 2.6 -2.9
v 0.7 2.7 -2.9
v 0.7 3.7 -2.9
v 0.7 3.8 -2.9
v 0.8 2.6 -2.9
v 0.8 2.7 -2.9
v 0.9 3.6 -2.9
v 0.9 4.1 -2.9
v 1 3.6 -2.9
v 1 3.8 -2.9
v 1 3.9 -2.9
v 1 4.1 -2.9
v 1.1 3.6 -2.9
v 1.1 3.7 -2.9
v 1.2 3.6 -2.9
v 1.2 3.7 -2.9
v 1.2 3.8 -2.9
v 1.2 3.9 -2.9
v 1.3 3.8 -2.9
v 1.3 4.1 -2.9
v 1.4 3.8 -2.9
v 1.4 4.1 -2.9
v 1.6 3.6 -2.9
v 1.6 4.1 -2.9
v 1.7 3.6 -2.9
v 1.7 3.8 -2.9
v 1.7 3.9 -2.9
v 1.7 4.1 -2.9
v 1.8 3.6 -2.9
v 1.8 3.7 -2.9
v 1.8 3.8 -2.9
v 1.8 3.9 -2.9
v 1.9 3.9 -2.9
v 1.9 4.1 -2.9
v 2 3.6 -2.9
v 2 3.7 -2.9
v 2 3.8 -2.9
v 2 3.9 -2.9
v 2 4.1 -2.9
v 2.1 3.7 -2.9
v 2.1 3.8 -2.9
v 2.3 3.6 -2.9
v 2.3 3.7 -2.9
v 2.3 3.8 -2.9
v 2.3 4.1 -2.9
v 2.4 3.6 -2.9
v 2.4 3.7 -2.9
v 2.4 3.8 -2.9
v 2.4 4.1 -2.9
v 2.5 3.6 -2.9
v 2.5 3.7 -2.9
v 2.5 3.8 -2.9
v 2.5 4.1 -2.9
v 2.6 3.6 -2.9
v 2.6 3.7 -2.9
v 2.6 3.8 -2.9
v 2.6 4.1 -2.9
v 2.9 3.1 -2.9
v 2.9 3.2 -2.9
v 2.9 3.4 -2.9
v 2.9 3.5 -2.9
v 3.1 2.3 -2.9
v 3.1 3.1 -2.9
v 3.1 3.5 -2.9
v 3.1 4.3 -2.9
v -3.2 2.2 -3.2
v -3.2 3.2 -3.2
v -3.2 3.4 -3.2
v -3.2 4.4 -3.2
v -3.1 2 -3.2
v -3.1 2.1 -3.2
v -3.1 2.2 -3.2
v -3.1 3.2 -3.2
v -3.1 3.4 -3.2
v -3.1 4.4 -3.2
v -3.1 4.5 -3.2
v -3.1 4.6 -3.2
v 3.1 2 -3.2
v 3.1 2.1 -3.2
v 3.1 2.2 -3.2
v 3.1 3.2 -3.2
v 3.1 3.4 -3.2
v 3.1 4.4 -3.2
v 3.1 4.5 -3.2
v 3.1 4.6 -3.2
v 3.2 2.2 -3.2
v 3.2 3.2 -3.2
v 3.2 3.4 -3.2
v 3.2 4.4 -3.2
v -3.1 2 -2.8
v 3.1 2 -2.8
v -3.1 2 -3.2
v 3.1 2 -3.2
v -3.2 2.2 -2.8
v -3.1 2.2 -2.8
v 3.1 2.2 -2.8
v 3.2 2.2 -2.8
v -3.2 2.2 -2.9
v -3.1 2.2 -2.9
v 3.1 2.2 -2.9
v 3.2 2.2 -2.9
v -3.2 2.2 -3.2
v -3.1 2.2 -3.2
v 3.1 2.2 -3.2
v 3.2 2.2 -3.2
v -3.1 3.1 -2.8
v -2.9 3.1 -2.8
v 2.9 3.1 -2.8
v 3.1 3.1 -2.8
v -3.1 3.1 -2.9
v -2.9 3.1 -2.9
v 2.9 3.1 -2.9
v 3.1 3.1 -2.9
v -2.9 3.2 -2.8
v 2.9 3.2 -2.8
v -2.9 3.2 -2.9
v 2.9 3.2 -2.9
v -3.1 4.3 -2.8
v 3.1 4.3 -2.8
v -3.1 4.3 -2.9
v 3.1 4.3 -2.9
v -3.1 2.3 -2.8
v 3.1 2.3 -2.8
v -3.1 2.3 -2.9
v 3.1 2.3 -2.9
v -2.9 3.4 -2.8
v 2.9 3.4 -2.8
v -2.9 3.4 -2.9
v 2.9 3.4 -2.9
v -3.1 3.5 -2.8
v -2.9 3.5 -2.8
v 2.9 3.5 -2.8
v 3.1 3.5 -2.8
v -3.1 3.5 -2.9
v -2.9 3.5 -2.9
v 2.9 3.5 -2.9
v 3.1 3.5 -2.9
v -3.2 4.4 -2.8
v -3.1 4.4 -2.8
v 3.1 4.4 -2.8
v 3.2 4.4 -2.8
v -3.2 4.4 -2.9
v -3.1 4.4 -2.9
v 3.1 4.4 -2.9
v 3.2 4.4 -2.9
v -3.2 4.4 -3.2
v -3.1 4.4 -3.2
v 3.1 4.4 -3.2
v 3.2 4.4 -3.2
v -3.1 4.6 -2.8
v 3.1 4.6 -2.8
v -3.1 4.6 -3.2
v 3.1 4.6 -3.2

# faces
f 4/2/1 2/2/1 1/2/1
f 4/3/1 3/3/1 2/3/1
f 5/3/1 3/3/1 4/3/1
f 6/2/1 4/2/1 1/2/1
f 6/2/1 5/2/1 4/2/1
f 7/2/1 5/2/1 6/2/1
f 8/2/1 6/2/1 1/2/1
f 9/3/1 7/3/1 6/3/1
f 9/2/1 6/2/1 8/2/1
f 10/3/1 7/3/1 9/3/1
f 13/2/1 12/2/1 11/2/1
f 14/2/1 12/2/1 13/2/1
f 15/2/1 13/2/1 11/2/1
f 16/3/1 14/3/1 13/3/1
f 16/2/1 13/2/1 15/2/1
f 17/3/1 14/3/1 16/3/1
f 21/2/1 19/2/1 18/2/1
f 21/3/1 20/3/1 19/3/1
f 22/3/1 20/3/1 21/3/1
f 23/2/1 21/2/1 18/2/1
f 23/2/1 22/2/1 21/2/1
f 24/2/1 22/2/1 23/2/1
f 27/2/1 26/2/1 25/2/1
f 28/2/1 26/2/1 27/2/1
f 31/2/1 30/2/1 29/2/1
f 32/2/1 30/2/1 31/2/1
f 35/2/1 34/2/1 33/2/1
f 36/2/1 34/2/1 35/2/1
f 39/2/1 38/2/1 37/2/1
f 40/2/1 38/2/1 39/2/1
f 41/2/2 42/2/2 43/2/2
f 43/2/2 42/2/2 44/2/2
f 45/2/2 46/2/2 47/2/2
f 47/2/2 46/2/2 48/2/2
f 49/2/2 50/2/2 51/2/2
f 51/2/2 50/2/2 52/2/2
f 53/2/2 54/2/2 55/2/2
f 55/2/2 54/2/2 56/2/2
f 57/2/2 58/2/2 59/2/2
f 59/2/2 58/2/2 60/2/2
f 57/2/2 59/2/2 61/2/2
f 59/3/2 60/3/2 62/3/2
f 61/2/2 59/2/2 62/2/2
f 62/3/2 60/3/2 63/3/2
f 64/2/2 65/2/2 67/2/2
f 65/3/2 66/3/2 67/3/2
f 67/3/2 66/3/2 68/3/2
f 64/2/2 67/2/2 69/2/2
f 67/2/2 68/2/2 69/2/2
f 69/2/2 68/2/2 70/2/2
f 71/2/2 72/2/2 74/2/2
f 72/3/2 73/3/2 74/3/2
f 74/3/2 73/3/2 75/3/2
f 71/2/2 74/2/2 76/2/2
f 74/2/2 75/2/2 76/2/2
f 76/2/2 75/2/2 77/2/2
f 71/2/2 76/2/2 78/2/2
f 76/3/2 77/3/2 79/3/2
f 78/2/2 76/2/2 79/2/2
f 79/3/2 77/3/2 80/3/2
f 84/2/3 82/2/3 81/2/3
f 85/2/3 82/2/3 84/2/3
f 86/2/3 82/2/3 85/2/3
f 87/2/3 82/2/3 86/2/3
f 88/2/3 82/2/3 87/2/3
f 89/2/3 82/2/3 88/2/3
f 90/2/3 82/2/3 89/2/3
f 91/2/3 82/2/3 90/2/3
f 93/2/3 84/2/3 83/2/3
f 93/2/3 85/2/3 84/2/3
f 94/2/3 85/2/3 93/2/3
f 95/2/3 87/2/3 86/2/3
f 95/3/3 88/3/3 87/3/3
f 96/2/3 89/2/3 88/2/3
f 96/3/3 88/3/3 95/3/3
f 97/2/3 92/2/3 91/2/3
f 97/2/3 91/2/3 90/2/3
f 98/2/3 92/2/3 97/2/3
f 99/3/3 94/3/3 93/3/3
f 99/2/3 93/2/3 83/2/3
f 100/2/3 85/2/3 94/2/3
f 100/3/3 94/3/3 99/3/3
f 101/2/3 96/2/3 95/2/3
f 101/2/3 95/2/3 86/2/3
f 102/2/3 96/2/3 101/2/3
f 103/2/3 89/2/3 96/2/3
f 103/2/3 96/2/3 102/2/3
f 104/2/3 89/2/3 103/2/3
f 105/3/3 98/3/3 97/3/3
f 105/2/3 97/2/3 90/2/3
f 106/2/3 92/2/3 98/2/3
f 106/3/3 98/3/3 105/3/3
f 107/2/3 100/2/3 99/2/3
f 107/2/3 99/2/3 83/2/3
f 108/2/3 85/2/3 100/2/3
f 108/2/3 100/2/3 107/2/3
f 110/2/3 103/2/3 102/2/3
f 111/2/3 103/2/3 110/2/3
f 113/2/3 106/2/3 105/2/3
f 113/2/3 105/2/3 90/2/3
f 114/2/3 92/2/3 106/2/3
f 114/2/3 106/2/3 113/2/3
f 115/2/3 107/2/3 83/2/3
f 115/3/3 108/3/3 107/3/3
f 116/2/3 85/2/3 108/2/3
f 116/3/3 108/3/3 115/3/3
f 117/2/3 112/2/3 111/2/3
f 117/2/3 111/2/3 110/2/3
f 117/2/3 110/2/3 109/2/3
f 118/2/3 112/2/3 117/2/3
f 119/2/3 113/2/3 90/2/3
f 119/3/3 114/3/3 113/3/3
f 120/2/3 92/2/3 114/2/3
f 120/3/3 114/3/3 119/3/3
f 121/2/3 116/2/3 115/2/3
f 121/2/3 115/2/3 83/2/3
f 122/2/3 85/2/3 116/2/3
f 122/2/3 116/2/3 121/2/3
f 123/2/3 85/2/3 122/2/3
f 124/2/3 117/2/3 109/2/3
f 125/3/3 118/3/3 117/3/3
f 125/2/3 117/2/3 124/2/3
f 126/2/3 112/2/3 118/2/3
f 126/3/3 118/3/3 125/3/3
f 127/2/3 112/2/3 126/2/3
f 128/2/3 119/2/3 90/2/3
f 128/2/3 120/2/3 119/2/3
f 129/2/3 120/2/3 128/2/3
f 130/2/3 92/2/3 120/2/3
f 130/2/3 120/2/3 129/2/3
f 131/2/3 125/2/3 124/2/3
f 131/2/3 127/2/3 126/2/3
f 131/2/3 128/2/3 127/2/3
f 131/2/3 129/2/3 128/2/3
f 131/2/3 126/2/3 125/2/3
f 131/2/3 123/2/3 122/2/3
f 131/2/3 124/2/3 123/2/3
f 132/2/3 129/2/3 131/2/3
f 137/3/3 134/3/3 133/3/3
f 140/3/3 136/3/3 135/3/3
f 141/3/3 138/3/3 137/3/3
f 141/3/3 137/3/3 133/3/3
f 142/3/3 138/3/3 141/3/3
f 143/3/3 138/3/3 142/3/3
f 144/3/3 138/3/3 143/3/3
f 145/3/3 140/3/3 139/3/3
f 145/3/3 136/3/3 140/3/3
f 146/3/3 136/3/3 145/3/3
f 147/3/3 141/3/3 133/3/3
f 147/1/3 142/1/3 141/1/3
f 148/3/3 143/3/3 142/3/3
f 148/1/3 142/1/3 147/1/3
f 149/3/3 143/3/3 148/3/3
f 150/1/3 144/1/3 143/1/3
f 150/3/3 143/3/3 149/3/3
f 151/3/3 138/3/3 144/3/3
f 151/1/3 144/1/3 150/1/3
f 152/3/3 145/3/3 139/3/3
f 153/1/3 146/1/3 145/1/3
f 153/3/3 145/3/3 152/3/3
f 154/3/3 136/3/3 146/3/3
f 154/1/3 146/1/3 153/1/3
f 155/3/3 149/3/3 148/3/3
f 155/3/3 147/3/3 133/3/3
f 155/3/3 148/3/3 147/3/3
f 156/3/3 149/3/3 155/3/3
f 157/1/3 153/1/3 152/1/3
f 157/3/3 152/3/3 139/3/3
f 158/3/3 154/3/3 153/3/3
f 158/1/3 153/1/3 157/1/3
f 159/3/3 149/3/3 156/3/3
f 159/1/3 156/1/3 155/1/3
f 160/1/3 150/1/3 149/1/3
f 160/3/3 149/3/3 159/3/3
f 161/3/3 151/3/3 150/3/3
f 161/1/3 150/1/3 160/1/3
f 162/3/3 158/3/3 157/3/3
f 162/3/3 157/3/3 139/3/3
f 163/3/3 136/3/3 154/3/3
f 163/3/3 158/3/3 162/3/3
f 163/3/3 154/3/3 158/3/3
f 164/1/3 159/1/3 155/1/3
f 164/3/3 155/3/3 133/3/3
f 164/1/3 160/1/3 159/1/3
f 165/3/3 161/3/3 160/3/3
f 165/1/3 160/1/3 164/1/3
f 166/3/3 151/3/3 161/3/3
f 166/3/3 161/3/3 165/3/3
f 166/3/3 138/3/3 151/3/3
f 167/3/3 162/3/3 139/3/3
f 167/1/3 163/1/3 162/1/3
f 168/3/3 136/3/3 163/3/3
f 168/1/3 163/1/3 167/1/3
f 169/1/3 166/1/3 165/1/3
f 169/3/3 165/3/3 164/3/3
f 170/3/3 138/3/3 166/3/3
f 170/1/3 166/1/3 169/1/3
f 171/3/3 167/3/3 139/3/3
f 171/3/3 168/3/3 167/3/3
f 172/3/3 168/3/3 171/3/3
f 173/3/3 168/3/3 172/3/3
f 174/3/3 136/3/3 168/3/3
f 174/3/3 168/3/3 173/3/3
f 175/3/3 169/3/3 164/3/3
f 175/3/3 170/3/3 169/3/3
f 176/3/3 138/3/3 170/3/3
f 176/3/3 170/3/3 175/3/3
f 177/3/3 173/3/3 172/3/3
f 177/1/3 174/1/3 173/1/3
f 178/3/3 136/3/3 174/3/3
f 178/1/3 174/1/3 177/1/3
f 179/3/3 175/3/3 164/3/3
f 179/3/3 164/3/3 133/3/3
f 180/1/3 176/1/3 175/1/3
f 180/3/3 175/3/3 179/3/3
f 181/3/3 138/3/3 176/3/3
f 181/1/3 176/1/3 180/1/3
f 182/3/3 171/3/3 139/3/3
f 182/1/3 172/1/3 171/1/3
f 183/3/3 177/3/3 172/3/3
f 183/1/3 172/1/3 182/1/3
f 183/3/3 178/3/3 177/3/3
f 184/3/3 178/3/3 183/3/3
f 185/1/3 180/1/3 179/1/3
f 185/3/3 179/3/3 133/3/3
f 186/3/3 181/3/3 180/3/3
f 186/1/3 180/1/3 185/1/3
f 187/3/3 181/3/3 186/3/3
f 188/1/3 184/1/3 183/1/3
f 188/3/3 183/3/3 182/3/3
f 189/3/3 178/3/3 184/3/3
f 189/1/3 184/1/3 188/1/3
f 190/3/3 178/3/3 189/3/3
f 191/3/3 136/3/3 178/3/3
f 191/3/3 178/3/3 190/3/3
f 192/3/3 185/3/3 133/3/3
f 192/3/3 186/3/3 185/3/3
f 193/3/3 186/3/3 192/3/3
f 194/3/3 181/3/3 187/3/3
f 195/3/3 138/3/3 181/3/3
f 195/3/3 181/3/3 194/3/3
f 196/3/3 190/3/3 189/3/3
f 196/1/3 191/1/3 190/1/3
f 196/3/3 189/3/3 188/3/3
f 197/3/3 136/3/3 191/3/3
f 197/1/3 191/1/3 196/1/3
f 198/3/3 186/3/3 193/3/3
f 198/1/3 187/1/3 186/1/3
f 199/3/3 194/3/3 187/3/3
f 199/1/3 187/1/3 198/1/3
f 200/1/3 195/1/3 194/1/3
f 200/3/3 194/3/3 199/3/3
f 201/3/3 138/3/3 195/3/3
f 201/1/3 195/1/3 200/1/3
f 202/1/3 193/1/3 192/1/3
f 202/3/3 192/3/3 133/3/3
f 203/3/3 200/3/3 199/3/3
f 203/1/3 193/1/3 202/1/3
f 203/3/3 198/3/3 193/3/3
f 203/3/3 201/3/3 200/3/3
f 203/3/3 199/3/3 198/3/3
f 204/3/3 182/3/3 139/3/3
f 204/3/3 188/3/3 182/3/3
f 204/3/3 196/3/3 188/3/3
f 204/3/3 197/3/3 196/3/3
f 205/3/3 197/3/3 204/3/3
f 206/3/3 197/3/3 205/3/3
f 207/3/3 197/3/3 206/3/3
f 208/3/3 204/3/3 139/3/3
f 208/1/3 205/1/3 204/1/3
f 209/3/3 206/3/3 205/3/3
f 209/1/3 205/1/3 208/1/3
f 210/3/3 202/3/3 133/3/3
f 210/3/3 203/3/3 202/3/3
f 211/3/3 201/3/3 203/3/3
f 211/3/3 203/3/3 210/3/3
f 211/3/3 138/3/3 201/3/3
f 212/3/3 206/3/3 209/3/3
f 212/3/3 209/3/3 208/3/3
f 213/1/3 207/1/3 206/1/3
f 213/3/3 206/3/3 212/3/3
f 214/3/3 197/3/3 207/3/3
f 214/1/3 207/1/3 213/1/3
f 215/3/3 210/3/3 133/3/3
f 215/1/3 211/1/3 210/1/3
f 216/3/3 138/3/3 211/3/3
f 216/1/3 211/1/3 215/1/3
f 217/3/3 214/3/3 213/3/3
f 217/1/3 213/1/3 212/1/3
f 218/3/3 197/3/3 214/3/3
f 218/3/3 214/3/3 217/3/3
f 218/3/3 136/3/3 197/3/3
f 219/3/3 216/3/3 215/3/3
f 220/3/3 216/3/3 219/3/3
f 221/1/3 217/1/3 212/1/3
f 221/3/3 212/3/3 208/3/3
f 221/1/3 218/1/3 217/1/3
f 222/3/3 136/3/3 218/3/3
f 222/1/3 218/1/3 221/1/3
f 223/3/3 215/3/3 133/3/3
f 223/3/3 219/3/3 215/3/3
f 224/3/3 219/3/3 223/3/3
f 225/1/3 220/1/3 219/1/3
f 225/3/3 219/3/3 224/3/3
f 226/3/3 216/3/3 220/3/3
f 226/1/3 220/1/3 225/1/3
f 227/3/3 221/3/3 208/3/3
f 227/3/3 222/3/3 221/3/3
f 228/3/3 222/3/3 227/3/3
f 229/1/3 224/1/3 223/1/3
f 229/3/3 223/3/3 133/3/3
f 230/3/3 225/3/3 224/3/3
f 230/1/3 224/1/3 229/1/3
f 230/3/3 226/3/3 225/3/3
f 231/1/3 228/1/3 227/1/3
f 232/3/3 222/3/3 228/3/3
f 232/1/3 228/1/3 231/1/3
f 233/3/3 136/3/3 222/3/3
f 233/3/3 222/3/3 232/3/3
f 234/3/3 208/3/3 139/3/3
f 234/3/3 227/3/3 208/3/3
f 235/1/3 231/1/3 227/1/3
f 235/3/3 227/3/3 234/3/3
f 236/3/3 232/3/3 231/3/3
f 236/1/3 231/1/3 235/1/3
f 237/1/3 235/1/3 234/1/3
f 237/3/3 236/3/3 235/3/3
f 238/3/3 232/3/3 236/3/3
f 238/3/3 236/3/3 237/3/3
f 239/3/3 226/3/3 230/3/3
f 239/3/3 230/3/3 229/3/3
f 240/3/3 226/3/3 239/3/3
f 241/1/3 237/1/3 234/1/3
f 241/3/3 234/3/3 139/3/3
f 241/1/3 238/1/3 237/1/3
f 242/3/3 232/3/3 238/3/3
f 242/1/3 238/1/3 241/1/3
f 243/1/3 233/1/3 232/1/3
f 243/3/3 232/3/3 242/3/3
f 244/3/3 136/3/3 233/3/3
f 244/1/3 233/1/3 243/1/3
f 245/3/3 229/3/3 133/3/3
f 245/3/3 239/3/3 229/3/3
f 246/1/3 240/1/3 239/1/3
f 246/3/3 239/3/3 245/3/3
f 247/3/3 226/3/3 240/3/3
f 247/1/3 240/1/3 246/1/3
f 248/3/3 243/3/3 242/3/3
f 248/3/3 242/3/3 241/3/3
f 248/3/3 241/3/3 139/3/3
f 248/3/3 244/3/3 243/3/3
f 249/3/3 244/3/3 248/3/3
f 250/3/3 226/3/3 247/3/3
f 250/3/3 247/3/3 246/3/3
f 251/3/3 138/3/3 216/3/3
f 251/3/3 226/3/3 250/3/3
f 251/3/3 216/3/3 226/3/3
f 252/3/3 248/3/3 139/3/3
f 252/1/3 249/1/3 248/1/3
f 253/3/3 244/3/3 249/3/3
f 253/1/3 249/1/3 252/1/3
f 254/3/3 250/3/3 246/3/3
f 254/1/3 251/1/3 250/1/3
f 255/3/3 138/3/3 251/3/3
f 255/1/3 251/1/3 254/1/3
f 256/3/3 254/3/3 246/3/3
f 256/3/3 255/3/3 254/3/3
f 257/3/3 138/3/3 255/3/3
f 257/3/3 255/3/3 256/3/3
f 258/3/3 256/3/3 246/3/3
f 258/1/3 257/1/3 256/1/3
f 259/3/3 138/3/3 257/3/3
f 259/1/3 257/1/3 258/1/3
f 260/1/3 246/1/3 245/1/3
f 260/3/3 245/3/3 133/3/3
f 261/3/3 259/3/3 258/3/3
f 261/1/3 246/1/3 260/1/3
f 261/3/3 258/3/3 246/3/3
f 262/3/3 259/3/3 261/3/3
f 263/3/3 261/3/3 260/3/3
f 263/1/3 262/1/3 261/1/3
f 264/3/3 259/3/3 262/3/3
f 264/1/3 262/1/3 263/1/3
f 265/3/3 253/3/3 252/3/3
f 266/3/3 136/3/3 244/3/3
f 266/3/3 253/3/3 265/3/3
f 266/3/3 244/3/3 253/3/3
f 267/3/3 264/3/3 263/3/3
f 267/3/3 263/3/3 260/3/3
f 268/3/3 264/3/3 267/3/3
f 269/3/3 265/3/3 252/3/3
f 269/3/3 252/3/3 139/3/3
f 270/1/3 266/1/3 265/1/3
f 270/3/3 265/3/3 269/3/3
f 271/3/3 136/3/3 266/3/3
f 271/1/3 266/1/3 270/1/3
f 272/1/3 268/1/3 267/1/3
f 272/3/3 267/3/3 260/3/3
f 273/3/3 264/3/3 268/3/3
f 273/1/3 268/1/3 272/1/3
f 274/3/3 259/3/3 264/3/3
f 274/3/3 264/3/3 273/3/3
f 275/1/3 270/1/3 269/1/3
f 275/3/3 269/3/3 139/3/3
f 276/3/3 271/3/3 270/3/3
f 276/1/3 270/1/3 275/1/3
f 277/3/3 271/3/3 276/3/3
f 278/3/3 276/3/3 275/3/3
f 278/1/3 277/1/3 276/1/3
f 279/3/3 271/3/3 277/3/3
f 279/1/3 277/1/3 278/1/3
f 280/3/3 136/3/3 271/3/3
f 280/3/3 271/3/3 279/3/3
f 281/3/3 272/3/3 260/3/3
f 281/3/3 273/3/3 272/3/3
f 282/1/3 274/1/3 273/1/3
f 282/3/3 273/3/3 281/3/3
f 283/3/3 259/3/3 274/3/3
f 283/1/3 274/1/3 282/1/3
f 284/3/3 279/3/3 278/3/3
f 284/3/3 275/3/3 139/3/3
f 284/3/3 278/3/3 275/3/3
f 285/3/3 279/3/3 284/3/3
f 286/1/3 280/1/3 279/1/3
f 286/3/3 279/3/3 285/3/3
f 287/3/3 136/3/3 280/3/3
f 287/1/3 280/1/3 286/1/3
f 288/1/3 285/1/3 284/1/3
f 288/3/3 284/3/3 139/3/3
f 289/3/3 286/3/3 285/3/3
f 289/1/3 285/1/3 288/1/3
f 289/3/3 287/3/3 286/3/3
f 290/3/3 287/3/3 289/3/3
f 291/1/3 282/1/3 281/1/3
f 291/3/3 281/3/3 260/3/3
f 292/3/3 283/3/3 282/3/3
f 292/1/3 282/1/3 291/1/3
f 293/3/3 259/3/3 283/3/3
f 293/3/3 283/3/3 292/3/3
f 294/1/3 290/1/3 289/1/3
f 294/3/3 289/3/3 288/3/3
f 295/3/3 287/3/3 290/3/3
f 295/1/3 290/1/3 294/1/3
f 296/3/3 292/3/3 291/3/3
f 296/1/3 293/1/3 292/1/3
f 297/3/3 259/3/3 293/3/3
f 297/1/3 293/1/3 296/1/3
f 298/3/3 288/3/3 139/3/3
f 298/3/3 294/3/3 288/3/3
f 298/3/3 295/3/3 294/3/3
f 299/3/3 287/3/3 295/3/3
f 299/3/3 295/3/3 298/3/3
f 299/3/3 136/3/3 287/3/3
f 300/3/3 298/3/3 139/3/3
f 300/1/3 299/1/3 298/1/3
f 301/1/3 299/1/3 300/1/3
f 302/1/3 299/1/3 301/1/3
f 303/3/3 136/3/3 299/3/3
f 303/1/3 299/1/3 302/1/3
f 304/3/3 300/3/3 139/3/3
f 304/3/3 301/3/3 300/3/3
f 305/3/3 301/3/3 304/3/3
f 306/3/3 304/3/3 139/3/3
f 306/1/3 305/1/3 304/1/3
f 307/3/3 301/3/3 305/3/3
f 307/1/3 305/1/3 306/1/3
f 308/1/3 302/1/3 301/1/3
f 308/3/3 301/3/3 307/3/3
f 309/3/3 303/3/3 302/3/3
f 309/1/3 302/1/3 308/1/3
f 310/3/3 307/3/3 306/3/3
f 310/3/3 308/3/3 307/3/3
f 310/3/3 309/3/3 308/3/3
f 311/3/3 303/3/3 309/3/3
f 311/3/3 309/3/3 310/3/3
f 311/3/3 136/3/3 303/3/3
f 312/3/3 310/3/3 306/3/3
f 312/1/3 311/1/3 310/1/3
f 313/3/3 136/3/3 311/3/3
f 313/1/3 311/1/3 312/1/3
f 314/3/3 312/3/3 306/3/3
f 314/3/3 306/3/3 139/3/3
f 314/3/3 313/3/3 312/3/3
f 315/3/3 136/3/3 313/3/3
f 315/3/3 313/3/3 314/3/3
f 316/3/3 314/3/3 139/3/3
f 316/1/3 315/1/3 314/1/3
f 317/1/3 315/1/3 316/1/3
f 318/1/3 315/1/3 317/1/3
f 319/3/3 136/3/3 315/3/3
f 319/1/3 315/1/3 318/1/3
f 320/3/3 316/3/3 139/3/3
f 320/3/3 317/3/3 316/3/3
f 321/3/3 317/3/3 320/3/3
f 322/1/3 318/1/3 317/1/3
f 322/3/3 317/3/3 321/3/3
f 323/3/3 319/3/3 318/3/3
f 323/1/3 318/1/3 322/1/3
f 324/3/3 322/3/3 321/3/3
f 324/3/3 319/3/3 323/3/3
f 324/3/3 323/3/3 322/3/3
f 325/3/3 136/3/3 319/3/3
f 325/3/3 319/3/3 324/3/3
f 326/1/3 321/1/3 320/1/3
f 326/3/3 320/3/3 139/3/3
f 327/3/3 324/3/3 321/3/3
f 327/1/3 321/1/3 326/1/3
f 328/3/3 324/3/3 327/3/3
f 329/1/3 325/1/3 324/1/3
f 329/3/3 324/3/3 328/3/3
f 330/3/3 136/3/3 325/3/3
f 330/1/3 325/1/3 329/1/3
f 331/1/3 328/1/3 327/1/3
f 331/3/3 327/3/3 326/3/3
f 332/3/3 329/3/3 328/3/3
f 332/1/3 328/1/3 331/1/3
f 332/3/3 330/3/3 329/3/3
f 333/3/3 331/3/3 326/3/3
f 333/3/3 326/3/3 139/3/3
f 333/3/3 332/3/3 331/3/3
f 334/3/3 332/3/3 333/3/3
f 335/3/3 330/3/3 332/3/3
f 335/3/3 332/3/3 334/3/3
f 336/3/3 136/3/3 330/3/3
f 336/3/3 330/3/3 335/3/3
f 337/1/3 334/1/3 333/1/3
f 337/3/3 333/3/3 139/3/3
f 338/3/3 335/3/3 334/3/3
f 338/1/3 334/1/3 337/1/3
f 339/1/3 336/1/3 335/1/3
f 339/3/3 335/3/3 338/3/3
f 340/3/3 136/3/3 336/3/3
f 340/1/3 336/1/3 339/1/3
f 341/3/3 339/3/3 338/3/3
f 341/3/3 337/3/3 139/3/3
f 341/3/3 340/3/3 339/3/3
f 341/3/3 338/3/3 337/3/3
f 342/3/3 340/3/3 341/3/3
f 343/3/3 340/3/3 342/3/3
f 344/3/3 136/3/3 340/3/3
f 344/3/3 340/3/3 343/3/3
f 345/3/3 341/3/3 139/3/3
f 345/1/3 342/1/3 341/1/3
f 346/3/3 343/3/3 342/3/3
f 346/1/3 342/1/3 345/1/3
f 347/1/3 344/1/3 343/1/3
f 347/3/3 343/3/3 346/3/3
f 348/3/3 136/3/3 344/3/3
f 348/1/3 344/1/3 347/1/3
f 349/3/3 138/3/3 259/3/3
f 349/3/3 259/3/3 297/3/3
f 349/3/3 297/3/3 296/3/3
f 350/3/3 138/3/3 349/3/3
f 351/3/3 348/3/3 347/3/3
f 351/3/3 346/3/3 345/3/3
f 351/3/3 345/3/3 139/3/3
f 351/3/3 347/3/3 346/3/3
f 352/3/3 348/3/3 351/3/3
f 353/3/3 349/3/3 296/3/3
f 353/3/3 260/3/3 133/3/3
f 353/3/3 291/3/3 260/3/3
f 353/3/3 296/3/3 291/3/3
f 354/3/3 349/3/3 353/3/3
f 355/3/3 348/3/3 352/3/3
f 356/3/3 136/3/3 348/3/3
f 356/3/3 348/3/3 355/3/3
f 357/3/4 358/3/4 363/3/4
f 358/2/4 359/2/4 364/2/4
f 363/3/4 358/3/4 364/3/4
f 359/3/4 360/3/4 365/3/4
f 364/2/4 359/2/4 365/2/4
f 365/3/4 360/3/4 366/3/4
f 361/2/4 362/2/4 369/2/4
f 362/3/4 363/3/4 370/3/4
f 369/2/4 362/2/4 370/2/4
f 363/3/4 364/3/4 370/3/4
f 366/3/4 367/3/4 370/3/4
f 365/3/4 366/3/4 370/3/4
f 364/3/4 365/3/4 370/3/4
f 370/3/4 367/3/4 371/3/4
f 371/3/4 367/3/4 372/3/4
f 372/3/4 367/3/4 373/3/4
f 373/3/4 367/3/4 374/3/4
f 367/2/4 368/2/4 375/2/4
f 374/3/4 367/3/4 375/3/4
f 375/2/4 368/2/4 376/2/4
f 371/3/4 372/3/4 377/3/4
f 372/2/4 373/2/4 378/2/4
f 377/3/4 372/3/4 378/3/4
f 373/3/4 374/3/4 379/3/4
f 378/2/4 373/2/4 379/2/4
f 379/3/4 374/3/4 380/3/4
f 383/2/5 382/2/5 381/2/5
f 384/2/5 382/2/5 383/2/5
f 389/2/5 386/2/5 385/2/5
f 390/2/5 386/2/5 389/2/5
f 391/2/5 388/2/5 387/2/5
f 392/2/5 388/2/5 391/2/5
f 393/3/5 390/3/5 389/3/5
f 394/3/5 390/3/5 393/3/5
f 395/3/5 392/3/5 391/3/5
f 396/3/5 392/3/5 395/3/5
f 401/2/5 398/2/5 397/2/5
f 402/2/5 398/2/5 401/2/5
f 403/2/5 400/2/5 399/2/5
f 404/2/5 400/2/5 403/2/5
f 407/2/5 406/2/5 405/2/5
f 408/2/5 406/2/5 407/2/5
f 411/2/5 410/2/5 409/2/5
f 412/2/5 410/2/5 411/2/5
f 413/2/6 414/2/6 415/2/6
f 415/2/6 414/2/6 416/2/6
f 417/2/6 418/2/6 419/2/6
f 419/2/6 418/2/6 420/2/6
f 421/2/6 422/2/6 425/2/6
f 425/2/6 422/2/6 426/2/6
f 423/2/6 424/2/6 427/2/6
f 427/2/6 424/2/6 428/2/6
f 429/2/6 430/2/6 433/2/6
f 433/2/6 430/2/6 434/2/6
f 431/2/6 432/2/6 435/2/6
f 435/2/6 432/2/6 436/2/6
f 433/3/6 434/3/6 437/3/6
f 437/3/6 434/3/6 438/3/6
f 435/3/6 436/3/6 439/3/6
f 439/3/6 436/3/6 440/3/6
f 441/2/6 442/2/6 443/2/6
f 443/2/6 442/2/6 444/2/6
