# MagicaVoxel @ Ephtracy

# group
o 

# material
mtllib WhiteBox.mtl
usemtl palette

# normals
vn -1 0 0
vn 1 0 0
vn 0 0 1
vn 0 0 -1
vn 0 -1 0
vn 0 1 0

# texcoords
vt 0.0292969 0.5
vt 0.0644531 0.5
vt 0.0722656 0.5
vt 0.107422 0.5
vt 0.974609 0.5
vt 0.978516 0.5

# verts
v -1 0 0.8
v -1 0 -0.3
v -1 1.2 0.8
v -1 1.2 -0.3
v -0.9 1.2 0.7
v -0.9 1.2 -0.2
v -0.9 1.3 0.7
v -0.9 1.3 -0.2
v -0.7 0.3 0.5
v -0.7 0.3 0.4
v -0.7 0.4 0.5
v -0.7 0.4 0.4
v -0.7 0.7 0.5
v -0.7 0.7 0.4
v -0.7 0.8 0.5
v -0.7 0.8 0.4
v -0.6 0.4 0.5
v -0.6 0.4 0.4
v -0.6 0.5 0.5
v -0.6 0.5 0.4
v -0.6 0.6 0.5
v -0.6 0.6 0.4
v -0.6 0.7 0.5
v -0.6 0.7 0.4
v -0.5 0.5 0.8
v -0.5 0.5 0.7
v -0.5 0.5 0.5
v -0.5 0.5 0.4
v -0.5 0.6 0.5
v -0.5 0.6 0.4
v -0.5 0.7 0.8
v -0.5 0.7 0.7
v -0.5 0.7 0.5
v -0.2 0.4 0.5
v -0.2 0.4 0.4
v -0.2 0.5 0.5
v -0.2 0.5 0.4
v -0.1 0.2 0.8
v -0.1 0.2 0.4
v -0.1 0.3 0.8
v -0.1 0.3 0.4
v -0.1 0.9 0.8
v -0.1 0.9 0.4
v -0.1 1 0.8
v -0.1 1 0.4
v 0 0.3 0.8
v 0 0.3 0.4
v 0 0.4 0.5
v 0 0.4 0.4
v 0 0.7 0.5
v 0 0.7 0.4
v 0 0.9 0.8
v 0 0.9 0.4
v -0.8 0.3 0.8
v -0.8 0.3 0.4
v -0.8 0.8 0.5
v -0.8 0.8 0.4
v -0.8 0.9 0.8
v -0.8 0.9 0.5
v -0.7 0.2 0.8
v -0.7 0.2 0.5
v -0.7 0.3 0.8
v -0.7 0.3 0.5
v -0.7 0.9 0.8
v -0.7 0.9 0.5
v -0.7 1 0.8
v -0.7 1 0.5
v -0.5 0.2 0.5
v -0.5 0.2 0.4
v -0.5 0.3 0.5
v -0.5 0.3 0.4
v -0.5 0.8 0.5
v -0.5 0.8 0.4
v -0.5 1 0.5
v -0.5 1 0.4
v -0.4 0.3 0.5
v -0.4 0.3 0.4
v -0.4 0.5 0.5
v -0.4 0.5 0.4
v -0.4 0.7 0.5
v -0.4 0.7 0.4
v -0.4 0.8 0.5
v -0.4 0.8 0.4
v -0.3 0.5 0.8
v -0.3 0.5 0.7
v -0.3 0.5 0.5
v -0.3 0.7 0.8
v -0.3 0.7 0.7
v -0.3 0.7 0.5
v 0.8 1.2 0.7
v 0.8 1.2 -0.2
v 0.8 1.3 0.7
v 0.8 1.3 -0.2
v 0.9 0 0.8
v 0.9 0 -0.3
v 0.9 1.2 0.8
v 0.9 1.2 -0.3
v -1 0 0.8
v -1 1.2 0.8
v -0.8 0.3 0.8
v -0.8 0.9 0.8
v -0.7 0.2 0.8
v -0.7 0.3 0.8
v -0.7 0.9 0.8
v -0.7 1 0.8
v -0.5 0.5 0.8
v -0.5 0.7 0.8
v -0.3 0.5 0.8
v -0.3 0.7 0.8
v -0.1 0.2 0.8
v -0.1 0.3 0.8
v -0.1 0.9 0.8
v -0.1 1 0.8
v 0 0.3 0.8
v 0 0.9 0.8
v 0.4 0.8 0.8
v 0.4 0.9 0.8
v 0.7 0.8 0.8
v 0.7 0.9 0.8
v 0.9 0 0.8
v 0.9 1.2 0.8
v -0.9 1.2 0.7
v -0.9 1.3 0.7
v 0.8 1.2 0.7
v 0.8 1.3 0.7
v -0.8 0.8 0.5
v -0.8 0.9 0.5
v -0.7 0.2 0.5
v -0.7 0.3 0.5
v -0.7 0.4 0.5
v -0.7 0.7 0.5
v -0.7 0.8 0.5
v -0.7 0.9 0.5
v -0.7 1 0.5
v -0.6 0.4 0.5
v -0.6 0.5 0.5
v -0.6 0.6 0.5
v -0.6 0.7 0.5
v -0.5 0.2 0.5
v -0.5 0.3 0.5
v -0.5 0.5 0.5
v -0.5 0.6 0.5
v -0.5 0.7 0.5
v -0.5 0.8 0.5
v -0.5 1 0.5
v -0.4 0.3 0.5
v -0.4 0.5 0.5
v -0.4 0.7 0.5
v -0.4 0.8 0.5
v -0.3 0.5 0.5
v -0.3 0.7 0.5
v -0.2 0.4 0.5
v -0.2 0.5 0.5
v 0 0.4 0.5
v 0 0.7 0.5
v -0.8 0.3 0.4
v -0.8 0.8 0.4
v -0.7 0.3 0.4
v -0.7 0.4 0.4
v -0.7 0.7 0.4
v -0.7 0.8 0.4
v -0.6 0.4 0.4
v -0.6 0.5 0.4
v -0.6 0.6 0.4
v -0.6 0.7 0.4
v -0.5 0.2 0.4
v -0.5 0.3 0.4
v -0.5 0.5 0.4
v -0.5 0.6 0.4
v -0.5 0.8 0.4
v -0.5 1 0.4
v -0.4 0.3 0.4
v -0.4 0.5 0.4
v -0.4 0.7 0.4
v -0.4 0.8 0.4
v -0.3 0.5 0.4
v -0.3 0.7 0.4
v -0.2 0.4 0.4
v -0.2 0.5 0.4
v -0.1 0.2 0.4
v -0.1 0.3 0.4
v -0.1 0.9 0.4
v -0.1 1 0.4
v 0 0.3 0.4
v 0 0.4 0.4
v 0 0.7 0.4
v 0 0.9 0.4
v -0.9 1.2 -0.2
v -0.9 1.3 -0.2
v 0.8 1.2 -0.2
v 0.8 1.3 -0.2
v -1 0 -0.3
v -1 1.2 -0.3
v 0.9 0 -0.3
v 0.9 1.2 -0.3
v -1 0 0.8
v 0.9 0 0.8
v -1 0 -0.3
v 0.9 0 -0.3
v -0.5 0.3 0.5
v -0.4 0.3 0.5
v -0.5 0.3 0.4
v -0.4 0.3 0.4
v -0.2 0.4 0.5
v 0 0.4 0.5
v -0.2 0.4 0.4
v 0 0.4 0.4
v -0.5 0.5 0.8
v -0.3 0.5 0.8
v -0.5 0.5 0.7
v -0.3 0.5 0.7
v -0.5 0.5 0.5
v -0.4 0.5 0.5
v -0.3 0.5 0.5
v -0.2 0.5 0.5
v -0.4 0.5 0.4
v -0.3 0.5 0.4
v -0.2 0.5 0.4
v -0.6 0.6 0.5
v -0.5 0.6 0.5
v -0.6 0.6 0.4
v -0.5 0.6 0.4
v -0.7 0.7 0.5
v -0.6 0.7 0.5
v -0.7 0.7 0.4
v -0.6 0.7 0.4
v -0.8 0.8 0.5
v -0.7 0.8 0.5
v -0.8 0.8 0.4
v -0.7 0.8 0.4
v -0.8 0.9 0.8
v -0.7 0.9 0.8
v -0.1 0.9 0.8
v 0 0.9 0.8
v -0.8 0.9 0.5
v -0.7 0.9 0.5
v -0.1 0.9 0.4
v 0 0.9 0.4
v -0.7 1 0.8
v -0.1 1 0.8
v -0.7 1 0.5
v -0.5 1 0.5
v -0.5 1 0.4
v -0.1 1 0.4
v -0.7 0.2 0.8
v -0.1 0.2 0.8
v -0.7 0.2 0.5
v -0.5 0.2 0.5
v -0.5 0.2 0.4
v -0.1 0.2 0.4
v -0.8 0.3 0.8
v -0.7 0.3 0.8
v -0.1 0.3 0.8
v 0 0.3 0.8
v -0.7 0.3 0.5
v -0.8 0.3 0.4
v -0.7 0.3 0.4
v -0.1 0.3 0.4
v 0 0.3 0.4
v -0.7 0.4 0.5
v -0.6 0.4 0.5
v -0.7 0.4 0.4
v -0.6 0.4 0.4
v -0.6 0.5 0.5
v -0.5 0.5 0.5
v -0.6 0.5 0.4
v -0.5 0.5 0.4
v -0.5 0.7 0.8
v -0.3 0.7 0.8
v -0.5 0.7 0.7
v -0.3 0.7 0.7
v -0.5 0.7 0.5
v -0.4 0.7 0.5
v -0.3 0.7 0.5
v 0 0.7 0.5
v -0.4 0.7 0.4
v -0.3 0.7 0.4
v 0 0.7 0.4
v -0.5 0.8 0.5
v -0.4 0.8 0.5
v -0.5 0.8 0.4
v -0.4 0.8 0.4
v -1 1.2 0.8
v 0.9 1.2 0.8
v -0.9 1.2 0.7
v 0.8 1.2 0.7
v -0.9 1.2 -0.2
v 0.8 1.2 -0.2
v -1 1.2 -0.3
v 0.9 1.2 -0.3
v -0.9 1.3 0.7
v 0.8 1.3 0.7
v -0.9 1.3 -0.2
v 0.8 1.3 -0.2

# faces
f 3/2/1 2/2/1 1/2/1
f 4/2/1 2/2/1 3/2/1
f 7/2/1 6/2/1 5/2/1
f 8/2/1 6/2/1 7/2/1
f 11/3/1 10/3/1 9/3/1
f 12/3/1 10/3/1 11/3/1
f 15/3/1 14/3/1 13/3/1
f 16/3/1 14/3/1 15/3/1
f 19/3/1 18/3/1 17/3/1
f 20/3/1 18/3/1 19/3/1
f 23/3/1 22/3/1 21/3/1
f 24/3/1 22/3/1 23/3/1
f 29/2/1 27/2/1 26/2/1
f 29/2/1 28/2/1 27/2/1
f 30/2/1 28/2/1 29/2/1
f 31/3/1 26/3/1 25/3/1
f 32/2/1 29/2/1 26/2/1
f 32/3/1 26/3/1 31/3/1
f 33/2/1 29/2/1 32/2/1
f 36/3/1 35/3/1 34/3/1
f 37/3/1 35/3/1 36/3/1
f 40/2/1 39/2/1 38/2/1
f 41/2/1 39/2/1 40/2/1
f 44/2/1 43/2/1 42/2/1
f 45/2/1 43/2/1 44/2/1
f 48/2/1 47/2/1 46/2/1
f 49/2/1 47/2/1 48/2/1
f 50/2/1 48/2/1 46/2/1
f 52/2/1 50/2/1 46/2/1
f 52/2/1 51/2/1 50/2/1
f 53/2/1 51/2/1 52/2/1
f 54/2/2 55/2/2 56/2/2
f 56/2/2 55/2/2 57/2/2
f 54/2/2 56/2/2 58/2/2
f 58/2/2 56/2/2 59/2/2
f 60/2/2 61/2/2 62/2/2
f 62/2/2 61/2/2 63/2/2
f 64/2/2 65/2/2 66/2/2
f 66/2/2 65/2/2 67/2/2
f 68/3/2 69/3/2 70/3/2
f 70/3/2 69/3/2 71/3/2
f 72/3/2 73/3/2 74/3/2
f 74/3/2 73/3/2 75/3/2
f 76/3/2 77/3/2 78/3/2
f 78/3/2 77/3/2 79/3/2
f 80/3/2 81/3/2 82/3/2
f 82/3/2 81/3/2 83/3/2
f 84/3/2 85/3/2 87/3/2
f 85/2/2 86/2/2 88/2/2
f 87/3/2 85/3/2 88/3/2
f 88/2/2 86/2/2 89/2/2
f 90/2/2 91/2/2 92/2/2
f 92/2/2 91/2/2 93/2/2
f 94/2/2 95/2/2 96/2/2
f 96/2/2 95/2/2 97/2/2
f 100/2/3 99/2/3 98/2/3
f 101/2/3 99/2/3 100/2/3
f 102/2/3 100/2/3 98/2/3
f 103/2/3 100/2/3 102/2/3
f 104/2/3 99/2/3 101/2/3
f 105/2/3 99/2/3 104/2/3
f 108/3/3 107/3/3 106/3/3
f 109/3/3 107/3/3 108/3/3
f 110/2/3 102/2/3 98/2/3
f 113/2/3 99/2/3 105/2/3
f 114/2/3 111/2/3 110/2/3
f 115/2/3 113/2/3 112/2/3
f 116/2/3 115/2/3 114/2/3
f 117/2/3 113/2/3 115/2/3
f 117/2/3 115/2/3 116/2/3
f 118/2/3 116/2/3 114/2/3
f 118/5/3 117/5/3 116/5/3
f 119/2/3 113/2/3 117/2/3
f 119/5/3 117/5/3 118/5/3
f 120/2/3 110/2/3 98/2/3
f 120/2/3 114/2/3 110/2/3
f 120/2/3 119/2/3 118/2/3
f 120/2/3 118/2/3 114/2/3
f 121/2/3 113/2/3 119/2/3
f 121/2/3 119/2/3 120/2/3
f 121/2/3 99/2/3 113/2/3
f 124/2/3 123/2/3 122/2/3
f 125/2/3 123/2/3 124/2/3
f 132/3/3 127/3/3 126/3/3
f 133/3/3 127/3/3 132/3/3
f 135/3/3 130/3/3 129/3/3
f 135/3/3 129/3/3 128/3/3
f 138/3/3 134/3/3 133/3/3
f 138/3/3 133/3/3 132/3/3
f 138/3/3 132/3/3 131/3/3
f 139/3/3 136/3/3 135/3/3
f 139/3/3 135/3/3 128/3/3
f 140/3/3 136/3/3 139/3/3
f 141/3/3 136/3/3 140/3/3
f 142/3/3 138/3/3 137/3/3
f 143/3/3 134/3/3 138/3/3
f 143/3/3 138/3/3 142/3/3
f 144/3/3 134/3/3 143/3/3
f 145/3/3 134/3/3 144/3/3
f 146/3/3 141/3/3 140/3/3
f 147/3/3 141/3/3 146/3/3
f 148/3/3 144/3/3 143/3/3
f 149/3/3 144/3/3 148/3/3
f 153/3/3 151/3/3 150/3/3
f 154/3/3 153/3/3 152/3/3
f 155/3/3 151/3/3 153/3/3
f 155/3/3 153/3/3 154/3/3
f 158/1/3 157/1/3 156/1/3
f 159/1/3 157/1/3 158/1/3
f 160/1/3 157/1/3 159/1/3
f 161/1/3 157/1/3 160/1/3
f 162/1/3 160/1/3 159/1/3
f 163/1/3 160/1/3 162/1/3
f 164/1/3 160/1/3 163/1/3
f 165/1/3 160/1/3 164/1/3
f 168/1/3 164/1/3 163/1/3
f 169/1/3 164/1/3 168/1/3
f 172/1/3 167/1/3 166/1/3
f 175/1/3 171/1/3 170/1/3
f 176/1/3 173/1/3 172/1/3
f 177/1/3 175/1/3 174/1/3
f 178/1/3 176/1/3 172/1/3
f 179/1/3 176/1/3 178/1/3
f 180/1/3 172/1/3 166/1/3
f 180/1/3 178/1/3 172/1/3
f 181/1/3 178/1/3 180/1/3
f 182/1/3 175/1/3 177/1/3
f 182/1/3 171/1/3 175/1/3
f 183/1/3 171/1/3 182/1/3
f 184/1/3 178/1/3 181/1/3
f 185/1/3 178/1/3 184/1/3
f 186/1/3 182/1/3 177/1/3
f 187/1/3 182/1/3 186/1/3
f 188/2/4 189/2/4 190/2/4
f 190/2/4 189/2/4 191/2/4
f 192/2/4 193/2/4 194/2/4
f 194/2/4 193/2/4 195/2/4
f 198/2/5 197/2/5 196/2/5
f 199/2/5 197/2/5 198/2/5
f 202/3/5 201/3/5 200/3/5
f 203/3/5 201/3/5 202/3/5
f 206/3/5 205/3/5 204/3/5
f 207/3/5 205/3/5 206/3/5
f 210/3/5 209/3/5 208/3/5
f 211/3/5 209/3/5 210/3/5
f 212/2/5 211/2/5 210/2/5
f 213/2/5 211/2/5 212/2/5
f 214/2/5 211/2/5 213/2/5
f 216/2/5 214/2/5 213/2/5
f 217/3/5 215/3/5 214/3/5
f 217/2/5 214/2/5 216/2/5
f 218/3/5 215/3/5 217/3/5
f 221/3/5 220/3/5 219/3/5
f 222/3/5 220/3/5 221/3/5
f 225/3/5 224/3/5 223/3/5
f 226/3/5 224/3/5 225/3/5
f 229/3/5 228/3/5 227/3/5
f 230/3/5 228/3/5 229/3/5
f 235/2/5 232/2/5 231/2/5
f 236/2/5 232/2/5 235/2/5
f 237/2/5 234/2/5 233/2/5
f 238/2/5 234/2/5 237/2/5
f 241/2/5 240/2/5 239/2/5
f 242/2/5 240/2/5 241/2/5
f 243/2/5 240/2/5 242/2/5
f 244/2/5 240/2/5 243/2/5
f 245/2/6 246/2/6 247/2/6
f 247/2/6 246/2/6 248/2/6
f 248/2/6 246/2/6 249/2/6
f 249/2/6 246/2/6 250/2/6
f 251/2/6 252/2/6 255/2/6
f 251/2/6 255/2/6 256/2/6
f 256/2/6 255/2/6 257/2/6
f 253/2/6 254/2/6 258/2/6
f 258/2/6 254/2/6 259/2/6
f 260/3/6 261/3/6 262/3/6
f 262/3/6 261/3/6 263/3/6
f 264/3/6 265/3/6 266/3/6
f 266/3/6 265/3/6 267/3/6
f 268/3/6 269/3/6 270/3/6
f 270/3/6 269/3/6 271/3/6
f 270/2/6 271/2/6 272/2/6
f 272/2/6 271/2/6 273/2/6
f 273/2/6 271/2/6 274/2/6
f 273/2/6 274/2/6 276/2/6
f 274/3/6 275/3/6 277/3/6
f 276/2/6 274/2/6 277/2/6
f 277/3/6 275/3/6 278/3/6
f 279/3/6 280/3/6 281/3/6
f 281/3/6 280/3/6 282/3/6
f 283/2/6 284/2/6 285/2/6
f 285/2/6 284/2/6 286/2/6
f 283/2/6 285/2/6 287/2/6
f 286/2/6 284/2/6 288/2/6
f 283/2/6 287/2/6 289/2/6
f 287/2/6 288/2/6 289/2/6
f 288/2/6 284/2/6 290/2/6
f 289/2/6 288/2/6 290/2/6
f 291/2/6 292/2/6 293/2/6
f 293/2/6 292/2/6 294/2/6
