# MagicaVoxel @ Ephtracy

# group
o 

# material
mtllib Ground.mtl
usemtl palette

# normals
vn -1 0 0
vn 1 0 0
vn 0 0 1
vn 0 0 -1
vn 0 -1 0
vn 0 1 0

# texcoords
vt 0.759766 0.5
vt 0.767578 0.5
vt 0.806641 0.5

# verts
v -2.5 0 2.5
v -2.5 0 -2.5
v -2.5 0.2 2.5
v -2.5 0.2 -2.5
v 2.5 0 2.5
v 2.5 0 -2.5
v 2.5 0.2 2.5
v 2.5 0.2 -2.5
v -2.5 0 2.5
v -2.5 0.2 2.5
v 2.5 0 2.5
v 2.5 0.2 2.5
v -2.5 0 -2.5
v -2.5 0.2 -2.5
v 2.5 0 -2.5
v 2.5 0.2 -2.5
v -2.5 0 2.5
v 2.5 0 2.5
v -2.5 0 -2.5
v 2.5 0 -2.5
v -2.5 0.2 2.5
v 2.5 0.2 2.5
v -2.3 0.2 2.2
v -1 0.2 2.2
v 2.38419e-07 0.2 2.2
v 1.1 0.2 2.2
v 2.38419e-07 0.2 1.8
v 1.1 0.2 1.8
v -2.3 0.2 1.7
v -1 0.2 1.7
v 0.2 0.2 1.5
v 0.9 0.2 1.5
v 0.2 0.2 1.3
v 0.9 0.2 1.3
v -1.2 0.2 0.9
v -0.2 0.2 0.9
v 0.8 0.2 0.8
v 1.7 0.2 0.8
v -1.2 0.2 0.7
v -0.2 0.2 0.7
v 0.8 0.2 0.4
v 1.7 0.2 0.4
v -1.7 0.2 0.3
v -0.5 0.2 0.3
v -1.7 0.2 -2.38419e-07
v -0.5 0.2 -2.38419e-07
v -1.6 0.2 -0.4
v 0.3 0.2 -0.4
v 1.2 0.2 -0.7
v 2 0.2 -0.7
v -1.6 0.2 -0.9
v 0.3 0.2 -0.9
v 1.2 0.2 -0.9
v 2 0.2 -0.9
v 0.4 0.2 -1.4
v 1.2 0.2 -1.4
v 0.4 0.2 -1.6
v 1.2 0.2 -1.6
v -2.1 0.2 -1.7
v -1.1 0.2 -1.7
v -0.4 0.2 -1.8
v 1.3 0.2 -1.8
v -2.1 0.2 -1.9
v -1.1 0.2 -1.9
v -0.4 0.2 -2.3
v 1.3 0.2 -2.3
v -2.5 0.2 -2.5
v 2.5 0.2 -2.5

# faces
f 3/3/1 2/3/1 1/3/1
f 4/3/1 2/3/1 3/3/1
f 5/3/2 6/3/2 7/3/2
f 7/3/2 6/3/2 8/3/2
f 11/3/3 10/3/3 9/3/3
f 12/3/3 10/3/3 11/3/3
f 13/3/4 14/3/4 15/3/4
f 15/3/4 14/3/4 16/3/4
f 19/3/5 18/3/5 17/3/5
f 20/3/5 18/3/5 19/3/5
f 21/3/6 22/3/6 23/3/6
f 23/3/6 22/3/6 24/3/6
f 24/3/6 22/3/6 25/3/6
f 25/3/6 22/3/6 26/3/6
f 24/3/6 25/3/6 27/3/6
f 25/1/6 26/1/6 27/1/6
f 26/3/6 22/3/6 28/3/6
f 27/1/6 26/1/6 28/1/6
f 21/3/6 23/3/6 29/3/6
f 23/1/6 24/1/6 29/1/6
f 27/3/6 28/3/6 30/3/6
f 29/1/6 24/1/6 30/1/6
f 24/3/6 27/3/6 30/3/6
f 29/3/6 30/3/6 31/3/6
f 30/3/6 28/3/6 31/3/6
f 31/3/6 28/3/6 32/3/6
f 29/3/6 31/3/6 33/3/6
f 31/2/6 32/2/6 33/2/6
f 32/3/6 28/3/6 34/3/6
f 33/2/6 32/2/6 34/2/6
f 29/3/6 33/3/6 35/3/6
f 33/3/6 34/3/6 35/3/6
f 35/3/6 34/3/6 36/3/6
f 36/3/6 34/3/6 37/3/6
f 28/3/6 22/3/6 38/3/6
f 37/3/6 34/3/6 38/3/6
f 34/3/6 28/3/6 38/3/6
f 35/1/6 36/1/6 39/1/6
f 29/3/6 35/3/6 39/3/6
f 36/3/6 37/3/6 40/3/6
f 39/1/6 36/1/6 40/1/6
f 37/2/6 38/2/6 41/2/6
f 40/3/6 37/3/6 41/3/6
f 39/3/6 40/3/6 41/3/6
f 38/3/6 22/3/6 42/3/6
f 41/2/6 38/2/6 42/2/6
f 29/3/6 39/3/6 43/3/6
f 39/3/6 41/3/6 43/3/6
f 41/3/6 42/3/6 43/3/6
f 43/3/6 42/3/6 44/3/6
f 29/3/6 43/3/6 45/3/6
f 43/2/6 44/2/6 45/2/6
f 44/3/6 42/3/6 46/3/6
f 45/2/6 44/2/6 46/2/6
f 45/3/6 46/3/6 47/3/6
f 46/3/6 42/3/6 48/3/6
f 47/3/6 46/3/6 48/3/6
f 48/3/6 42/3/6 49/3/6
f 42/3/6 22/3/6 50/3/6
f 49/3/6 42/3/6 50/3/6
f 45/3/6 47/3/6 51/3/6
f 47/1/6 48/1/6 51/1/6
f 48/3/6 49/3/6 52/3/6
f 51/1/6 48/1/6 52/1/6
f 49/1/6 50/1/6 53/1/6
f 52/3/6 49/3/6 53/3/6
f 50/3/6 22/3/6 54/3/6
f 53/1/6 50/1/6 54/1/6
f 52/3/6 53/3/6 55/3/6
f 51/3/6 52/3/6 55/3/6
f 53/3/6 54/3/6 55/3/6
f 55/3/6 54/3/6 56/3/6
f 51/3/6 55/3/6 57/3/6
f 55/2/6 56/2/6 57/2/6
f 56/3/6 54/3/6 58/3/6
f 57/2/6 56/2/6 58/2/6
f 45/3/6 51/3/6 59/3/6
f 29/3/6 45/3/6 59/3/6
f 57/3/6 58/3/6 59/3/6
f 51/3/6 57/3/6 59/3/6
f 59/3/6 58/3/6 60/3/6
f 60/3/6 58/3/6 61/3/6
f 58/3/6 54/3/6 62/3/6
f 61/3/6 58/3/6 62/3/6
f 29/3/6 59/3/6 63/3/6
f 59/1/6 60/1/6 63/1/6
f 60/3/6 61/3/6 64/3/6
f 63/1/6 60/1/6 64/1/6
f 61/1/6 62/1/6 65/1/6
f 64/3/6 61/3/6 65/3/6
f 63/3/6 64/3/6 65/3/6
f 62/3/6 54/3/6 66/3/6
f 65/1/6 62/1/6 66/1/6
f 29/3/6 63/3/6 67/3/6
f 21/3/6 29/3/6 67/3/6
f 65/3/6 66/3/6 67/3/6
f 63/3/6 65/3/6 67/3/6
f 66/3/6 54/3/6 68/3/6
f 67/3/6 66/3/6 68/3/6
f 54/3/6 22/3/6 68/3/6
