# MagicaVoxel @ Ephtracy

# group
o 

# material
mtllib building_001(2).mtl
usemtl palette

# normals
vn -1 0 0
vn 1 0 0
vn 0 0 1
vn 0 0 -1
vn 0 -1 0
vn 0 1 0

# texcoords
vt 0.0175781 0.5
vt 0.970703 0.5

# verts
v -1.8 5.4 2.2
v -1.8 5.4 -2.2
v -1.8 5.5 2.2
v -1.8 5.5 -2.2
v -1.7 0 2
v -1.7 0 1.9
v -1.7 0 -1.9
v -1.7 0 -2
v -1.7 0.6 2.1
v -1.7 0.6 2
v -1.7 0.6 1.9
v -1.7 0.6 -1.9
v -1.7 0.6 -2
v -1.7 0.6 -2.1
v -1.7 0.8 2.1
v -1.7 0.8 2
v -1.7 0.8 1.9
v -1.7 0.8 -1.9
v -1.7 0.8 -2
v -1.7 0.8 -2.1
v -1.7 2.6 2.1
v -1.7 2.6 2
v -1.7 2.6 1.9
v -1.7 2.6 -1.9
v -1.7 2.6 -2
v -1.7 2.6 -2.1
v -1.7 2.8 2.1
v -1.7 2.8 2
v -1.7 2.8 1.9
v -1.7 2.8 -1.9
v -1.7 2.8 -2
v -1.7 2.8 -2.1
v -1.7 4.5 2.1
v -1.7 4.5 2
v -1.7 4.5 1.9
v -1.7 4.5 -1.9
v -1.7 4.5 -2
v -1.7 4.5 -2.1
v -1.7 4.7 2.1
v -1.7 4.7 2
v -1.7 4.7 -2
v -1.7 4.7 -2.1
v -1.7 5.2 2
v -1.7 5.2 -2
v -1.7 5.4 2.1
v -1.7 5.4 -2.1
v -1.6 0 1.9
v -1.6 0 -1.9
v -1.6 0.6 1.9
v -1.6 0.6 -1.9
v -1.6 0.8 1.9
v -1.6 0.8 -1.9
v -1.6 1.2 1.6
v -1.6 1.2 0.3
v -1.6 1.2 -0.2
v -1.6 1.2 -1.6
v -1.6 2 1.6
v -1.6 2 0.3
v -1.6 2 -0.2
v -1.6 2 -1.6
v -1.6 2.6 1.9
v -1.6 2.6 -1.9
v -1.6 2.8 1.9
v -1.6 2.8 -1.9
v -1.6 3.2 1.6
v -1.6 3.2 0.3
v -1.6 3.2 -0.2
v -1.6 3.2 -1.6
v -1.6 4 1.6
v -1.6 4 0.3
v -1.6 4 -0.2
v -1.6 4 -1.6
v -1.6 4.5 1.9
v -1.6 4.5 -1.9
v -1.6 4.7 2
v -1.6 4.7 -2
v -1.6 5.2 2
v -1.6 5.2 -2
v -1.4 1.2 1.6
v -1.4 1.2 0.3
v -1.4 1.2 -0.2
v -1.4 1.2 -1.6
v -1.4 2 1.6
v -1.4 2 0.3
v -1.4 2 -0.2
v -1.4 2 -1.6
v -1.4 3.2 1.6
v -1.4 3.2 0.3
v -1.4 3.2 -0.2
v -1.4 3.2 -1.6
v -1.4 4 1.6
v -1.4 4 0.3
v -1.4 4 -0.2
v -1.4 4 -1.6
v -0.2 0.8 2
v -0.2 0.8 1.8
v -0.2 2.1 2
v -0.2 2.1 1.8
v -0.2 2.8 2
v -0.2 2.8 1.8
v -0.2 4.1 2
v -0.2 4.1 1.8
v 1.2 0.8 2
v 1.2 0.8 1.8
v 1.2 2.1 2
v 1.2 2.1 1.8
v 1.2 2.8 2
v 1.2 2.8 1.8
v 1.2 4.1 2
v 1.2 4.1 1.8
v 1.8 4.6 2.1
v 1.8 4.6 2
v 1.8 4.6 -2
v 1.8 4.6 -2.1
v 1.8 5.2 2.1
v 1.8 5.2 2
v 1.8 5.2 -2
v 1.8 5.2 -2.1
v -1.6 4.7 2.1
v -1.6 4.7 2
v -1.6 4.7 -2
v -1.6 4.7 -2.1
v -1.6 5.2 2.1
v -1.6 5.2 2
v -1.6 5.2 -2
v -1.6 5.2 -2.1
v -1.4 0.7 -2
v -1.4 0.7 -2.1
v -1.4 0.8 -2
v -1.4 0.8 -2.1
v -1.4 2.7 -2
v -1.4 2.7 -2.1
v -1.4 2.8 -2
v -1.4 2.8 -2.1
v -1.4 4.6 -2
v -1.4 4.6 -2.1
v -1.4 4.7 -2
v -1.4 4.7 -2.1
v -1.3 0.7 2.1
v -1.3 0.7 2
v -1.3 0.8 2.1
v -1.3 0.8 2
v -1.3 2.7 2.1
v -1.3 2.7 2
v -1.3 2.8 2.1
v -1.3 2.8 2
v -1.3 4.6 2.1
v -1.3 4.6 2
v -1.3 4.7 2.1
v -1.3 4.7 2
v -1 0.8 2
v -1 0.8 1.8
v -1 2.1 2
v -1 2.1 1.8
v -1 2.8 2
v -1 2.8 1.8
v -1 4.1 2
v -1 4.1 1.8
v 0.4 0.8 2
v 0.4 0.8 1.8
v 0.4 2.1 2
v 0.4 2.1 1.8
v 0.4 2.8 2
v 0.4 2.8 1.8
v 0.4 4.1 2
v 0.4 4.1 1.8
v 1.8 0 2
v 1.8 0 1.9
v 1.8 0 -1.9
v 1.8 0 -2
v 1.8 0.6 2
v 1.8 0.6 1.9
v 1.8 0.6 -1.9
v 1.8 0.6 -2
v 1.8 0.7 2
v 1.8 0.7 1.9
v 1.8 0.7 -1.9
v 1.8 0.7 -2
v 1.8 2.6 2
v 1.8 2.6 1.9
v 1.8 2.6 -1.9
v 1.8 2.6 -2
v 1.8 2.7 2
v 1.8 2.7 1.9
v 1.8 2.7 -1.9
v 1.8 2.7 -2
v 1.8 4.5 2
v 1.8 4.5 1.9
v 1.8 4.5 -1.9
v 1.8 4.5 -2
v 1.8 4.6 2
v 1.8 4.6 1.9
v 1.8 4.6 -1.9
v 1.8 4.6 -2
v 1.8 4.7 1.9
v 1.8 4.7 -1.9
v 1.8 5.2 2
v 1.8 5.2 -2
v 1.9 0.6 2.1
v 1.9 0.6 -2.1
v 1.9 0.7 2.1
v 1.9 0.7 -2.1
v 1.9 2.6 2.1
v 1.9 2.6 -2.1
v 1.9 2.7 2.1
v 1.9 2.7 -2.1
v 1.9 4.5 2.1
v 1.9 4.5 -2.1
v 1.9 4.6 2.1
v 1.9 4.6 2
v 1.9 4.6 -2
v 1.9 4.6 -2.1
v 1.9 5.2 2
v 1.9 5.2 -2
v 1.9 5.4 2.1
v 1.9 5.4 -2.1
v 2 5.4 2.2
v 2 5.4 -2.2
v 2 5.5 2.2
v 2 5.5 -2.2
v -1.8 5.4 2.2
v -1.8 5.5 2.2
v 2 5.4 2.2
v 2 5.5 2.2
v -1.7 0.6 2.1
v -1.7 0.8 2.1
v -1.7 2.6 2.1
v -1.7 2.8 2.1
v -1.7 4.5 2.1
v -1.7 4.7 2.1
v -1.7 5.4 2.1
v -1.6 4.7 2.1
v -1.6 5.2 2.1
v -1.3 0.7 2.1
v -1.3 0.8 2.1
v -1.3 2.7 2.1
v -1.3 2.8 2.1
v -1.3 4.6 2.1
v -1.3 4.7 2.1
v 1.8 4.6 2.1
v 1.8 5.2 2.1
v 1.9 0.6 2.1
v 1.9 0.7 2.1
v 1.9 2.6 2.1
v 1.9 2.7 2.1
v 1.9 4.5 2.1
v 1.9 4.6 2.1
v 1.9 5.4 2.1
v -1.7 0 2
v -1.7 0.6 2
v -1.7 0.8 2
v -1.7 2.6 2
v -1.7 2.8 2
v -1.7 4.5 2
v -1.6 4.7 2
v -1.6 5.2 2
v -1.5 0 2
v -1.5 0.6 2
v -1.5 0.8 2
v -1.5 2.6 2
v -1.5 2.8 2
v -1.5 4.5 2
v -1.3 0.7 2
v -1.3 0.8 2
v -1.3 2.7 2
v -1.3 2.8 2
v -1.3 4.6 2
v -1.3 4.7 2
v -1 0.8 2
v -1 2.1 2
v -1 2.8 2
v -1 4.1 2
v -0.2 0.8 2
v -0.2 2.1 2
v -0.2 2.8 2
v -0.2 4.1 2
v 0.4 0.8 2
v 0.4 2.1 2
v 0.4 2.8 2
v 0.4 4.1 2
v 1.2 0.8 2
v 1.2 2.1 2
v 1.2 2.8 2
v 1.2 4.1 2
v 1.7 0 2
v 1.7 0.6 2
v 1.7 0.7 2
v 1.7 2.6 2
v 1.7 2.7 2
v 1.7 4.5 2
v 1.7 4.6 2
v 1.7 4.7 2
v 1.8 0 2
v 1.8 0.6 2
v 1.8 0.7 2
v 1.8 2.6 2
v 1.8 2.7 2
v 1.8 4.5 2
v 1.8 4.6 2
v 1.8 5.2 2
v -1 0.8 1.8
v -1 2.1 1.8
v -1 2.8 1.8
v -1 4.1 1.8
v -0.2 0.8 1.8
v -0.2 2.1 1.8
v -0.2 2.8 1.8
v -0.2 4.1 1.8
v 0.4 0.8 1.8
v 0.4 2.1 1.8
v 0.4 2.8 1.8
v 0.4 4.1 1.8
v 1.2 0.8 1.8
v 1.2 2.1 1.8
v 1.2 2.8 1.8
v 1.2 4.1 1.8
v -1.6 1.2 0.3
v -1.6 2 0.3
v -1.6 3.2 0.3
v -1.6 4 0.3
v -1.4 1.2 0.3
v -1.4 2 0.3
v -1.4 3.2 0.3
v -1.4 4 0.3
v -1.6 1.2 -1.6
v -1.6 2 -1.6
v -1.6 3.2 -1.6
v -1.6 4 -1.6
v -1.4 1.2 -1.6
v -1.4 2 -1.6
v -1.4 3.2 -1.6
v -1.4 4 -1.6
v -1.7 0 -1.9
v -1.7 0.6 -1.9
v -1.7 0.8 -1.9
v -1.7 2.6 -1.9
v -1.7 2.8 -1.9
v -1.7 4.5 -1.9
v -1.6 0 -1.9
v -1.6 0.6 -1.9
v -1.6 0.8 -1.9
v -1.6 2.6 -1.9
v -1.6 2.8 -1.9
v -1.6 4.5 -1.9
v -1.7 4.7 -2
v -1.7 5.2 -2
v -1.6 4.7 -2
v -1.6 5.2 -2
v 1.8 4.6 -2
v 1.8 5.2 -2
v 1.9 4.6 -2
v 1.9 5.2 -2
v -1.7 4.7 2
v -1.7 5.2 2
v -1.6 4.7 2
v -1.6 5.2 2
v 1.8 4.6 2
v 1.8 5.2 2
v 1.9 4.6 2
v 1.9 5.2 2
v -1.7 0 1.9
v -1.7 0.6 1.9
v -1.7 0.8 1.9
v -1.7 2.6 1.9
v -1.7 2.8 1.9
v -1.7 4.5 1.9
v -1.6 0 1.9
v -1.6 0.6 1.9
v -1.6 0.8 1.9
v -1.6 2.6 1.9
v -1.6 2.8 1.9
v -1.6 4.5 1.9
v -1.6 1.2 1.6
v -1.6 2 1.6
v -1.6 3.2 1.6
v -1.6 4 1.6
v -1.4 1.2 1.6
v -1.4 2 1.6
v -1.4 3.2 1.6
v -1.4 4 1.6
v -1.6 1.2 -0.2
v -1.6 2 -0.2
v -1.6 3.2 -0.2
v -1.6 4 -0.2
v -1.4 1.2 -0.2
v -1.4 2 -0.2
v -1.4 3.2 -0.2
v -1.4 4 -0.2
v -1.7 0 -2
v -1.7 0.6 -2
v -1.7 0.8 -2
v -1.7 2.6 -2
v -1.7 2.8 -2
v -1.7 4.5 -2
v -1.6 4.7 -2
v -1.6 5.2 -2
v -1.5 0 -2
v -1.5 0.6 -2
v -1.5 0.8 -2
v -1.5 2.6 -2
v -1.5 2.8 -2
v -1.5 4.5 -2
v -1.4 0.7 -2
v -1.4 0.8 -2
v -1.4 2.7 -2
v -1.4 2.8 -2
v -1.4 4.6 -2
v -1.4 4.7 -2
v 1.7 0 -2
v 1.7 0.6 -2
v 1.7 0.7 -2
v 1.7 2.6 -2
v 1.7 2.7 -2
v 1.7 4.5 -2
v 1.7 4.6 -2
v 1.7 4.7 -2
v 1.8 0 -2
v 1.8 0.6 -2
v 1.8 0.7 -2
v 1.8 2.6 -2
v 1.8 2.7 -2
v 1.8 4.5 -2
v 1.8 4.6 -2
v 1.8 5.2 -2
v -1.7 0.6 -2.1
v -1.7 0.8 -2.1
v -1.7 2.6 -2.1
v -1.7 2.8 -2.1
v -1.7 4.5 -2.1
v -1.7 4.7 -2.1
v -1.7 5.4 -2.1
v -1.6 4.7 -2.1
v -1.6 5.2 -2.1
v -1.4 0.7 -2.1
v -1.4 0.8 -2.1
v -1.4 2.7 -2.1
v -1.4 2.8 -2.1
v -1.4 4.6 -2.1
v -1.4 4.7 -2.1
v 1.8 4.6 -2.1
v 1.8 5.2 -2.1
v 1.9 0.6 -2.1
v 1.9 0.7 -2.1
v 1.9 2.6 -2.1
v 1.9 2.7 -2.1
v 1.9 4.5 -2.1
v 1.9 4.6 -2.1
v 1.9 5.4 -2.1
v -1.8 5.4 -2.2
v -1.8 5.5 -2.2
v 2 5.4 -2.2
v 2 5.5 -2.2
v -1.7 0 2
v -1.5 0 2
v 1.7 0 2
v 1.8 0 2
v -1.7 0 1.9
v -1.6 0 1.9
v -1.5 0 1.9
v 1.7 0 1.9
v 1.8 0 1.9
v -1.7 0 -1.9
v -1.6 0 -1.9
v -1.5 0 -1.9
v 1.7 0 -1.9
v 1.8 0 -1.9
v -1.7 0 -2
v -1.5 0 -2
v 1.7 0 -2
v 1.8 0 -2
v -1.7 0.6 2.1
v 1.9 0.6 2.1
v -1.7 0.6 2
v -1.5 0.6 2
v 1.7 0.6 2
v 1.8 0.6 2
v -1.7 0.6 1.9
v -1.6 0.6 1.9
v 1.8 0.6 1.9
v -1.7 0.6 -1.9
v -1.6 0.6 -1.9
v 1.8 0.6 -1.9
v -1.7 0.6 -2
v -1.5 0.6 -2
v 1.7 0.6 -2
v 1.8 0.6 -2
v -1.7 0.6 -2.1
v 1.9 0.6 -2.1
v -1.6 2 1.6
v -1.4 2 1.6
v -1.6 2 0.3
v -1.4 2 0.3
v -1.6 2 -0.2
v -1.4 2 -0.2
v -1.6 2 -1.6
v -1.4 2 -1.6
v -1 2.1 2
v -0.2 2.1 2
v 0.4 2.1 2
v 1.2 2.1 2
v -1 2.1 1.8
v -0.2 2.1 1.8
v 0.4 2.1 1.8
v 1.2 2.1 1.8
v -1.7 2.6 2.1
v 1.9 2.6 2.1
v -1.7 2.6 2
v -1.5 2.6 2
v 1.7 2.6 2
v 1.8 2.6 2
v -1.7 2.6 1.9
v -1.6 2.6 1.9
v 1.8 2.6 1.9
v -1.7 2.6 -1.9
v -1.6 2.6 -1.9
v 1.8 2.6 -1.9
v -1.7 2.6 -2
v -1.5 2.6 -2
v 1.7 2.6 -2
v 1.8 2.6 -2
v -1.7 2.6 -2.1
v 1.9 2.6 -2.1
v -1.6 4 1.6
v -1.4 4 1.6
v -1.6 4 0.3
v -1.4 4 0.3
v -1.6 4 -0.2
v -1.4 4 -0.2
v -1.6 4 -1.6
v -1.4 4 -1.6
v -1 4.1 2
v -0.2 4.1 2
v 0.4 4.1 2
v 1.2 4.1 2
v -1 4.1 1.8
v -0.2 4.1 1.8
v 0.4 4.1 1.8
v 1.2 4.1 1.8
v -1.7 4.5 2.1
v 1.9 4.5 2.1
v -1.7 4.5 2
v -1.5 4.5 2
v 1.7 4.5 2
v 1.8 4.5 2
v -1.7 4.5 1.9
v -1.6 4.5 1.9
v 1.8 4.5 1.9
v -1.7 4.5 -1.9
v -1.6 4.5 -1.9
v 1.8 4.5 -1.9
v -1.7 4.5 -2
v -1.5 4.5 -2
v 1.7 4.5 -2
v 1.8 4.5 -2
v -1.7 4.5 -2.1
v 1.9 4.5 -2.1
v -1.6 5.2 2.1
v 1.8 5.2 2.1
v -1.7 5.2 2
v -1.6 5.2 2
v 1.8 5.2 2
v 1.9 5.2 2
v -1.7 5.2 -2
v -1.6 5.2 -2
v 1.8 5.2 -2
v 1.9 5.2 -2
v -1.6 5.2 -2.1
v 1.8 5.2 -2.1
v -1.8 5.4 2.2
v 2 5.4 2.2
v -1.7 5.4 2.1
v 1.9 5.4 2.1
v -1.7 5.4 -2.1
v 1.9 5.4 -2.1
v -1.8 5.4 -2.2
v 2 5.4 -2.2
v -1.3 0.7 2.1
v 1.9 0.7 2.1
v -1.3 0.7 2
v 1.7 0.7 2
v 1.8 0.7 2
v 1.8 0.7 1.9
v 1.8 0.7 -1.9
v -1.4 0.7 -2
v 1.7 0.7 -2
v 1.8 0.7 -2
v -1.4 0.7 -2.1
v 1.9 0.7 -2.1
v -1.7 0.8 2.1
v -1.3 0.8 2.1
v -1.7 0.8 2
v -1.5 0.8 2
v -1.3 0.8 2
v -1 0.8 2
v -0.2 0.8 2
v 0.4 0.8 2
v 1.2 0.8 2
v -1.7 0.8 1.9
v -1.6 0.8 1.9
v -1 0.8 1.8
v -0.2 0.8 1.8
v 0.4 0.8 1.8
v 1.2 0.8 1.8
v -1.7 0.8 -1.9
v -1.6 0.8 -1.9
v -1.7 0.8 -2
v -1.5 0.8 -2
v -1.4 0.8 -2
v -1.7 0.8 -2.1
v -1.4 0.8 -2.1
v -1.6 1.2 1.6
v -1.4 1.2 1.6
v -1.6 1.2 0.3
v -1.4 1.2 0.3
v -1.6 1.2 -0.2
v -1.4 1.2 -0.2
v -1.6 1.2 -1.6
v -1.4 1.2 -1.6
v -1.3 2.7 2.1
v 1.9 2.7 2.1
v -1.3 2.7 2
v 1.7 2.7 2
v 1.8 2.7 2
v 1.8 2.7 1.9
v 1.8 2.7 -1.9
v -1.4 2.7 -2
v 1.7 2.7 -2
v 1.8 2.7 -2
v -1.4 2.7 -2.1
v 1.9 2.7 -2.1
v -1.7 2.8 2.1
v -1.3 2.8 2.1
v -1.7 2.8 2
v -1.5 2.8 2
v -1.3 2.8 2
v -1 2.8 2
v -0.2 2.8 2
v 0.4 2.8 2
v 1.2 2.8 2
v -1.7 2.8 1.9
v -1.6 2.8 1.9
v -1 2.8 1.8
v -0.2 2.8 1.8
v 0.4 2.8 1.8
v 1.2 2.8 1.8
v -1.7 2.8 -1.9
v -1.6 2.8 -1.9
v -1.7 2.8 -2
v -1.5 2.8 -2
v -1.4 2.8 -2
v -1.7 2.8 -2.1
v -1.4 2.8 -2.1
v -1.6 3.2 1.6
v -1.4 3.2 1.6
v -1.6 3.2 0.3
v -1.4 3.2 0.3
v -1.6 3.2 -0.2
v -1.4 3.2 -0.2
v -1.6 3.2 -1.6
v -1.4 3.2 -1.6
v -1.3 4.6 2.1
v 1.8 4.6 2.1
v -1.3 4.6 2
v 1.7 4.6 2
v 1.8 4.6 2
v 1.9 4.6 2
v 1.8 4.6 1.9
v 1.8 4.6 -1.9
v -1.4 4.6 -2
v 1.7 4.6 -2
v 1.8 4.6 -2
v 1.9 4.6 -2
v -1.4 4.6 -2.1
v 1.8 4.6 -2.1
v -1.6 4.7 2.1
v -1.3 4.7 2.1
v -1.7 4.7 2
v -1.6 4.7 2
v -1.3 4.7 2
v -1.7 4.7 -2
v -1.6 4.7 -2
v -1.4 4.7 -2
v -1.6 4.7 -2.1
v -1.4 4.7 -2.1
v -1.8 5.5 2.2
v 2 5.5 2.2
v -1.8 5.5 -2.2
v 2 5.5 -2.2

# faces
f 3/2/1 2/2/1 1/2/1
f 4/2/1 2/2/1 3/2/1
f 10/1/1 6/1/1 5/1/1
f 11/1/1 6/1/1 10/1/1
f 12/1/1 8/1/1 7/1/1
f 13/1/1 8/1/1 12/1/1
f 15/1/1 11/1/1 10/1/1
f 15/1/1 14/1/1 13/1/1
f 15/1/1 13/1/1 12/1/1
f 15/1/1 12/1/1 11/1/1
f 15/1/1 10/1/1 9/1/1
f 16/1/1 14/1/1 15/1/1
f 17/1/1 14/1/1 16/1/1
f 18/1/1 14/1/1 17/1/1
f 19/1/1 14/1/1 18/1/1
f 20/1/1 14/1/1 19/1/1
f 22/1/1 17/1/1 16/1/1
f 23/1/1 17/1/1 22/1/1
f 24/1/1 19/1/1 18/1/1
f 25/1/1 19/1/1 24/1/1
f 27/1/1 23/1/1 22/1/1
f 27/1/1 26/1/1 25/1/1
f 27/1/1 25/1/1 24/1/1
f 27/1/1 24/1/1 23/1/1
f 27/1/1 22/1/1 21/1/1
f 28/1/1 26/1/1 27/1/1
f 29/1/1 26/1/1 28/1/1
f 30/1/1 26/1/1 29/1/1
f 31/1/1 26/1/1 30/1/1
f 32/1/1 26/1/1 31/1/1
f 34/1/1 29/1/1 28/1/1
f 35/1/1 29/1/1 34/1/1
f 36/1/1 31/1/1 30/1/1
f 37/1/1 31/1/1 36/1/1
f 39/1/1 35/1/1 34/1/1
f 39/1/1 38/1/1 37/1/1
f 39/1/1 37/1/1 36/1/1
f 39/1/1 36/1/1 35/1/1
f 39/1/1 34/1/1 33/1/1
f 40/1/1 38/1/1 39/1/1
f 41/1/1 38/1/1 40/1/1
f 42/1/1 38/1/1 41/1/1
f 43/2/1 40/2/1 39/2/1
f 44/2/1 42/2/1 41/2/1
f 45/2/1 43/2/1 39/2/1
f 45/2/1 44/2/1 43/2/1
f 46/2/1 42/2/1 44/2/1
f 46/2/1 44/2/1 45/2/1
f 49/2/1 48/2/1 47/2/1
f 50/2/1 48/2/1 49/2/1
f 53/2/1 52/2/1 51/2/1
f 54/2/1 52/2/1 53/2/1
f 55/2/1 52/2/1 54/2/1
f 56/2/1 52/2/1 55/2/1
f 57/2/1 53/2/1 51/2/1
f 58/2/1 55/2/1 54/2/1
f 59/2/1 55/2/1 58/2/1
f 60/2/1 52/2/1 56/2/1
f 61/2/1 59/2/1 58/2/1
f 61/2/1 60/2/1 59/2/1
f 61/2/1 57/2/1 51/2/1
f 61/2/1 58/2/1 57/2/1
f 62/2/1 52/2/1 60/2/1
f 62/2/1 60/2/1 61/2/1
f 65/2/1 64/2/1 63/2/1
f 66/2/1 64/2/1 65/2/1
f 67/2/1 64/2/1 66/2/1
f 68/2/1 64/2/1 67/2/1
f 69/2/1 65/2/1 63/2/1
f 70/2/1 67/2/1 66/2/1
f 71/2/1 67/2/1 70/2/1
f 72/2/1 64/2/1 68/2/1
f 73/2/1 71/2/1 70/2/1
f 73/2/1 72/2/1 71/2/1
f 73/2/1 69/2/1 63/2/1
f 73/2/1 70/2/1 69/2/1
f 74/2/1 64/2/1 72/2/1
f 74/2/1 72/2/1 73/2/1
f 77/1/1 76/1/1 75/1/1
f 78/1/1 76/1/1 77/1/1
f 83/1/1 80/1/1 79/1/1
f 84/1/1 80/1/1 83/1/1
f 85/1/1 82/1/1 81/1/1
f 86/1/1 82/1/1 85/1/1
f 91/1/1 88/1/1 87/1/1
f 92/1/1 88/1/1 91/1/1
f 93/1/1 90/1/1 89/1/1
f 94/1/1 90/1/1 93/1/1
f 97/2/1 96/2/1 95/2/1
f 98/2/1 96/2/1 97/2/1
f 101/2/1 100/2/1 99/2/1
f 102/2/1 100/2/1 101/2/1
f 105/2/1 104/2/1 103/2/1
f 106/2/1 104/2/1 105/2/1
f 109/2/1 108/2/1 107/2/1
f 110/2/1 108/2/1 109/2/1
f 115/2/1 112/2/1 111/2/1
f 116/2/1 112/2/1 115/2/1
f 117/2/1 114/2/1 113/2/1
f 118/2/1 114/2/1 117/2/1
f 119/2/2 120/2/2 123/2/2
f 123/2/2 120/2/2 124/2/2
f 121/2/2 122/2/2 125/2/2
f 125/2/2 122/2/2 126/2/2
f 127/1/2 128/1/2 129/1/2
f 129/1/2 128/1/2 130/1/2
f 131/1/2 132/1/2 133/1/2
f 133/1/2 132/1/2 134/1/2
f 135/1/2 136/1/2 137/1/2
f 137/1/2 136/1/2 138/1/2
f 139/1/2 140/1/2 141/1/2
f 141/1/2 140/1/2 142/1/2
f 143/1/2 144/1/2 145/1/2
f 145/1/2 144/1/2 146/1/2
f 147/1/2 148/1/2 149/1/2
f 149/1/2 148/1/2 150/1/2
f 151/2/2 152/2/2 153/2/2
f 153/2/2 152/2/2 154/2/2
f 155/2/2 156/2/2 157/2/2
f 157/2/2 156/2/2 158/2/2
f 159/2/2 160/2/2 161/2/2
f 161/2/2 160/2/2 162/2/2
f 163/2/2 164/2/2 165/2/2
f 165/2/2 164/2/2 166/2/2
f 167/1/2 168/1/2 171/1/2
f 168/2/2 169/2/2 172/2/2
f 171/1/2 168/1/2 172/1/2
f 169/1/2 170/1/2 173/1/2
f 172/2/2 169/2/2 173/2/2
f 173/1/2 170/1/2 174/1/2
f 175/1/2 176/1/2 179/1/2
f 176/2/2 177/2/2 180/2/2
f 179/1/2 176/1/2 180/1/2
f 177/1/2 178/1/2 181/1/2
f 180/2/2 177/2/2 181/2/2
f 181/1/2 178/1/2 182/1/2
f 183/1/2 184/1/2 187/1/2
f 184/2/2 185/2/2 188/2/2
f 187/1/2 184/1/2 188/1/2
f 185/1/2 186/1/2 189/1/2
f 188/2/2 185/2/2 189/2/2
f 189/1/2 186/1/2 190/1/2
f 191/1/2 192/1/2 195/1/2
f 192/2/2 193/2/2 195/2/2
f 193/1/2 194/1/2 196/1/2
f 195/2/2 193/2/2 196/2/2
f 191/1/2 195/1/2 197/1/2
f 195/1/2 196/1/2 197/1/2
f 196/1/2 194/1/2 198/1/2
f 197/1/2 196/1/2 198/1/2
f 199/1/2 200/1/2 201/1/2
f 201/1/2 200/1/2 202/1/2
f 203/1/2 204/1/2 205/1/2
f 205/1/2 204/1/2 206/1/2
f 207/1/2 208/1/2 209/1/2
f 209/1/2 208/1/2 210/1/2
f 210/1/2 208/1/2 211/1/2
f 211/1/2 208/1/2 212/1/2
f 209/2/2 210/2/2 213/2/2
f 211/2/2 212/2/2 214/2/2
f 209/2/2 213/2/2 215/2/2
f 213/2/2 214/2/2 215/2/2
f 214/2/2 212/2/2 216/2/2
f 215/2/2 214/2/2 216/2/2
f 217/2/2 218/2/2 219/2/2
f 219/2/2 218/2/2 220/2/2
f 223/2/3 222/2/3 221/2/3
f 224/2/3 222/2/3 223/2/3
f 232/1/3 230/1/3 229/1/3
f 232/2/3 231/2/3 230/2/3
f 233/2/3 231/2/3 232/2/3
f 234/1/3 226/1/3 225/1/3
f 235/1/3 226/1/3 234/1/3
f 236/1/3 228/1/3 227/1/3
f 237/1/3 228/1/3 236/1/3
f 238/1/3 232/1/3 229/1/3
f 239/1/3 232/1/3 238/1/3
f 240/1/3 238/1/3 229/1/3
f 241/2/3 231/2/3 233/2/3
f 242/1/3 234/1/3 225/1/3
f 243/1/3 234/1/3 242/1/3
f 244/1/3 236/1/3 227/1/3
f 245/1/3 236/1/3 244/1/3
f 246/1/3 240/1/3 229/1/3
f 247/2/3 241/2/3 240/2/3
f 247/1/3 240/1/3 246/1/3
f 248/2/3 231/2/3 241/2/3
f 248/2/3 241/2/3 247/2/3
f 257/1/3 250/1/3 249/1/3
f 258/1/3 250/1/3 257/1/3
f 259/1/3 252/1/3 251/1/3
f 260/1/3 252/1/3 259/1/3
f 261/1/3 254/1/3 253/1/3
f 262/1/3 254/1/3 261/1/3
f 264/2/3 260/2/3 259/2/3
f 266/2/3 262/2/3 261/2/3
f 268/1/3 256/1/3 255/1/3
f 269/2/3 264/2/3 263/2/3
f 269/2/3 260/2/3 264/2/3
f 270/2/3 260/2/3 269/2/3
f 271/2/3 262/2/3 266/2/3
f 271/2/3 266/2/3 265/2/3
f 272/2/3 262/2/3 271/2/3
f 273/2/3 269/2/3 263/2/3
f 274/2/3 260/2/3 270/2/3
f 275/2/3 271/2/3 265/2/3
f 276/2/3 262/2/3 272/2/3
f 277/2/3 273/2/3 263/2/3
f 277/2/3 274/2/3 273/2/3
f 278/2/3 260/2/3 274/2/3
f 278/2/3 274/2/3 277/2/3
f 279/2/3 276/2/3 275/2/3
f 279/2/3 275/2/3 265/2/3
f 280/2/3 262/2/3 276/2/3
f 280/2/3 276/2/3 279/2/3
f 281/2/3 277/2/3 263/2/3
f 282/2/3 260/2/3 278/2/3
f 283/2/3 279/2/3 265/2/3
f 284/2/3 262/2/3 280/2/3
f 285/2/3 258/2/3 257/2/3
f 286/2/3 258/2/3 285/2/3
f 287/2/3 281/2/3 263/2/3
f 287/2/3 282/2/3 281/2/3
f 288/2/3 260/2/3 282/2/3
f 288/2/3 282/2/3 287/2/3
f 289/2/3 284/2/3 283/2/3
f 289/2/3 283/2/3 265/2/3
f 290/2/3 262/2/3 284/2/3
f 290/2/3 284/2/3 289/2/3
f 291/2/3 268/2/3 267/2/3
f 292/1/3 256/1/3 268/1/3
f 292/2/3 268/2/3 291/2/3
f 293/1/3 286/1/3 285/1/3
f 294/1/3 286/1/3 293/1/3
f 295/1/3 288/1/3 287/1/3
f 296/1/3 288/1/3 295/1/3
f 297/1/3 290/1/3 289/1/3
f 298/1/3 290/1/3 297/1/3
f 299/1/3 292/1/3 291/1/3
f 300/1/3 256/1/3 292/1/3
f 300/1/3 292/1/3 299/1/3
f 305/1/3 302/1/3 301/1/3
f 306/1/3 302/1/3 305/1/3
f 307/1/3 304/1/3 303/1/3
f 308/1/3 304/1/3 307/1/3
f 313/1/3 310/1/3 309/1/3
f 314/1/3 310/1/3 313/1/3
f 315/1/3 312/1/3 311/1/3
f 316/1/3 312/1/3 315/1/3
f 321/2/3 318/2/3 317/2/3
f 322/2/3 318/2/3 321/2/3
f 323/2/3 320/2/3 319/2/3
f 324/2/3 320/2/3 323/2/3
f 329/2/3 326/2/3 325/2/3
f 330/2/3 326/2/3 329/2/3
f 331/2/3 328/2/3 327/2/3
f 332/2/3 328/2/3 331/2/3
f 339/1/3 334/1/3 333/1/3
f 340/1/3 334/1/3 339/1/3
f 341/1/3 336/1/3 335/1/3
f 342/1/3 336/1/3 341/1/3
f 343/1/3 338/1/3 337/1/3
f 344/1/3 338/1/3 343/1/3
f 347/2/3 346/2/3 345/2/3
f 348/2/3 346/2/3 347/2/3
f 351/2/3 350/2/3 349/2/3
f 352/2/3 350/2/3 351/2/3
f 353/2/4 354/2/4 355/2/4
f 355/2/4 354/2/4 356/2/4
f 357/2/4 358/2/4 359/2/4
f 359/2/4 358/2/4 360/2/4
f 361/1/4 362/1/4 367/1/4
f 367/1/4 362/1/4 368/1/4
f 363/1/4 364/1/4 369/1/4
f 369/1/4 364/1/4 370/1/4
f 365/1/4 366/1/4 371/1/4
f 371/1/4 366/1/4 372/1/4
f 373/2/4 374/2/4 377/2/4
f 377/2/4 374/2/4 378/2/4
f 375/2/4 376/2/4 379/2/4
f 379/2/4 376/2/4 380/2/4
f 381/2/4 382/2/4 385/2/4
f 385/2/4 382/2/4 386/2/4
f 383/2/4 384/2/4 387/2/4
f 387/2/4 384/2/4 388/2/4
f 389/1/4 390/1/4 397/1/4
f 397/1/4 390/1/4 398/1/4
f 391/1/4 392/1/4 399/1/4
f 399/1/4 392/1/4 400/1/4
f 393/1/4 394/1/4 401/1/4
f 401/1/4 394/1/4 402/1/4
f 399/2/4 400/2/4 404/2/4
f 401/2/4 402/2/4 406/2/4
f 395/1/4 396/1/4 408/1/4
f 397/2/4 398/2/4 409/2/4
f 409/2/4 398/2/4 410/2/4
f 403/2/4 404/2/4 411/2/4
f 404/2/4 400/2/4 412/2/4
f 411/2/4 404/2/4 412/2/4
f 405/2/4 406/2/4 413/2/4
f 406/2/4 402/2/4 414/2/4
f 413/2/4 406/2/4 414/2/4
f 407/2/4 408/2/4 415/2/4
f 408/1/4 396/1/4 416/1/4
f 415/2/4 408/2/4 416/2/4
f 409/1/4 410/1/4 417/1/4
f 417/1/4 410/1/4 418/1/4
f 411/1/4 412/1/4 419/1/4
f 419/1/4 412/1/4 420/1/4
f 413/1/4 414/1/4 421/1/4
f 421/1/4 414/1/4 422/1/4
f 415/1/4 416/1/4 423/1/4
f 416/1/4 396/1/4 424/1/4
f 423/1/4 416/1/4 424/1/4
f 429/1/4 430/1/4 432/1/4
f 430/2/4 431/2/4 432/2/4
f 432/2/4 431/2/4 433/2/4
f 425/1/4 426/1/4 434/1/4
f 434/1/4 426/1/4 435/1/4
f 427/1/4 428/1/4 436/1/4
f 436/1/4 428/1/4 437/1/4
f 429/1/4 432/1/4 438/1/4
f 438/1/4 432/1/4 439/1/4
f 429/1/4 438/1/4 440/1/4
f 433/2/4 431/2/4 441/2/4
f 425/1/4 434/1/4 442/1/4
f 442/1/4 434/1/4 443/1/4
f 427/1/4 436/1/4 444/1/4
f 444/1/4 436/1/4 445/1/4
f 429/1/4 440/1/4 446/1/4
f 440/2/4 441/2/4 447/2/4
f 446/1/4 440/1/4 447/1/4
f 441/2/4 431/2/4 448/2/4
f 447/2/4 441/2/4 448/2/4
f 449/2/4 450/2/4 451/2/4
f 451/2/4 450/2/4 452/2/4
f 457/1/5 454/1/5 453/1/5
f 458/1/5 454/1/5 457/1/5
f 459/2/5 455/2/5 454/2/5
f 459/1/5 454/1/5 458/1/5
f 460/1/5 456/1/5 455/1/5
f 460/2/5 455/2/5 459/2/5
f 461/1/5 456/1/5 460/1/5
f 463/2/5 459/2/5 458/2/5
f 463/2/5 461/2/5 460/2/5
f 463/2/5 460/2/5 459/2/5
f 464/2/5 461/2/5 463/2/5
f 465/2/5 461/2/5 464/2/5
f 466/2/5 461/2/5 465/2/5
f 467/1/5 463/1/5 462/1/5
f 467/1/5 464/1/5 463/1/5
f 468/2/5 465/2/5 464/2/5
f 468/1/5 464/1/5 467/1/5
f 469/1/5 466/1/5 465/1/5
f 469/2/5 465/2/5 468/2/5
f 470/1/5 466/1/5 469/1/5
f 473/1/5 472/1/5 471/1/5
f 474/1/5 472/1/5 473/1/5
f 475/1/5 472/1/5 474/1/5
f 476/1/5 472/1/5 475/1/5
f 479/1/5 472/1/5 476/1/5
f 480/1/5 478/1/5 477/1/5
f 481/1/5 478/1/5 480/1/5
f 482/1/5 472/1/5 479/1/5
f 486/1/5 472/1/5 482/1/5
f 487/1/5 485/1/5 484/1/5
f 487/1/5 486/1/5 485/1/5
f 487/1/5 484/1/5 483/1/5
f 488/1/5 472/1/5 486/1/5
f 488/1/5 486/1/5 487/1/5
f 491/2/5 490/2/5 489/2/5
f 492/2/5 490/2/5 491/2/5
f 495/2/5 494/2/5 493/2/5
f 496/2/5 494/2/5 495/2/5
f 501/2/5 498/2/5 497/2/5
f 502/2/5 498/2/5 501/2/5
f 503/2/5 500/2/5 499/2/5
f 504/2/5 500/2/5 503/2/5
f 507/1/5 506/1/5 505/1/5
f 508/1/5 506/1/5 507/1/5
f 509/1/5 506/1/5 508/1/5
f 510/1/5 506/1/5 509/1/5
f 513/1/5 506/1/5 510/1/5
f 514/1/5 512/1/5 511/1/5
f 515/1/5 512/1/5 514/1/5
f 516/1/5 506/1/5 513/1/5
f 520/1/5 506/1/5 516/1/5
f 521/1/5 519/1/5 518/1/5
f 521/1/5 520/1/5 519/1/5
f 521/1/5 518/1/5 517/1/5
f 522/1/5 506/1/5 520/1/5
f 522/1/5 520/1/5 521/1/5
f 525/2/5 524/2/5 523/2/5
f 526/2/5 524/2/5 525/2/5
f 529/2/5 528/2/5 527/2/5
f 530/2/5 528/2/5 529/2/5
f 535/2/5 532/2/5 531/2/5
f 536/2/5 532/2/5 535/2/5
f 537/2/5 534/2/5 533/2/5
f 538/2/5 534/2/5 537/2/5
f 541/1/5 540/1/5 539/1/5
f 542/1/5 540/1/5 541/1/5
f 543/1/5 540/1/5 542/1/5
f 544/1/5 540/1/5 543/1/5
f 547/1/5 540/1/5 544/1/5
f 548/1/5 546/1/5 545/1/5
f 549/1/5 546/1/5 548/1/5
f 550/1/5 540/1/5 547/1/5
f 554/1/5 540/1/5 550/1/5
f 555/1/5 553/1/5 552/1/5
f 555/1/5 554/1/5 553/1/5
f 555/1/5 552/1/5 551/1/5
f 556/1/5 540/1/5 554/1/5
f 556/1/5 554/1/5 555/1/5
f 560/2/5 558/2/5 557/2/5
f 561/2/5 558/2/5 560/2/5
f 563/2/5 560/2/5 559/2/5
f 564/2/5 560/2/5 563/2/5
f 565/2/5 562/2/5 561/2/5
f 566/2/5 562/2/5 565/2/5
f 567/2/5 565/2/5 564/2/5
f 568/2/5 565/2/5 567/2/5
f 571/2/5 570/2/5 569/2/5
f 572/2/5 570/2/5 571/2/5
f 573/2/5 571/2/5 569/2/5
f 574/2/5 570/2/5 572/2/5
f 575/2/5 573/2/5 569/2/5
f 575/2/5 574/2/5 573/2/5
f 576/2/5 570/2/5 574/2/5
f 576/2/5 574/2/5 575/2/5
f 577/1/6 578/1/6 579/1/6
f 579/1/6 578/1/6 580/1/6
f 580/1/6 578/1/6 581/1/6
f 581/1/6 578/1/6 582/1/6
f 582/1/6 578/1/6 583/1/6
f 583/1/6 578/1/6 586/1/6
f 584/1/6 585/1/6 587/1/6
f 585/1/6 586/1/6 587/1/6
f 586/1/6 578/1/6 588/1/6
f 587/1/6 586/1/6 588/1/6
f 589/1/6 590/1/6 591/1/6
f 591/1/6 590/1/6 592/1/6
f 592/1/6 590/1/6 593/1/6
f 594/2/6 595/2/6 600/2/6
f 600/2/6 595/2/6 601/2/6
f 596/2/6 597/2/6 602/2/6
f 602/2/6 597/2/6 603/2/6
f 598/1/6 599/1/6 604/1/6
f 604/1/6 599/1/6 605/1/6
f 606/1/6 607/1/6 609/1/6
f 607/1/6 608/1/6 609/1/6
f 609/1/6 608/1/6 610/1/6
f 611/2/6 612/2/6 613/2/6
f 613/2/6 612/2/6 614/2/6
f 615/2/6 616/2/6 617/2/6
f 617/2/6 616/2/6 618/2/6
f 619/1/6 620/1/6 621/1/6
f 621/1/6 620/1/6 622/1/6
f 622/1/6 620/1/6 623/1/6
f 623/1/6 620/1/6 624/1/6
f 624/1/6 620/1/6 625/1/6
f 625/1/6 620/1/6 628/1/6
f 626/1/6 627/1/6 629/1/6
f 627/1/6 628/1/6 629/1/6
f 628/1/6 620/1/6 630/1/6
f 629/1/6 628/1/6 630/1/6
f 631/1/6 632/1/6 633/1/6
f 633/1/6 632/1/6 634/1/6
f 634/1/6 632/1/6 635/1/6
f 636/2/6 637/2/6 642/2/6
f 642/2/6 637/2/6 643/2/6
f 638/2/6 639/2/6 644/2/6
f 644/2/6 639/2/6 645/2/6
f 640/1/6 641/1/6 646/1/6
f 646/1/6 641/1/6 647/1/6
f 648/1/6 649/1/6 651/1/6
f 649/1/6 650/1/6 651/1/6
f 651/1/6 650/1/6 652/1/6
f 653/2/6 654/2/6 655/2/6
f 655/2/6 654/2/6 656/2/6
f 657/2/6 658/2/6 659/2/6
f 659/2/6 658/2/6 660/2/6
f 661/1/6 662/1/6 663/1/6
f 663/1/6 662/1/6 664/1/6
f 664/1/6 662/1/6 665/1/6
f 665/1/6 666/1/6 667/1/6
f 667/1/6 666/1/6 668/1/6
f 668/1/6 666/1/6 671/1/6
f 671/1/6 666/1/6 672/1/6
f 669/1/6 670/1/6 673/1/6
f 670/1/6 671/1/6 673/1/6
f 673/1/6 671/1/6 674/1/6
f 675/1/6 676/1/6 678/1/6
f 678/1/6 676/1/6 679/1/6
f 677/1/6 678/1/6 680/1/6
f 680/1/6 678/1/6 681/1/6
f 681/1/6 682/1/6 683/1/6
f 683/1/6 682/1/6 684/1/6
f 685/2/6 686/2/6 687/2/6
f 687/2/6 686/2/6 688/2/6
