# MagicaVoxel @ Ephtracy

# group
o 

# material
mtllib Building005(2).mtl
usemtl palette

# normals
vn -1 0 0
vn 1 0 0
vn 0 0 1
vn 0 0 -1
vn 0 -1 0
vn 0 1 0

# texcoords
vt 0.0175781 0.5
vt 0.0292969 0.5
vt 0.982422 0.5
vt 0.990234 0.5
vt 0.994141 0.5

# verts
v -2.5 0 1.3
v -2.5 0 1
v -2.5 0 0.3
v -2.5 0 0
v -2.5 6.4 1.3
v -2.5 6.4 1
v -2.5 6.4 0.3
v -2.5 6.4 0
v -2.3 0 1
v -2.3 0 0.3
v -2.3 6.4 1
v -2.3 6.4 0.3
v -1.9 0 0
v -1.9 0 -3.2
v -1.9 0.7 -0.8
v -1.9 0.7 -1.7
v -1.9 0.7 -1.9
v -1.9 0.7 -2.7
v -1.9 2.2 -0.8
v -1.9 2.2 -1.7
v -1.9 2.2 -1.9
v -1.9 2.2 -2.7
v -1.9 3.6 0
v -1.9 3.6 -3.2
v -1.9 4.5 0
v -1.9 4.5 -3.2
v -1.9 4.9 -0.2
v -1.9 4.9 -1.1
v -1.9 6 -0.2
v -1.9 6 -1.1
v -1.9 6.4 0
v -1.9 6.4 -3.2
v -1.6 0.2 -0.5
v -1.6 0.2 -2.7
v -1.6 0.6 -0.6
v -1.6 0.6 -0.7
v -1.6 0.6 -0.8
v -1.6 0.6 -2.7
v -1.6 0.7 -0.7
v -1.6 0.7 -0.8
v -1.6 0.7 -1.7
v -1.6 0.7 -1.9
v -1.6 0.7 -2.7
v -1.6 2 -0.5
v -1.6 2 -0.6
v -1.6 3.6 0.9
v -1.6 3.6 -2.7
v -1.6 4.5 0.9
v -1.6 4.5 -2.7
v -1.5 0.7 -0.8
v -1.5 0.7 -1.7
v -1.5 0.7 -1.9
v -1.5 0.7 -2.7
v -1.5 2.2 -0.8
v -1.5 2.2 -1.7
v -1.5 2.2 -1.9
v -1.5 2.2 -2.7
v -1.5 4.9 -0.2
v -1.5 4.9 -1.1
v -1.5 6 -0.2
v -1.5 6 -1.1
v 2.3 0.8 1.3
v 2.3 0.8 0.9
v 2.3 2.3 1.3
v 2.3 2.3 0.9
v -2.1 3.6 1.3
v -2.1 3.6 1.2
v -2.1 3.6 0.3
v -2.1 3.6 0.2
v -2.1 3.6 0
v -2.1 3.7 0.3
v -2.1 3.7 0.2
v -2.1 4.5 1.3
v -2.1 4.5 1.2
v -2.1 4.5 0.2
v -2.1 4.5 0
v -1.7 0.2 -0.5
v -1.7 0.2 -2.7
v -1.7 0.6 -0.6
v -1.7 0.6 -0.7
v -1.7 0.6 -2.7
v -1.7 0.7 -0.7
v -1.7 0.7 -0.8
v -1.7 0.7 -1.7
v -1.7 0.7 -1.9
v -1.7 0.7 -2.7
v -1.7 2 -0.5
v -1.7 2 -0.6
v 1.1 0.8 1.3
v 1.1 0.8 0.9
v 1.1 2.3 1.3
v 1.1 2.3 0.9
v 3 3.6 0.9
v 3 3.6 -2.7
v 3 4.5 0.9
v 3 4.5 -2.7
v 3.2 0 1.3
v 3.2 0 -3.2
v 3.2 3.6 1.3
v 3.2 3.6 -3.2
v 3.2 4.5 1.3
v 3.2 4.5 -3.2
v 3.2 6.4 1.3
v 3.2 6.4 -3.2
v -2.5 0 1.3
v -2.5 6.4 1.3
v -2.1 3.6 1.3
v -2.1 4.5 1.3
v -2 0 1.3
v -2 3.6 1.3
v -2 4.5 1.3
v -2 6.4 1.3
v 1.1 0.8 1.3
v 1.1 2.3 1.3
v 2.3 0.8 1.3
v 2.3 2.3 1.3
v 3.2 0 1.3
v 3.2 3.6 1.3
v 3.2 4.5 1.3
v 3.2 6.4 1.3
v -1.6 3.6 0.9
v -1.6 4.5 0.9
v 1.1 0.8 0.9
v 1.1 2.3 0.9
v 2.3 0.8 0.9
v 2.3 2.3 0.9
v 3 3.6 0.9
v 3 4.5 0.9
v -2.5 0 0.3
v -2.5 6.4 0.3
v -2.3 0 0.3
v -2.3 6.4 0.3
v -1.7 0.6 -0.6
v -1.7 2 -0.6
v -1.6 0.6 -0.6
v -1.6 2 -0.6
v -1.9 4.9 -1.1
v -1.9 6 -1.1
v -1.5 4.9 -1.1
v -1.5 6 -1.1
v -1.9 0.7 -1.7
v -1.9 2.2 -1.7
v -1.7 0.7 -1.7
v -1.6 0.7 -1.7
v -1.5 0.7 -1.7
v -1.5 2.2 -1.7
v -1.9 0.7 -2.7
v -1.9 2.2 -2.7
v -1.7 0.2 -2.7
v -1.7 0.6 -2.7
v -1.7 0.7 -2.7
v -1.6 0.2 -2.7
v -1.6 0.6 -2.7
v -1.6 0.7 -2.7
v -1.5 0.7 -2.7
v -1.5 2.2 -2.7
v -2.5 0 1
v -2.5 6.4 1
v -2.3 0 1
v -2.3 6.4 1
v -2.5 0 0
v -2.5 6.4 0
v -2.1 3.6 0
v -2.1 4.5 0
v -2 0 0
v -2 3.6 0
v -2 4.5 0
v -2 6.4 0
v -1.9 0 0
v -1.9 3.6 0
v -1.9 4.5 0
v -1.9 6.4 0
v -1.9 4.9 -0.2
v -1.9 6 -0.2
v -1.5 4.9 -0.2
v -1.5 6 -0.2
v -1.7 0.2 -0.5
v -1.7 2 -0.5
v -1.6 0.2 -0.5
v -1.6 2 -0.5
v -1.7 0.6 -0.7
v -1.7 0.7 -0.7
v -1.6 0.6 -0.7
v -1.6 0.7 -0.7
v -1.9 0.7 -0.8
v -1.9 2.2 -0.8
v -1.7 0.7 -0.8
v -1.6 0.7 -0.8
v -1.5 0.7 -0.8
v -1.5 2.2 -0.8
v -1.9 0.7 -1.9
v -1.9 2.2 -1.9
v -1.7 0.7 -1.9
v -1.6 0.7 -1.9
v -1.5 0.7 -1.9
v -1.5 2.2 -1.9
v -1.6 3.6 -2.7
v -1.6 4.5 -2.7
v 3 3.6 -2.7
v 3 4.5 -2.7
v -1.9 0 -3.2
v -1.9 3.6 -3.2
v -1.9 4.5 -3.2
v -1.9 6.4 -3.2
v 3.2 0 -3.2
v 3.2 3.6 -3.2
v 3.2 4.5 -3.2
v 3.2 6.4 -3.2
v -2.5 0 1.3
v -2 0 1.3
v 3.2 0 1.3
v -2.5 0 1
v -2.3 0 1
v -2.2 0 1
v -2 0 1
v -2.5 0 0.3
v -2.3 0 0.3
v -2.2 0 0.3
v -1.9 0 0.3
v -2 0 0.0999999
v -1.9 0 0.0999999
v -2.5 0 0
v -2 0 0
v -1.9 0 0
v -1.9 0 -3.2
v 3.2 0 -3.2
v -1.7 0.6 -0.6
v -1.6 0.6 -0.6
v -1.7 0.6 -0.7
v -1.6 0.6 -0.7
v -1.7 0.7 -0.7
v -1.6 0.7 -0.7
v -1.7 0.7 -0.8
v -1.6 0.7 -0.8
v -1.7 0.7 -1.7
v -1.6 0.7 -1.7
v -1.7 0.7 -1.9
v -1.6 0.7 -1.9
v -1.7 2 -0.5
v -1.6 2 -0.5
v -1.7 2 -0.6
v -1.6 2 -0.6
v -1.9 2.2 -0.8
v -1.5 2.2 -0.8
v -1.9 2.2 -1.7
v -1.5 2.2 -1.7
v -1.9 2.2 -1.9
v -1.5 2.2 -1.9
v -1.9 2.2 -2.7
v -1.5 2.2 -2.7
v 1.1 2.3 1.3
v 2.3 2.3 1.3
v 1.1 2.3 0.9
v 2.3 2.3 0.9
v -2.1 4.5 1.3
v -2 4.5 1.3
v 3.2 4.5 1.3
v -2.1 4.5 1.2
v -2 4.5 1.2
v -1.6 4.5 0.9
v 3 4.5 0.9
v -2.1 4.5 0.2
v -2 4.5 0.2
v -2.1 4.5 0
v -2 4.5 0
v -1.9 4.5 0
v -1.6 4.5 -2.7
v 3 4.5 -2.7
v -1.9 4.5 -3.2
v 3.2 4.5 -3.2
v -1.9 6 -0.2
v -1.5 6 -0.2
v -1.9 6 -1.1
v -1.5 6 -1.1
v -1.7 0.2 -0.5
v -1.6 0.2 -0.5
v -1.7 0.2 -2.7
v -1.6 0.2 -2.7
v -1.9 0.7 -0.8
v -1.7 0.7 -0.8
v -1.6 0.7 -0.8
v -1.5 0.7 -0.8
v -1.9 0.7 -1.7
v -1.7 0.7 -1.7
v -1.6 0.7 -1.7
v -1.5 0.7 -1.7
v -1.9 0.7 -1.9
v -1.7 0.7 -1.9
v -1.6 0.7 -1.9
v -1.5 0.7 -1.9
v -1.9 0.7 -2.7
v -1.7 0.7 -2.7
v -1.6 0.7 -2.7
v -1.5 0.7 -2.7
v 1.1 0.8 1.3
v 2.3 0.8 1.3
v 1.1 0.8 0.9
v 2.3 0.8 0.9
v -2.1 3.6 1.3
v -2 3.6 1.3
v 3.2 3.6 1.3
v -2.1 3.6 1.2
v -2 3.6 1.2
v -1.6 3.6 0.9
v 3 3.6 0.9
v -2.1 3.6 0.3
v -2.1 3.6 0.2
v -2 3.6 0.2
v -2.1 3.6 0
v -2 3.6 0
v -1.9 3.6 0
v -1.6 3.6 -2.7
v 3 3.6 -2.7
v -1.9 3.6 -3.2
v 3.2 3.6 -3.2
v -1.9 4.9 -0.2
v -1.5 4.9 -0.2
v -1.9 4.9 -1.1
v -1.5 4.9 -1.1
v -2.5 6.4 1.3
v -2 6.4 1.3
v 3.2 6.4 1.3
v -2.5 6.4 1
v -2.3 6.4 1
v -2.2 6.4 1
v -2 6.4 1
v -2.5 6.4 0.3
v -2.3 6.4 0.3
v -2.2 6.4 0.3
v -2 6.4 0.3
v -2.5 6.4 0
v -2 6.4 0
v -1.9 6.4 0
v -1.9 6.4 -3.2
v 3.2 6.4 -3.2

# faces
f 5/3/1 2/3/1 1/3/1
f 6/3/1 2/3/1 5/3/1
f 7/3/1 4/3/1 3/3/1
f 8/3/1 4/3/1 7/3/1
f 11/1/1 10/1/1 9/1/1
f 12/1/1 10/1/1 11/1/1
f 15/4/1 14/4/1 13/4/1
f 16/4/1 14/4/1 15/4/1
f 17/4/1 14/4/1 16/4/1
f 18/4/1 14/4/1 17/4/1
f 19/4/1 15/4/1 13/4/1
f 20/4/1 17/4/1 16/4/1
f 21/4/1 17/4/1 20/4/1
f 22/4/1 14/4/1 18/4/1
f 23/4/1 21/4/1 20/4/1
f 23/4/1 22/4/1 21/4/1
f 23/4/1 19/4/1 13/4/1
f 23/4/1 20/4/1 19/4/1
f 24/4/1 14/4/1 22/4/1
f 24/4/1 22/4/1 23/4/1
f 27/4/1 26/4/1 25/4/1
f 28/4/1 26/4/1 27/4/1
f 29/4/1 27/4/1 25/4/1
f 30/4/1 26/4/1 28/4/1
f 31/4/1 29/4/1 25/4/1
f 31/4/1 30/4/1 29/4/1
f 32/4/1 26/4/1 30/4/1
f 32/4/1 30/4/1 31/4/1
f 35/2/1 34/2/1 33/2/1
f 36/2/1 34/2/1 35/2/1
f 37/2/1 34/2/1 36/2/1
f 38/2/1 34/2/1 37/2/1
f 39/2/1 37/2/1 36/2/1
f 40/4/1 38/4/1 37/4/1
f 40/2/1 37/2/1 39/2/1
f 41/4/1 38/4/1 40/4/1
f 42/4/1 38/4/1 41/4/1
f 43/4/1 38/4/1 42/4/1
f 44/2/1 35/2/1 33/2/1
f 45/2/1 35/2/1 44/2/1
f 48/1/1 47/1/1 46/1/1
f 49/1/1 47/1/1 48/1/1
f 54/1/1 51/1/1 50/1/1
f 55/1/1 51/1/1 54/1/1
f 56/1/1 53/1/1 52/1/1
f 57/1/1 53/1/1 56/1/1
f 60/2/1 59/2/1 58/2/1
f 61/2/1 59/2/1 60/2/1
f 64/4/1 63/4/1 62/4/1
f 65/4/1 63/4/1 64/4/1
f 67/4/2 68/4/2 71/4/2
f 69/3/2 70/3/2 71/3/2
f 68/3/2 69/3/2 71/3/2
f 71/3/2 70/3/2 72/3/2
f 66/3/2 67/3/2 73/3/2
f 67/4/2 71/4/2 74/4/2
f 73/3/2 67/3/2 74/3/2
f 71/4/2 72/4/2 74/4/2
f 72/3/2 70/3/2 75/3/2
f 74/4/2 72/4/2 75/4/2
f 75/3/2 70/3/2 76/3/2
f 77/4/2 78/4/2 79/4/2
f 79/4/2 78/4/2 80/4/2
f 80/4/2 78/4/2 81/4/2
f 80/4/2 81/4/2 82/4/2
f 82/4/2 81/4/2 83/4/2
f 83/4/2 81/4/2 84/4/2
f 84/4/2 81/4/2 85/4/2
f 85/4/2 81/4/2 86/4/2
f 77/4/2 79/4/2 87/4/2
f 87/4/2 79/4/2 88/4/2
f 89/4/2 90/4/2 91/4/2
f 91/4/2 90/4/2 92/4/2
f 93/1/2 94/1/2 95/1/2
f 95/1/2 94/1/2 96/1/2
f 97/4/2 98/4/2 99/4/2
f 99/4/2 98/4/2 100/4/2
f 101/4/2 102/4/2 103/4/2
f 103/4/2 102/4/2 104/4/2
f 107/3/3 106/3/3 105/3/3
f 108/3/3 106/3/3 107/3/3
f 109/3/3 107/3/3 105/3/3
f 110/3/3 107/3/3 109/3/3
f 111/3/3 106/3/3 108/3/3
f 112/3/3 106/3/3 111/3/3
f 113/4/3 110/4/3 109/4/3
f 114/4/3 110/4/3 113/4/3
f 115/4/3 113/4/3 109/4/3
f 116/4/3 110/4/3 114/4/3
f 117/4/3 115/4/3 109/4/3
f 117/4/3 116/4/3 115/4/3
f 118/4/3 110/4/3 116/4/3
f 118/4/3 116/4/3 117/4/3
f 119/4/3 112/4/3 111/4/3
f 120/4/3 112/4/3 119/4/3
f 125/2/3 124/2/3 123/2/3
f 126/2/3 124/2/3 125/2/3
f 127/1/3 122/1/3 121/1/3
f 128/1/3 122/1/3 127/1/3
f 131/3/3 130/3/3 129/3/3
f 132/3/3 130/3/3 131/3/3
f 135/4/3 134/4/3 133/4/3
f 136/4/3 134/4/3 135/4/3
f 139/4/3 138/4/3 137/4/3
f 140/4/3 138/4/3 139/4/3
f 143/4/3 142/4/3 141/4/3
f 144/4/3 142/4/3 143/4/3
f 145/4/3 142/4/3 144/4/3
f 146/4/3 142/4/3 145/4/3
f 151/4/3 148/4/3 147/4/3
f 152/2/3 150/2/3 149/2/3
f 153/4/3 151/4/3 150/4/3
f 153/2/3 150/2/3 152/2/3
f 154/4/3 148/4/3 151/4/3
f 154/4/3 151/4/3 153/4/3
f 155/4/3 148/4/3 154/4/3
f 156/4/3 148/4/3 155/4/3
f 157/3/4 158/3/4 159/3/4
f 159/3/4 158/3/4 160/3/4
f 161/3/4 162/3/4 163/3/4
f 163/3/4 162/3/4 164/3/4
f 161/3/4 163/3/4 165/3/4
f 165/3/4 163/3/4 166/3/4
f 164/3/4 162/3/4 167/3/4
f 167/3/4 162/3/4 168/3/4
f 165/4/4 166/4/4 169/4/4
f 169/4/4 166/4/4 170/4/4
f 167/4/4 168/4/4 171/4/4
f 171/4/4 168/4/4 172/4/4
f 173/4/4 174/4/4 175/4/4
f 175/4/4 174/4/4 176/4/4
f 177/2/4 178/2/4 179/2/4
f 179/2/4 178/2/4 180/2/4
f 181/4/4 182/4/4 183/4/4
f 183/4/4 182/4/4 184/4/4
f 185/4/4 186/4/4 187/4/4
f 187/4/4 186/4/4 188/4/4
f 188/4/4 186/4/4 189/4/4
f 189/4/4 186/4/4 190/4/4
f 191/4/4 192/4/4 193/4/4
f 193/4/4 192/4/4 194/4/4
f 194/4/4 192/4/4 195/4/4
f 195/4/4 192/4/4 196/4/4
f 197/1/4 198/1/4 199/1/4
f 199/1/4 198/1/4 200/1/4
f 201/4/4 202/4/4 205/4/4
f 205/4/4 202/4/4 206/4/4
f 203/4/4 204/4/4 207/4/4
f 207/4/4 204/4/4 208/4/4
f 212/3/5 210/3/5 209/3/5
f 213/3/5 210/3/5 212/3/5
f 214/3/5 210/3/5 213/3/5
f 215/4/5 211/4/5 210/4/5
f 215/3/5 210/3/5 214/3/5
f 217/1/5 214/1/5 213/1/5
f 218/4/5 215/4/5 214/4/5
f 218/1/5 214/1/5 217/1/5
f 219/4/5 211/4/5 215/4/5
f 219/4/5 215/4/5 218/4/5
f 220/3/5 217/3/5 216/3/5
f 220/3/5 218/3/5 217/3/5
f 220/3/5 219/3/5 218/3/5
f 221/4/5 211/4/5 219/4/5
f 221/3/5 219/3/5 220/3/5
f 222/3/5 220/3/5 216/3/5
f 223/4/5 221/4/5 220/4/5
f 223/3/5 220/3/5 222/3/5
f 224/4/5 211/4/5 221/4/5
f 224/4/5 221/4/5 223/4/5
f 225/4/5 211/4/5 224/4/5
f 226/4/5 211/4/5 225/4/5
f 229/4/5 228/4/5 227/4/5
f 230/4/5 228/4/5 229/4/5
f 233/4/5 232/4/5 231/4/5
f 234/4/5 232/4/5 233/4/5
f 237/4/5 236/4/5 235/4/5
f 238/4/5 236/4/5 237/4/5
f 241/2/5 240/2/5 239/2/5
f 242/2/5 240/2/5 241/2/5
f 245/4/5 244/4/5 243/4/5
f 246/4/5 244/4/5 245/4/5
f 249/4/5 248/4/5 247/4/5
f 250/4/5 248/4/5 249/4/5
f 253/4/5 252/4/5 251/4/5
f 254/4/5 252/4/5 253/4/5
f 258/3/5 256/3/5 255/3/5
f 259/4/5 257/4/5 256/4/5
f 259/3/5 256/3/5 258/3/5
f 260/4/5 259/4/5 258/4/5
f 260/4/5 257/4/5 259/4/5
f 261/4/5 257/4/5 260/4/5
f 262/4/5 260/4/5 258/4/5
f 263/4/5 260/4/5 262/4/5
f 264/3/5 263/3/5 262/3/5
f 265/4/5 260/4/5 263/4/5
f 265/3/5 263/3/5 264/3/5
f 266/4/5 260/4/5 265/4/5
f 267/4/5 260/4/5 266/4/5
f 268/4/5 257/4/5 261/4/5
f 269/4/5 267/4/5 266/4/5
f 269/4/5 268/4/5 267/4/5
f 270/4/5 257/4/5 268/4/5
f 270/4/5 268/4/5 269/4/5
f 273/4/5 272/4/5 271/4/5
f 274/4/5 272/4/5 273/4/5
f 275/4/6 276/4/6 277/4/6
f 277/4/6 276/4/6 278/4/6
f 279/4/6 280/4/6 283/4/6
f 283/4/6 280/4/6 284/4/6
f 281/4/6 282/4/6 285/4/6
f 285/4/6 282/4/6 286/4/6
f 287/4/6 288/4/6 291/4/6
f 291/4/6 288/4/6 292/4/6
f 289/4/6 290/4/6 293/4/6
f 293/4/6 290/4/6 294/4/6
f 295/4/6 296/4/6 297/4/6
f 297/4/6 296/4/6 298/4/6
f 299/3/6 300/3/6 302/3/6
f 300/4/6 301/4/6 303/4/6
f 302/3/6 300/3/6 303/3/6
f 302/4/6 303/4/6 304/4/6
f 303/4/6 301/4/6 304/4/6
f 304/4/6 301/4/6 305/4/6
f 302/4/6 304/4/6 306/4/6
f 306/4/6 304/4/6 307/4/6
f 307/4/6 304/4/6 308/4/6
f 307/3/6 308/3/6 309/3/6
f 308/4/6 304/4/6 310/4/6
f 309/3/6 308/3/6 310/3/6
f 310/4/6 304/4/6 311/4/6
f 311/4/6 304/4/6 312/4/6
f 305/4/6 301/4/6 313/4/6
f 311/4/6 312/4/6 314/4/6
f 312/4/6 313/4/6 314/4/6
f 313/4/6 301/4/6 315/4/6
f 314/4/6 313/4/6 315/4/6
f 316/4/6 317/4/6 318/4/6
f 318/4/6 317/4/6 319/4/6
f 320/3/6 321/3/6 323/3/6
f 323/3/6 321/3/6 324/3/6
f 324/3/6 321/3/6 325/3/6
f 321/4/6 322/4/6 326/4/6
f 325/3/6 321/3/6 326/3/6
f 324/1/6 325/1/6 328/1/6
f 325/4/6 326/4/6 329/4/6
f 328/1/6 325/1/6 329/1/6
f 326/4/6 322/4/6 330/4/6
f 329/4/6 326/4/6 330/4/6
f 327/3/6 328/3/6 331/3/6
f 328/3/6 329/3/6 331/3/6
f 329/3/6 330/3/6 331/3/6
f 330/4/6 322/4/6 332/4/6
f 331/3/6 330/3/6 332/3/6
f 332/4/6 322/4/6 333/4/6
f 333/4/6 322/4/6 334/4/6
f 334/4/6 322/4/6 335/4/6
