# MagicaVoxel @ Ephtracy

# group
o 

# material
mtllib Ground_007.mtl
usemtl palette

# normals
vn -1 0 0
vn 1 0 0
vn 0 0 1
vn 0 0 -1
vn 0 -1 0
vn 0 1 0

# texcoords
vt 0.814453 0.5
vt 0.845703 0.5
vt 0.849609 0.5

# verts
v -3.2 -0.8 3.2
v -3.2 -0.8 2
v -3.2 -0.8 1.8
v -3.2 -0.8 -1.8
v -3.2 -0.8 -2
v -3.2 -0.8 -3.2
v -3.2 -0.7 3.2
v -3.2 -0.7 2
v -3.2 -0.7 1.8
v -3.2 -0.7 -1.8
v -3.2 -0.7 -2
v -3.2 -0.7 -3.2
v 3.2 -0.8 3.2
v 3.2 -0.8 -3.2
v 3.2 -0.7 3.2
v 3.2 -0.7 -3.2
v -3.2 -0.8 3.2
v -3.2 -0.7 3.2
v 3.2 -0.8 3.2
v 3.2 -0.7 3.2
v -3.2 -0.8 -3.2
v -3.2 -0.7 -3.2
v -2 -0.8 -3.2
v -2 -0.7 -3.2
v -1.8 -0.8 -3.2
v -1.8 -0.7 -3.2
v 1.8 -0.8 -3.2
v 1.8 -0.7 -3.2
v 2 -0.8 -3.2
v 2 -0.7 -3.2
v 3.2 -0.8 -3.2
v 3.2 -0.7 -3.2
v -3.2 -0.8 3.2
v 3.2 -0.8 3.2
v -3.2 -0.8 2
v 2 -0.8 2
v -3.2 -0.8 1.8
v 1.8 -0.8 1.8
v -3.2 -0.8 -1.8
v -1.8 -0.8 -1.8
v -3.2 -0.8 -2
v -2 -0.8 -2
v -3.2 -0.8 -3.2
v -2 -0.8 -3.2
v -1.8 -0.8 -3.2
v 1.8 -0.8 -3.2
v 2 -0.8 -3.2
v 3.2 -0.8 -3.2
v -3.2 -0.7 3.2
v 3.2 -0.7 3.2
v -3.2 -0.7 2
v 2 -0.7 2
v -3.2 -0.7 1.8
v 1.8 -0.7 1.8
v -3.2 -0.7 -1.8
v -1.8 -0.7 -1.8
v -3.2 -0.7 -2
v -2 -0.7 -2
v -3.2 -0.7 -3.2
v -2 -0.7 -3.2
v -1.8 -0.7 -3.2
v 1.8 -0.7 -3.2
v 2 -0.7 -3.2
v 3.2 -0.7 -3.2

# faces
f 7/2/1 2/2/1 1/2/1
f 8/3/1 3/3/1 2/3/1
f 8/2/1 2/2/1 7/2/1
f 9/1/1 4/1/1 3/1/1
f 9/3/1 3/3/1 8/3/1
f 10/3/1 5/3/1 4/3/1
f 10/1/1 4/1/1 9/1/1
f 11/2/1 6/2/1 5/2/1
f 11/3/1 5/3/1 10/3/1
f 12/2/1 6/2/1 11/2/1
f 13/2/2 14/2/2 15/2/2
f 15/2/2 14/2/2 16/2/2
f 19/2/3 18/2/3 17/2/3
f 20/2/3 18/2/3 19/2/3
f 21/2/4 22/2/4 23/2/4
f 23/2/4 22/2/4 24/2/4
f 23/3/4 24/3/4 25/3/4
f 25/3/4 24/3/4 26/3/4
f 25/1/4 26/1/4 27/1/4
f 27/1/4 26/1/4 28/1/4
f 27/3/4 28/3/4 29/3/4
f 29/3/4 28/3/4 30/3/4
f 29/2/4 30/2/4 31/2/4
f 31/2/4 30/2/4 32/2/4
f 35/2/5 34/2/5 33/2/5
f 36/2/5 34/2/5 35/2/5
f 37/3/5 36/3/5 35/3/5
f 38/3/5 36/3/5 37/3/5
f 39/1/5 38/1/5 37/1/5
f 40/1/5 38/1/5 39/1/5
f 41/3/5 40/3/5 39/3/5
f 42/3/5 40/3/5 41/3/5
f 43/2/5 42/2/5 41/2/5
f 44/3/5 40/3/5 42/3/5
f 44/2/5 42/2/5 43/2/5
f 45/1/5 38/1/5 40/1/5
f 45/3/5 40/3/5 44/3/5
f 46/3/5 36/3/5 38/3/5
f 46/1/5 38/1/5 45/1/5
f 47/2/5 34/2/5 36/2/5
f 47/3/5 36/3/5 46/3/5
f 48/2/5 34/2/5 47/2/5
f 49/2/6 50/2/6 51/2/6
f 51/2/6 50/2/6 52/2/6
f 51/3/6 52/3/6 53/3/6
f 53/3/6 52/3/6 54/3/6
f 53/1/6 54/1/6 55/1/6
f 55/1/6 54/1/6 56/1/6
f 55/3/6 56/3/6 57/3/6
f 57/3/6 56/3/6 58/3/6
f 57/2/6 58/2/6 59/2/6
f 58/3/6 56/3/6 60/3/6
f 59/2/6 58/2/6 60/2/6
f 56/1/6 54/1/6 61/1/6
f 60/3/6 56/3/6 61/3/6
f 54/3/6 52/3/6 62/3/6
f 61/1/6 54/1/6 62/1/6
f 52/2/6 50/2/6 63/2/6
f 62/3/6 52/3/6 63/3/6
f 63/2/6 50/2/6 64/2/6
