# MagicaVoxel @ Ephtracy

# group
o 

# material
mtllib Ground_001.mtl
usemtl palette

# normals
vn -1 0 0
vn 1 0 0
vn 0 0 1
vn 0 0 -1
vn 0 -1 0
vn 0 1 0

# texcoords
vt 0.814453 0.5
vt 0.845703 0.5
vt 0.849609 0.5

# verts
v -3.2 -0.8 3.2
v -3.2 -0.8 2
v -3.2 -0.8 1.8
v -3.2 -0.8 -1.8
v -3.2 -0.8 -2
v -3.2 -0.8 -3.2
v -3.2 -0.7 3.2
v -3.2 -0.7 2
v -3.2 -0.7 1.8
v -3.2 -0.7 -1.8
v -3.2 -0.7 -2
v -3.2 -0.7 -3.2
v 3.2 -0.8 3.2
v 3.2 -0.8 2
v 3.2 -0.8 1.8
v 3.2 -0.8 -1.8
v 3.2 -0.8 -2
v 3.2 -0.8 -3.2
v 3.2 -0.7 3.2
v 3.2 -0.7 2
v 3.2 -0.7 1.8
v 3.2 -0.7 -1.8
v 3.2 -0.7 -2
v 3.2 -0.7 -3.2
v -3.2 -0.8 3.2
v -3.2 -0.7 3.2
v -2 -0.8 3.2
v -2 -0.7 3.2
v -1.8 -0.8 3.2
v -1.8 -0.7 3.2
v 1.8 -0.8 3.2
v 1.8 -0.7 3.2
v 2 -0.8 3.2
v 2 -0.7 3.2
v 3.2 -0.8 3.2
v 3.2 -0.7 3.2
v -3.2 -0.8 -3.2
v -3.2 -0.7 -3.2
v -2 -0.8 -3.2
v -2 -0.7 -3.2
v -1.8 -0.8 -3.2
v -1.8 -0.7 -3.2
v 1.8 -0.8 -3.2
v 1.8 -0.7 -3.2
v 2 -0.8 -3.2
v 2 -0.7 -3.2
v 3.2 -0.8 -3.2
v 3.2 -0.7 -3.2
v -3.2 -0.8 3.2
v -2 -0.8 3.2
v -1.8 -0.8 3.2
v 1.8 -0.8 3.2
v 2 -0.8 3.2
v 3.2 -0.8 3.2
v -3.2 -0.8 2
v -2 -0.8 2
v 2 -0.8 2
v 3.2 -0.8 2
v -3.2 -0.8 1.8
v -1.8 -0.8 1.8
v 1.8 -0.8 1.8
v 3.2 -0.8 1.8
v -3.2 -0.8 -1.8
v -1.8 -0.8 -1.8
v 1.8 -0.8 -1.8
v 3.2 -0.8 -1.8
v -3.2 -0.8 -2
v -2 -0.8 -2
v 2 -0.8 -2
v 3.2 -0.8 -2
v -3.2 -0.8 -3.2
v -2 -0.8 -3.2
v -1.8 -0.8 -3.2
v 1.8 -0.8 -3.2
v 2 -0.8 -3.2
v 3.2 -0.8 -3.2
v -3.2 -0.7 3.2
v -2 -0.7 3.2
v -1.8 -0.7 3.2
v 1.8 -0.7 3.2
v 2 -0.7 3.2
v 3.2 -0.7 3.2
v -3.2 -0.7 2
v -2 -0.7 2
v 2 -0.7 2
v 3.2 -0.7 2
v -3.2 -0.7 1.8
v -1.8 -0.7 1.8
v 1.8 -0.7 1.8
v 3.2 -0.7 1.8
v -3.2 -0.7 -1.8
v -1.8 -0.7 -1.8
v 1.8 -0.7 -1.8
v 3.2 -0.7 -1.8
v -3.2 -0.7 -2
v -2 -0.7 -2
v 2 -0.7 -2
v 3.2 -0.7 -2
v -3.2 -0.7 -3.2
v -2 -0.7 -3.2
v -1.8 -0.7 -3.2
v 1.8 -0.7 -3.2
v 2 -0.7 -3.2
v 3.2 -0.7 -3.2

# faces
f 7/2/1 2/2/1 1/2/1
f 8/3/1 3/3/1 2/3/1
f 8/2/1 2/2/1 7/2/1
f 9/1/1 4/1/1 3/1/1
f 9/3/1 3/3/1 8/3/1
f 10/3/1 5/3/1 4/3/1
f 10/1/1 4/1/1 9/1/1
f 11/2/1 6/2/1 5/2/1
f 11/3/1 5/3/1 10/3/1
f 12/2/1 6/2/1 11/2/1
f 13/2/2 14/2/2 19/2/2
f 14/3/2 15/3/2 20/3/2
f 19/2/2 14/2/2 20/2/2
f 15/1/2 16/1/2 21/1/2
f 20/3/2 15/3/2 21/3/2
f 16/3/2 17/3/2 22/3/2
f 21/1/2 16/1/2 22/1/2
f 17/2/2 18/2/2 23/2/2
f 22/3/2 17/3/2 23/3/2
f 23/2/2 18/2/2 24/2/2
f 27/2/3 26/2/3 25/2/3
f 28/2/3 26/2/3 27/2/3
f 29/3/3 28/3/3 27/3/3
f 30/3/3 28/3/3 29/3/3
f 31/1/3 30/1/3 29/1/3
f 32/1/3 30/1/3 31/1/3
f 33/3/3 32/3/3 31/3/3
f 34/3/3 32/3/3 33/3/3
f 35/2/3 34/2/3 33/2/3
f 36/2/3 34/2/3 35/2/3
f 37/2/4 38/2/4 39/2/4
f 39/2/4 38/2/4 40/2/4
f 39/3/4 40/3/4 41/3/4
f 41/3/4 40/3/4 42/3/4
f 41/1/4 42/1/4 43/1/4
f 43/1/4 42/1/4 44/1/4
f 43/3/4 44/3/4 45/3/4
f 45/3/4 44/3/4 46/3/4
f 45/2/4 46/2/4 47/2/4
f 47/2/4 46/2/4 48/2/4
f 55/2/5 50/2/5 49/2/5
f 56/3/5 51/3/5 50/3/5
f 56/2/5 50/2/5 55/2/5
f 57/2/5 54/2/5 53/2/5
f 57/3/5 53/3/5 52/3/5
f 58/2/5 54/2/5 57/2/5
f 59/3/5 56/3/5 55/3/5
f 60/3/5 51/3/5 56/3/5
f 60/3/5 56/3/5 59/3/5
f 60/1/5 52/1/5 51/1/5
f 61/3/5 58/3/5 57/3/5
f 61/1/5 52/1/5 60/1/5
f 61/3/5 57/3/5 52/3/5
f 62/3/5 58/3/5 61/3/5
f 63/1/5 60/1/5 59/1/5
f 63/1/5 61/1/5 60/1/5
f 63/1/5 62/1/5 61/1/5
f 64/1/5 62/1/5 63/1/5
f 65/1/5 62/1/5 64/1/5
f 66/1/5 62/1/5 65/1/5
f 67/3/5 64/3/5 63/3/5
f 68/3/5 64/3/5 67/3/5
f 69/3/5 66/3/5 65/3/5
f 70/3/5 66/3/5 69/3/5
f 71/2/5 68/2/5 67/2/5
f 72/3/5 64/3/5 68/3/5
f 72/2/5 68/2/5 71/2/5
f 73/1/5 65/1/5 64/1/5
f 73/3/5 64/3/5 72/3/5
f 74/3/5 69/3/5 65/3/5
f 74/1/5 65/1/5 73/1/5
f 75/2/5 70/2/5 69/2/5
f 75/3/5 69/3/5 74/3/5
f 76/2/5 70/2/5 75/2/5
f 77/2/6 78/2/6 83/2/6
f 78/3/6 79/3/6 84/3/6
f 83/2/6 78/2/6 84/2/6
f 81/2/6 82/2/6 85/2/6
f 80/3/6 81/3/6 85/3/6
f 85/2/6 82/2/6 86/2/6
f 83/3/6 84/3/6 87/3/6
f 84/3/6 79/3/6 88/3/6
f 87/3/6 84/3/6 88/3/6
f 79/1/6 80/1/6 88/1/6
f 85/3/6 86/3/6 89/3/6
f 88/1/6 80/1/6 89/1/6
f 80/3/6 85/3/6 89/3/6
f 89/3/6 86/3/6 90/3/6
f 87/1/6 88/1/6 91/1/6
f 88/1/6 89/1/6 91/1/6
f 89/1/6 90/1/6 91/1/6
f 91/1/6 90/1/6 92/1/6
f 92/1/6 90/1/6 93/1/6
f 93/1/6 90/1/6 94/1/6
f 91/3/6 92/3/6 95/3/6
f 95/3/6 92/3/6 96/3/6
f 93/3/6 94/3/6 97/3/6
f 97/3/6 94/3/6 98/3/6
f 95/2/6 96/2/6 99/2/6
f 96/3/6 92/3/6 100/3/6
f 99/2/6 96/2/6 100/2/6
f 92/1/6 93/1/6 101/1/6
f 100/3/6 92/3/6 101/3/6
f 93/3/6 97/3/6 102/3/6
f 101/1/6 93/1/6 102/1/6
f 97/2/6 98/2/6 103/2/6
f 102/3/6 97/3/6 103/3/6
f 103/2/6 98/2/6 104/2/6
