# MagicaVoxel @ Ephtracy

# group
o 

# material
mtllib TrafficLight_001.mtl
usemtl palette

# normals
vn -1 0 0
vn 1 0 0
vn 0 0 1
vn 0 0 -1
vn 0 -1 0
vn 0 1 0

# texcoords
vt 0.00195312 0.5
vt 0.00585938 0.5
vt 0.0175781 0.5
vt 0.943359 0.5
vt 0.947266 0.5

# verts
v -0.5 3.6 -2.8
v -0.5 3.6 -3.2
v -0.5 5.6 -2.6
v -0.5 5.6 -2.8
v -0.5 5.8 -2.5
v -0.5 5.8 -2.6
v -0.5 5.9 -2.4
v -0.5 5.9 -2.5
v -0.5 6.1 -2.4
v -0.5 6.1 -2.8
v -0.5 6.3 -2.8
v -0.5 6.3 -3.2
v -0.4 4.5 -2.7
v -0.4 4.5 -2.8
v -0.4 4.6 -2.7
v -0.4 4.6 -2.8
v -0.4 5.3 -2.7
v -0.4 5.3 -2.8
v -0.4 5.4 -2.7
v -0.4 5.4 -2.8
v -0.4 6.3 -2.8
v -0.4 6.3 -3.2
v -0.4 6.4 -2.8
v -0.4 6.4 -3.2
v -0.3 0 -2.7
v -0.3 0 -3.2
v -0.3 0.1 -2.7
v -0.3 0.1 -3.2
v -0.3 6.1 -2.4
v -0.3 6.1 -2.8
v -0.3 6.2 -2.4
v -0.3 6.2 -2.8
v -0.2 6.2 -2.4
v -0.2 6.2 -2.8
v -0.2 6.3 -2.4
v -0.2 6.3 -2.8
v -0.0999999 0.1 -2.9
v -0.0999999 0.1 -3.1
v -0.0999999 3.6 -2.9
v -0.0999999 3.6 -3.1
v 0.1 3.8 -2.8
v 0.1 3.8 -2.9
v 0.1 3.9 -2.8
v 0.1 3.9 -2.9
v 0.1 4.3 -2.8
v 0.1 4.3 -2.9
v 0.1 4.4 -2.8
v 0.1 4.4 -2.9
v 0.1 4.6 -2.8
v 0.1 4.6 -2.9
v 0.1 4.7 -2.8
v 0.1 4.7 -2.9
v 0.1 5.1 -2.8
v 0.1 5.1 -2.9
v 0.1 5.2 -2.8
v 0.1 5.2 -2.9
v 0.1 5.4 -2.8
v 0.1 5.4 -2.9
v 0.1 5.5 -2.8
v 0.1 5.5 -2.9
v 0.1 5.9 -2.8
v 0.1 5.9 -2.9
v 0.1 6 -2.8
v 0.1 6 -2.9
v 0.2 3.9 -2.8
v 0.2 3.9 -2.9
v 0.2 4 -2.8
v 0.2 4 -2.9
v 0.2 4.2 -2.8
v 0.2 4.2 -2.9
v 0.2 4.3 -2.8
v 0.2 4.3 -2.9
v 0.2 4.7 -2.8
v 0.2 4.7 -2.9
v 0.2 4.8 -2.8
v 0.2 4.8 -2.9
v 0.2 5 -2.8
v 0.2 5 -2.9
v 0.2 5.1 -2.8
v 0.2 5.1 -2.9
v 0.2 5.5 -2.8
v 0.2 5.5 -2.9
v 0.2 5.6 -2.8
v 0.2 5.6 -2.9
v 0.2 5.8 -2.8
v 0.2 5.8 -2.9
v 0.2 5.9 -2.8
v 0.2 5.9 -2.9
v 0.2 6 -2.4
v 0.2 6 -2.6
v 0.2 6.1 -2.6
v 0.2 6.1 -2.8
v 0.2 6.2 -2.4
v 0.2 6.2 -2.8
v 0.3 4 -2.8
v 0.3 4 -2.9
v 0.3 4.2 -2.8
v 0.3 4.2 -2.9
v 0.3 4.5 -2.7
v 0.3 4.5 -2.8
v 0.3 4.6 -2.7
v 0.3 4.6 -2.8
v 0.3 4.8 -2.8
v 0.3 4.8 -2.9
v 0.3 5 -2.8
v 0.3 5 -2.9
v 0.3 5.3 -2.7
v 0.3 5.3 -2.8
v 0.3 5.4 -2.7
v 0.3 5.4 -2.8
v 0.3 5.6 -2.8
v 0.3 5.6 -2.9
v 0.3 5.8 -2.8
v 0.3 5.8 -2.9
v 0.3 6 -2.6
v 0.3 6 -2.8
v 0.3 6.1 -2.6
v 0.3 6.1 -2.8
v 0.4 5.6 -2.6
v 0.4 5.6 -2.8
v 0.4 5.8 -2.5
v 0.4 5.8 -2.6
v 0.4 5.9 -2.4
v 0.4 5.9 -2.5
v 0.4 6 -2.4
v 0.4 6 -2.8
v -0.4 5.6 -2.6
v -0.4 5.6 -2.8
v -0.4 5.8 -2.5
v -0.4 5.8 -2.6
v -0.4 5.9 -2.4
v -0.4 5.9 -2.5
v -0.4 6 -2.4
v -0.4 6 -2.8
v -0.3 4 -2.8
v -0.3 4 -2.9
v -0.3 4.2 -2.8
v -0.3 4.2 -2.9
v -0.3 4.5 -2.7
v -0.3 4.5 -2.8
v -0.3 4.6 -2.7
v -0.3 4.6 -2.8
v -0.3 4.8 -2.8
v -0.3 4.8 -2.9
v -0.3 5 -2.8
v -0.3 5 -2.9
v -0.3 5.3 -2.7
v -0.3 5.3 -2.8
v -0.3 5.4 -2.7
v -0.3 5.4 -2.8
v -0.3 5.6 -2.8
v -0.3 5.6 -2.9
v -0.3 5.8 -2.8
v -0.3 5.8 -2.9
v -0.3 6 -2.4
v -0.3 6 -2.8
v -0.3 6.1 -2.4
v -0.3 6.1 -2.8
v -0.2 3.9 -2.8
v -0.2 3.9 -2.9
v -0.2 4 -2.8
v -0.2 4 -2.9
v -0.2 4.2 -2.8
v -0.2 4.2 -2.9
v -0.2 4.3 -2.8
v -0.2 4.3 -2.9
v -0.2 4.7 -2.8
v -0.2 4.7 -2.9
v -0.2 4.8 -2.8
v -0.2 4.8 -2.9
v -0.2 5 -2.8
v -0.2 5 -2.9
v -0.2 5.1 -2.8
v -0.2 5.1 -2.9
v -0.2 5.5 -2.8
v -0.2 5.5 -2.9
v -0.2 5.6 -2.8
v -0.2 5.6 -2.9
v -0.2 5.8 -2.8
v -0.2 5.8 -2.9
v -0.2 5.9 -2.8
v -0.2 5.9 -2.9
v -0.2 6.1 -2.4
v -0.2 6.1 -2.8
v -0.2 6.2 -2.4
v -0.2 6.2 -2.8
v -0.0999999 3.8 -2.8
v -0.0999999 3.8 -2.9
v -0.0999999 3.9 -2.8
v -0.0999999 3.9 -2.9
v -0.0999999 4.3 -2.8
v -0.0999999 4.3 -2.9
v -0.0999999 4.4 -2.8
v -0.0999999 4.4 -2.9
v -0.0999999 4.6 -2.8
v -0.0999999 4.6 -2.9
v -0.0999999 4.7 -2.8
v -0.0999999 4.7 -2.9
v -0.0999999 5.1 -2.8
v -0.0999999 5.1 -2.9
v -0.0999999 5.2 -2.8
v -0.0999999 5.2 -2.9
v -0.0999999 5.4 -2.8
v -0.0999999 5.4 -2.9
v -0.0999999 5.5 -2.8
v -0.0999999 5.5 -2.9
v -0.0999999 5.9 -2.8
v -0.0999999 5.9 -2.9
v -0.0999999 6 -2.8
v -0.0999999 6 -2.9
v 0.1 0.1 -2.9
v 0.1 0.1 -3.1
v 0.1 3.6 -2.9
v 0.1 3.6 -3.1
v 0.2 6.2 -2.4
v 0.2 6.2 -2.8
v 0.2 6.3 -2.4
v 0.2 6.3 -2.8
v 0.3 0 -2.7
v 0.3 0 -3.2
v 0.3 0.1 -2.7
v 0.3 0.1 -3.2
v 0.3 6.1 -2.4
v 0.3 6.1 -2.8
v 0.3 6.2 -2.4
v 0.3 6.2 -2.8
v 0.4 4.5 -2.7
v 0.4 4.5 -2.8
v 0.4 4.6 -2.7
v 0.4 4.6 -2.8
v 0.4 5.3 -2.7
v 0.4 5.3 -2.8
v 0.4 5.4 -2.7
v 0.4 5.4 -2.8
v 0.4 6.3 -2.8
v 0.4 6.3 -3.2
v 0.4 6.4 -2.8
v 0.4 6.4 -3.2
v 0.5 3.6 -2.8
v 0.5 3.6 -3.2
v 0.5 5.6 -2.6
v 0.5 5.6 -2.8
v 0.5 5.8 -2.5
v 0.5 5.8 -2.6
v 0.5 5.9 -2.4
v 0.5 5.9 -2.5
v 0.5 6.1 -2.4
v 0.5 6.1 -2.8
v 0.5 6.3 -2.8
v 0.5 6.3 -3.2
v -0.5 5.9 -2.4
v -0.5 6.1 -2.4
v -0.4 5.9 -2.4
v -0.4 6 -2.4
v -0.3 6 -2.4
v -0.3 6.1 -2.4
v -0.3 6.2 -2.4
v -0.2 6.1 -2.4
v -0.2 6.2 -2.4
v -0.2 6.3 -2.4
v 0.2 6 -2.4
v 0.2 6.2 -2.4
v 0.2 6.3 -2.4
v 0.3 6.1 -2.4
v 0.3 6.2 -2.4
v 0.4 5.9 -2.4
v 0.4 6 -2.4
v 0.5 5.9 -2.4
v 0.5 6.1 -2.4
v -0.5 5.8 -2.5
v -0.5 5.9 -2.5
v -0.4 5.8 -2.5
v -0.4 5.9 -2.5
v 0.4 5.8 -2.5
v 0.4 5.9 -2.5
v 0.5 5.8 -2.5
v 0.5 5.9 -2.5
v -0.5 5.6 -2.6
v -0.5 5.8 -2.6
v -0.4 5.6 -2.6
v -0.4 5.8 -2.6
v 0.4 5.6 -2.6
v 0.4 5.8 -2.6
v 0.5 5.6 -2.6
v 0.5 5.8 -2.6
v -0.4 4.5 -2.7
v -0.4 4.6 -2.7
v -0.4 5.3 -2.7
v -0.4 5.4 -2.7
v -0.3 0 -2.7
v -0.3 0.1 -2.7
v -0.3 4.5 -2.7
v -0.3 4.6 -2.7
v -0.3 5.3 -2.7
v -0.3 5.4 -2.7
v 0.3 0 -2.7
v 0.3 0.1 -2.7
v 0.3 4.5 -2.7
v 0.3 4.6 -2.7
v 0.3 5.3 -2.7
v 0.3 5.4 -2.7
v 0.4 4.5 -2.7
v 0.4 4.6 -2.7
v 0.4 5.3 -2.7
v 0.4 5.4 -2.7
v -0.5 3.6 -2.8
v -0.5 5.6 -2.8
v -0.5 6.1 -2.8
v -0.5 6.3 -2.8
v -0.4 4.5 -2.8
v -0.4 4.6 -2.8
v -0.4 5.3 -2.8
v -0.4 5.4 -2.8
v -0.4 5.6 -2.8
v -0.4 6 -2.8
v -0.4 6.3 -2.8
v -0.4 6.4 -2.8
v -0.3 4 -2.8
v -0.3 4.2 -2.8
v -0.3 4.5 -2.8
v -0.3 4.6 -2.8
v -0.3 4.8 -2.8
v -0.3 5 -2.8
v -0.3 5.3 -2.8
v -0.3 5.4 -2.8
v -0.3 5.6 -2.8
v -0.3 5.8 -2.8
v -0.3 6 -2.8
v -0.3 6.1 -2.8
v -0.3 6.2 -2.8
v -0.2 3.9 -2.8
v -0.2 4 -2.8
v -0.2 4.2 -2.8
v -0.2 4.3 -2.8
v -0.2 4.7 -2.8
v -0.2 4.8 -2.8
v -0.2 5 -2.8
v -0.2 5.1 -2.8
v -0.2 5.5 -2.8
v -0.2 5.6 -2.8
v -0.2 5.8 -2.8
v -0.2 5.9 -2.8
v -0.2 6.1 -2.8
v -0.2 6.2 -2.8
v -0.2 6.3 -2.8
v -0.0999999 3.8 -2.8
v -0.0999999 3.9 -2.8
v -0.0999999 4.3 -2.8
v -0.0999999 4.4 -2.8
v -0.0999999 4.6 -2.8
v -0.0999999 4.7 -2.8
v -0.0999999 5.1 -2.8
v -0.0999999 5.2 -2.8
v -0.0999999 5.4 -2.8
v -0.0999999 5.5 -2.8
v -0.0999999 5.9 -2.8
v -0.0999999 6 -2.8
v 0.1 3.8 -2.8
v 0.1 3.9 -2.8
v 0.1 4.3 -2.8
v 0.1 4.4 -2.8
v 0.1 4.6 -2.8
v 0.1 4.7 -2.8
v 0.1 5.1 -2.8
v 0.1 5.2 -2.8
v 0.1 5.4 -2.8
v 0.1 5.5 -2.8
v 0.1 5.9 -2.8
v 0.1 6 -2.8
v 0.2 3.9 -2.8
v 0.2 4 -2.8
v 0.2 4.2 -2.8
v 0.2 4.3 -2.8
v 0.2 4.7 -2.8
v 0.2 4.8 -2.8
v 0.2 5 -2.8
v 0.2 5.1 -2.8
v 0.2 5.5 -2.8
v 0.2 5.6 -2.8
v 0.2 5.8 -2.8
v 0.2 5.9 -2.8
v 0.2 6.1 -2.8
v 0.2 6.2 -2.8
v 0.2 6.3 -2.8
v 0.3 4 -2.8
v 0.3 4.2 -2.8
v 0.3 4.5 -2.8
v 0.3 4.6 -2.8
v 0.3 4.8 -2.8
v 0.3 5 -2.8
v 0.3 5.3 -2.8
v 0.3 5.4 -2.8
v 0.3 5.6 -2.8
v 0.3 5.8 -2.8
v 0.3 6 -2.8
v 0.3 6.1 -2.8
v 0.3 6.2 -2.8
v 0.4 4.5 -2.8
v 0.4 4.6 -2.8
v 0.4 5.3 -2.8
v 0.4 5.4 -2.8
v 0.4 5.6 -2.8
v 0.4 6 -2.8
v 0.4 6.3 -2.8
v 0.4 6.4 -2.8
v 0.5 3.6 -2.8
v 0.5 5.6 -2.8
v 0.5 6.1 -2.8
v 0.5 6.3 -2.8
v -0.3 4 -2.9
v -0.3 4.2 -2.9
v -0.3 4.8 -2.9
v -0.3 5 -2.9
v -0.3 5.6 -2.9
v -0.3 5.8 -2.9
v -0.2 3.9 -2.9
v -0.2 4 -2.9
v -0.2 4.2 -2.9
v -0.2 4.3 -2.9
v -0.2 4.7 -2.9
v -0.2 4.8 -2.9
v -0.2 5 -2.9
v -0.2 5.1 -2.9
v -0.2 5.5 -2.9
v -0.2 5.6 -2.9
v -0.2 5.8 -2.9
v -0.2 5.9 -2.9
v -0.0999999 0.1 -2.9
v -0.0999999 3.6 -2.9
v -0.0999999 3.8 -2.9
v -0.0999999 3.9 -2.9
v -0.0999999 4.3 -2.9
v -0.0999999 4.4 -2.9
v -0.0999999 4.6 -2.9
v -0.0999999 4.7 -2.9
v -0.0999999 5.1 -2.9
v -0.0999999 5.2 -2.9
v -0.0999999 5.4 -2.9
v -0.0999999 5.5 -2.9
v -0.0999999 5.9 -2.9
v -0.0999999 6 -2.9
v 0.1 0.1 -2.9
v 0.1 3.6 -2.9
v 0.1 3.8 -2.9
v 0.1 3.9 -2.9
v 0.1 4.3 -2.9
v 0.1 4.4 -2.9
v 0.1 4.6 -2.9
v 0.1 4.7 -2.9
v 0.1 5.1 -2.9
v 0.1 5.2 -2.9
v 0.1 5.4 -2.9
v 0.1 5.5 -2.9
v 0.1 5.9 -2.9
v 0.1 6 -2.9
v 0.2 3.9 -2.9
v 0.2 4 -2.9
v 0.2 4.2 -2.9
v 0.2 4.3 -2.9
v 0.2 4.7 -2.9
v 0.2 4.8 -2.9
v 0.2 5 -2.9
v 0.2 5.1 -2.9
v 0.2 5.5 -2.9
v 0.2 5.6 -2.9
v 0.2 5.8 -2.9
v 0.2 5.9 -2.9
v 0.3 4 -2.9
v 0.3 4.2 -2.9
v 0.3 4.8 -2.9
v 0.3 5 -2.9
v 0.3 5.6 -2.9
v 0.3 5.8 -2.9
v 0.2 6 -2.6
v 0.2 6.1 -2.6
v 0.3 6 -2.6
v 0.3 6.1 -2.6
v -0.0999999 0.1 -3.1
v -0.0999999 3.6 -3.1
v 0.1 0.1 -3.1
v 0.1 3.6 -3.1
v -0.5 3.6 -3.2
v -0.5 6.3 -3.2
v -0.4 6.3 -3.2
v -0.4 6.4 -3.2
v -0.3 0 -3.2
v -0.3 0.1 -3.2
v 0.3 0 -3.2
v 0.3 0.1 -3.2
v 0.4 6.3 -3.2
v 0.4 6.4 -3.2
v 0.5 3.6 -3.2
v 0.5 6.3 -3.2
v -0.3 0 -2.7
v 0.3 0 -2.7
v -0.3 0 -3.2
v 0.3 0 -3.2
v -0.5 3.6 -2.8
v 0.5 3.6 -2.8
v -0.0999999 3.6 -2.9
v 0.1 3.6 -2.9
v -0.0999999 3.6 -3.1
v 0.1 3.6 -3.1
v -0.5 3.6 -3.2
v 0.5 3.6 -3.2
v -0.3 4.2 -2.8
v -0.2 4.2 -2.8
v 0.2 4.2 -2.8
v 0.3 4.2 -2.8
v -0.3 4.2 -2.9
v -0.2 4.2 -2.9
v 0.2 4.2 -2.9
v 0.3 4.2 -2.9
v -0.2 4.3 -2.8
v -0.0999999 4.3 -2.8
v 0.1 4.3 -2.8
v 0.2 4.3 -2.8
v -0.2 4.3 -2.9
v -0.0999999 4.3 -2.9
v 0.1 4.3 -2.9
v 0.2 4.3 -2.9
v -0.0999999 4.4 -2.8
v 0.1 4.4 -2.8
v -0.0999999 4.4 -2.9
v 0.1 4.4 -2.9
v -0.4 4.5 -2.7
v -0.3 4.5 -2.7
v 0.3 4.5 -2.7
v 0.4 4.5 -2.7
v -0.4 4.5 -2.8
v -0.3 4.5 -2.8
v 0.3 4.5 -2.8
v 0.4 4.5 -2.8
v -0.3 5 -2.8
v -0.2 5 -2.8
v 0.2 5 -2.8
v 0.3 5 -2.8
v -0.3 5 -2.9
v -0.2 5 -2.9
v 0.2 5 -2.9
v 0.3 5 -2.9
v -0.2 5.1 -2.8
v -0.0999999 5.1 -2.8
v 0.1 5.1 -2.8
v 0.2 5.1 -2.8
v -0.2 5.1 -2.9
v -0.0999999 5.1 -2.9
v 0.1 5.1 -2.9
v 0.2 5.1 -2.9
v -0.0999999 5.2 -2.8
v 0.1 5.2 -2.8
v -0.0999999 5.2 -2.9
v 0.1 5.2 -2.9
v -0.4 5.3 -2.7
v -0.3 5.3 -2.7
v 0.3 5.3 -2.7
v 0.4 5.3 -2.7
v -0.4 5.3 -2.8
v -0.3 5.3 -2.8
v 0.3 5.3 -2.8
v 0.4 5.3 -2.8
v -0.5 5.6 -2.6
v -0.4 5.6 -2.6
v 0.4 5.6 -2.6
v 0.5 5.6 -2.6
v -0.5 5.6 -2.8
v -0.4 5.6 -2.8
v 0.4 5.6 -2.8
v 0.5 5.6 -2.8
v -0.5 5.8 -2.5
v -0.4 5.8 -2.5
v 0.4 5.8 -2.5
v 0.5 5.8 -2.5
v -0.5 5.8 -2.6
v -0.4 5.8 -2.6
v 0.4 5.8 -2.6
v 0.5 5.8 -2.6
v -0.3 5.8 -2.8
v -0.2 5.8 -2.8
v 0.2 5.8 -2.8
v 0.3 5.8 -2.8
v -0.3 5.8 -2.9
v -0.2 5.8 -2.9
v 0.2 5.8 -2.9
v 0.3 5.8 -2.9
v -0.5 5.9 -2.4
v -0.4 5.9 -2.4
v 0.4 5.9 -2.4
v 0.5 5.9 -2.4
v -0.5 5.9 -2.5
v -0.4 5.9 -2.5
v 0.4 5.9 -2.5
v 0.5 5.9 -2.5
v -0.2 5.9 -2.8
v -0.0999999 5.9 -2.8
v 0.1 5.9 -2.8
v 0.2 5.9 -2.8
v -0.2 5.9 -2.9
v -0.0999999 5.9 -2.9
v 0.1 5.9 -2.9
v 0.2 5.9 -2.9
v -0.4 6 -2.4
v -0.3 6 -2.4
v 0.2 6 -2.4
v 0.4 6 -2.4
v 0.2 6 -2.6
v 0.3 6 -2.6
v -0.4 6 -2.8
v -0.3 6 -2.8
v -0.0999999 6 -2.8
v 0.1 6 -2.8
v 0.3 6 -2.8
v 0.4 6 -2.8
v -0.0999999 6 -2.9
v 0.1 6 -2.9
v -0.3 6.1 -2.4
v -0.2 6.1 -2.4
v 0.2 6.1 -2.6
v 0.3 6.1 -2.6
v -0.3 6.1 -2.8
v -0.2 6.1 -2.8
v 0.2 6.1 -2.8
v 0.3 6.1 -2.8
v -0.2 6.2 -2.4
v 0.2 6.2 -2.4
v -0.2 6.2 -2.8
v 0.2 6.2 -2.8
v -0.3 0.1 -2.7
v 0.3 0.1 -2.7
v -0.0999999 0.1 -2.9
v 0.1 0.1 -2.9
v -0.0999999 0.1 -3.1
v 0.1 0.1 -3.1
v -0.3 0.1 -3.2
v 0.3 0.1 -3.2
v -0.0999999 3.8 -2.8
v 0.1 3.8 -2.8
v -0.0999999 3.8 -2.9
v 0.1 3.8 -2.9
v -0.2 3.9 -2.8
v -0.0999999 3.9 -2.8
v 0.1 3.9 -2.8
v 0.2 3.9 -2.8
v -0.2 3.9 -2.9
v -0.0999999 3.9 -2.9
v 0.1 3.9 -2.9
v 0.2 3.9 -2.9
v -0.3 4 -2.8
v -0.2 4 -2.8
v 0.2 4 -2.8
v 0.3 4 -2.8
v -0.3 4 -2.9
v -0.2 4 -2.9
v 0.2 4 -2.9
v 0.3 4 -2.9
v -0.4 4.6 -2.7
v -0.3 4.6 -2.7
v 0.3 4.6 -2.7
v 0.4 4.6 -2.7
v -0.4 4.6 -2.8
v -0.3 4.6 -2.8
v -0.0999999 4.6 -2.8
v 0.1 4.6 -2.8
v 0.3 4.6 -2.8
v 0.4 4.6 -2.8
v -0.0999999 4.6 -2.9
v 0.1 4.6 -2.9
v -0.2 4.7 -2.8
v -0.0999999 4.7 -2.8
v 0.1 4.7 -2.8
v 0.2 4.7 -2.8
v -0.2 4.7 -2.9
v -0.0999999 4.7 -2.9
v 0.1 4.7 -2.9
v 0.2 4.7 -2.9
v -0.3 4.8 -2.8
v -0.2 4.8 -2.8
v 0.2 4.8 -2.8
v 0.3 4.8 -2.8
v -0.3 4.8 -2.9
v -0.2 4.8 -2.9
v 0.2 4.8 -2.9
v 0.3 4.8 -2.9
v -0.4 5.4 -2.7
v -0.3 5.4 -2.7
v 0.3 5.4 -2.7
v 0.4 5.4 -2.7
v -0.4 5.4 -2.8
v -0.3 5.4 -2.8
v -0.0999999 5.4 -2.8
v 0.1 5.4 -2.8
v 0.3 5.4 -2.8
v 0.4 5.4 -2.8
v -0.0999999 5.4 -2.9
v 0.1 5.4 -2.9
v -0.2 5.5 -2.8
v -0.0999999 5.5 -2.8
v 0.1 5.5 -2.8
v 0.2 5.5 -2.8
v -0.2 5.5 -2.9
v -0.0999999 5.5 -2.9
v 0.1 5.5 -2.9
v 0.2 5.5 -2.9
v -0.3 5.6 -2.8
v -0.2 5.6 -2.8
v 0.2 5.6 -2.8
v 0.3 5.6 -2.8
v -0.3 5.6 -2.9
v -0.2 5.6 -2.9
v 0.2 5.6 -2.9
v 0.3 5.6 -2.9
v -0.5 6.1 -2.4
v -0.3 6.1 -2.4
v 0.3 6.1 -2.4
v 0.5 6.1 -2.4
v -0.5 6.1 -2.8
v -0.3 6.1 -2.8
v 0.3 6.1 -2.8
v 0.5 6.1 -2.8
v -0.3 6.2 -2.4
v -0.2 6.2 -2.4
v 0.2 6.2 -2.4
v 0.3 6.2 -2.4
v -0.3 6.2 -2.8
v -0.2 6.2 -2.8
v 0.2 6.2 -2.8
v 0.3 6.2 -2.8
v -0.2 6.3 -2.4
v 0.2 6.3 -2.4
v -0.5 6.3 -2.8
v -0.4 6.3 -2.8
v -0.2 6.3 -2.8
v 0.2 6.3 -2.8
v 0.4 6.3 -2.8
v 0.5 6.3 -2.8
v -0.5 6.3 -3.2
v -0.4 6.3 -3.2
v 0.4 6.3 -3.2
v 0.5 6.3 -3.2
v -0.4 6.4 -2.8
v 0.4 6.4 -2.8
v -0.4 6.4 -3.2
v 0.4 6.4 -3.2

# faces
f 4/4/1 2/4/1 1/4/1
f 6/4/1 4/4/1 3/4/1
f 8/4/1 6/4/1 5/4/1
f 9/4/1 8/4/1 7/4/1
f 10/4/1 2/4/1 4/4/1
f 10/4/1 8/4/1 9/4/1
f 10/4/1 4/4/1 6/4/1
f 10/4/1 6/4/1 8/4/1
f 11/4/1 2/4/1 10/4/1
f 12/4/1 2/4/1 11/4/1
f 15/5/1 14/5/1 13/5/1
f 16/5/1 14/5/1 15/5/1
f 19/5/1 18/5/1 17/5/1
f 20/5/1 18/5/1 19/5/1
f 23/4/1 22/4/1 21/4/1
f 24/4/1 22/4/1 23/4/1
f 27/4/1 26/4/1 25/4/1
f 28/4/1 26/4/1 27/4/1
f 31/4/1 30/4/1 29/4/1
f 32/4/1 30/4/1 31/4/1
f 35/4/1 34/4/1 33/4/1
f 36/4/1 34/4/1 35/4/1
f 39/4/1 38/4/1 37/4/1
f 40/4/1 38/4/1 39/4/1
f 43/4/1 42/4/1 41/4/1
f 44/4/1 42/4/1 43/4/1
f 47/4/1 46/4/1 45/4/1
f 48/4/1 46/4/1 47/4/1
f 51/4/1 50/4/1 49/4/1
f 52/4/1 50/4/1 51/4/1
f 55/4/1 54/4/1 53/4/1
f 56/4/1 54/4/1 55/4/1
f 59/4/1 58/4/1 57/4/1
f 60/4/1 58/4/1 59/4/1
f 63/4/1 62/4/1 61/4/1
f 64/4/1 62/4/1 63/4/1
f 67/4/1 66/4/1 65/4/1
f 68/4/1 66/4/1 67/4/1
f 71/4/1 70/4/1 69/4/1
f 72/4/1 70/4/1 71/4/1
f 75/4/1 74/4/1 73/4/1
f 76/4/1 74/4/1 75/4/1
f 79/4/1 78/4/1 77/4/1
f 80/4/1 78/4/1 79/4/1
f 83/4/1 82/4/1 81/4/1
f 84/4/1 82/4/1 83/4/1
f 87/4/1 86/4/1 85/4/1
f 88/4/1 86/4/1 87/4/1
f 91/4/1 90/4/1 89/4/1
f 93/4/1 91/4/1 89/4/1
f 93/4/1 92/4/1 91/4/1
f 94/4/1 92/4/1 93/4/1
f 97/4/1 96/4/1 95/4/1
f 98/4/1 96/4/1 97/4/1
f 101/5/1 100/5/1 99/5/1
f 102/5/1 100/5/1 101/5/1
f 105/4/1 104/4/1 103/4/1
f 106/4/1 104/4/1 105/4/1
f 109/5/1 108/5/1 107/5/1
f 110/5/1 108/5/1 109/5/1
f 113/4/1 112/4/1 111/4/1
f 114/4/1 112/4/1 113/4/1
f 117/4/1 116/4/1 115/4/1
f 118/4/1 116/4/1 117/4/1
f 122/4/1 120/4/1 119/4/1
f 124/4/1 122/4/1 121/4/1
f 125/4/1 124/4/1 123/4/1
f 126/4/1 120/4/1 122/4/1
f 126/4/1 124/4/1 125/4/1
f 126/4/1 122/4/1 124/4/1
f 127/4/2 128/4/2 130/4/2
f 129/4/2 130/4/2 132/4/2
f 131/4/2 132/4/2 133/4/2
f 130/4/2 128/4/2 134/4/2
f 133/4/2 132/4/2 134/4/2
f 132/4/2 130/4/2 134/4/2
f 135/4/2 136/4/2 137/4/2
f 137/4/2 136/4/2 138/4/2
f 139/5/2 140/5/2 141/5/2
f 141/5/2 140/5/2 142/5/2
f 143/4/2 144/4/2 145/4/2
f 145/4/2 144/4/2 146/4/2
f 147/5/2 148/5/2 149/5/2
f 149/5/2 148/5/2 150/5/2
f 151/4/2 152/4/2 153/4/2
f 153/4/2 152/4/2 154/4/2
f 155/4/2 156/4/2 157/4/2
f 157/4/2 156/4/2 158/4/2
f 159/4/2 160/4/2 161/4/2
f 161/4/2 160/4/2 162/4/2
f 163/4/2 164/4/2 165/4/2
f 165/4/2 164/4/2 166/4/2
f 167/4/2 168/4/2 169/4/2
f 169/4/2 168/4/2 170/4/2
f 171/4/2 172/4/2 173/4/2
f 173/4/2 172/4/2 174/4/2
f 175/4/2 176/4/2 177/4/2
f 177/4/2 176/4/2 178/4/2
f 179/4/2 180/4/2 181/4/2
f 181/4/2 180/4/2 182/4/2
f 183/4/2 184/4/2 185/4/2
f 185/4/2 184/4/2 186/4/2
f 187/4/2 188/4/2 189/4/2
f 189/4/2 188/4/2 190/4/2
f 191/4/2 192/4/2 193/4/2
f 193/4/2 192/4/2 194/4/2
f 195/4/2 196/4/2 197/4/2
f 197/4/2 196/4/2 198/4/2
f 199/4/2 200/4/2 201/4/2
f 201/4/2 200/4/2 202/4/2
f 203/4/2 204/4/2 205/4/2
f 205/4/2 204/4/2 206/4/2
f 207/4/2 208/4/2 209/4/2
f 209/4/2 208/4/2 210/4/2
f 211/4/2 212/4/2 213/4/2
f 213/4/2 212/4/2 214/4/2
f 215/4/2 216/4/2 217/4/2
f 217/4/2 216/4/2 218/4/2
f 219/4/2 220/4/2 221/4/2
f 221/4/2 220/4/2 222/4/2
f 223/4/2 224/4/2 225/4/2
f 225/4/2 224/4/2 226/4/2
f 227/5/2 228/5/2 229/5/2
f 229/5/2 228/5/2 230/5/2
f 231/5/2 232/5/2 233/5/2
f 233/5/2 232/5/2 234/5/2
f 235/4/2 236/4/2 237/4/2
f 237/4/2 236/4/2 238/4/2
f 239/4/2 240/4/2 242/4/2
f 241/4/2 242/4/2 244/4/2
f 243/4/2 244/4/2 246/4/2
f 245/4/2 246/4/2 247/4/2
f 242/4/2 240/4/2 248/4/2
f 247/4/2 246/4/2 248/4/2
f 244/4/2 242/4/2 248/4/2
f 246/4/2 244/4/2 248/4/2
f 248/4/2 240/4/2 249/4/2
f 249/4/2 240/4/2 250/4/2
f 253/4/3 252/4/3 251/4/3
f 254/4/3 252/4/3 253/4/3
f 255/4/3 252/4/3 254/4/3
f 256/4/3 252/4/3 255/4/3
f 258/4/3 257/4/3 256/4/3
f 259/4/3 257/4/3 258/4/3
f 262/4/3 260/4/3 259/4/3
f 263/4/3 260/4/3 262/4/3
f 264/4/3 262/4/3 261/4/3
f 265/4/3 262/4/3 264/4/3
f 267/4/3 264/4/3 261/4/3
f 268/4/3 267/4/3 266/4/3
f 269/4/3 264/4/3 267/4/3
f 269/4/3 267/4/3 268/4/3
f 272/4/3 271/4/3 270/4/3
f 273/4/3 271/4/3 272/4/3
f 276/4/3 275/4/3 274/4/3
f 277/4/3 275/4/3 276/4/3
f 280/4/3 279/4/3 278/4/3
f 281/4/3 279/4/3 280/4/3
f 284/4/3 283/4/3 282/4/3
f 285/4/3 283/4/3 284/4/3
f 292/5/3 287/5/3 286/5/3
f 293/5/3 287/5/3 292/5/3
f 294/5/3 289/5/3 288/5/3
f 295/5/3 289/5/3 294/5/3
f 296/4/3 291/4/3 290/4/3
f 297/4/3 291/4/3 296/4/3
f 302/5/3 299/5/3 298/5/3
f 303/5/3 299/5/3 302/5/3
f 304/5/3 301/5/3 300/5/3
f 305/5/3 301/5/3 304/5/3
f 310/4/3 307/4/3 306/4/3
f 311/4/3 307/4/3 310/4/3
f 312/4/3 307/4/3 311/4/3
f 313/4/3 307/4/3 312/4/3
f 314/4/3 307/4/3 313/4/3
f 316/4/3 309/4/3 308/4/3
f 318/4/3 310/4/3 306/4/3
f 319/4/3 310/4/3 318/4/3
f 320/4/3 310/4/3 319/4/3
f 321/4/3 312/4/3 311/4/3
f 322/4/3 312/4/3 321/4/3
f 323/4/3 312/4/3 322/4/3
f 324/4/3 312/4/3 323/4/3
f 325/4/3 315/4/3 314/4/3
f 325/4/3 314/4/3 313/4/3
f 326/4/3 315/4/3 325/4/3
f 327/4/3 315/4/3 326/4/3
f 328/4/3 315/4/3 327/4/3
f 329/4/3 317/4/3 316/4/3
f 329/4/3 316/4/3 308/4/3
f 330/4/3 317/4/3 329/4/3
f 331/4/3 318/4/3 306/4/3
f 332/4/3 318/4/3 331/4/3
f 333/4/3 320/4/3 319/4/3
f 333/4/3 321/4/3 320/4/3
f 333/4/3 322/4/3 321/4/3
f 334/4/3 322/4/3 333/4/3
f 335/4/3 322/4/3 334/4/3
f 336/4/3 322/4/3 335/4/3
f 337/4/3 324/4/3 323/4/3
f 337/4/3 326/4/3 325/4/3
f 337/4/3 325/4/3 324/4/3
f 338/4/3 326/4/3 337/4/3
f 339/4/3 326/4/3 338/4/3
f 340/4/3 326/4/3 339/4/3
f 341/4/3 328/4/3 327/4/3
f 341/4/3 329/4/3 328/4/3
f 342/4/3 329/4/3 341/4/3
f 343/4/3 329/4/3 342/4/3
f 344/4/3 317/4/3 330/4/3
f 345/4/3 317/4/3 344/4/3
f 346/4/3 331/4/3 306/4/3
f 347/4/3 331/4/3 346/4/3
f 348/4/3 335/4/3 334/4/3
f 349/4/3 335/4/3 348/4/3
f 350/4/3 335/4/3 349/4/3
f 351/4/3 335/4/3 350/4/3
f 352/4/3 339/4/3 338/4/3
f 353/4/3 339/4/3 352/4/3
f 354/4/3 339/4/3 353/4/3
f 355/4/3 339/4/3 354/4/3
f 356/4/3 344/4/3 343/4/3
f 356/4/3 343/4/3 342/4/3
f 357/4/3 344/4/3 356/4/3
f 358/4/3 346/4/3 306/4/3
f 361/4/3 350/4/3 349/4/3
f 362/4/3 350/4/3 361/4/3
f 365/4/3 354/4/3 353/4/3
f 366/4/3 354/4/3 365/4/3
f 369/4/3 344/4/3 357/4/3
f 370/4/3 359/4/3 358/4/3
f 373/4/3 363/4/3 362/4/3
f 373/4/3 361/4/3 360/4/3
f 373/4/3 362/4/3 361/4/3
f 374/4/3 363/4/3 373/4/3
f 377/4/3 367/4/3 366/4/3
f 377/4/3 365/4/3 364/4/3
f 377/4/3 366/4/3 365/4/3
f 378/4/3 367/4/3 377/4/3
f 381/4/3 369/4/3 368/4/3
f 382/4/3 344/4/3 369/4/3
f 382/4/3 369/4/3 381/4/3
f 383/4/3 344/4/3 382/4/3
f 384/4/3 317/4/3 345/4/3
f 385/4/3 371/4/3 370/4/3
f 386/4/3 375/4/3 374/4/3
f 386/4/3 374/4/3 373/4/3
f 386/4/3 373/4/3 372/4/3
f 387/4/3 375/4/3 386/4/3
f 388/4/3 375/4/3 387/4/3
f 389/4/3 375/4/3 388/4/3
f 390/4/3 379/4/3 378/4/3
f 390/4/3 377/4/3 376/4/3
f 390/4/3 378/4/3 377/4/3
f 391/4/3 379/4/3 390/4/3
f 392/4/3 379/4/3 391/4/3
f 393/4/3 379/4/3 392/4/3
f 394/4/3 381/4/3 380/4/3
f 394/4/3 382/4/3 381/4/3
f 395/4/3 382/4/3 394/4/3
f 396/4/3 382/4/3 395/4/3
f 397/4/3 384/4/3 383/4/3
f 398/4/3 387/4/3 386/4/3
f 398/4/3 386/4/3 385/4/3
f 399/4/3 389/4/3 388/4/3
f 399/4/3 390/4/3 389/4/3
f 399/4/3 391/4/3 390/4/3
f 400/4/3 391/4/3 399/4/3
f 401/4/3 393/4/3 392/4/3
f 401/4/3 395/4/3 394/4/3
f 401/4/3 394/4/3 393/4/3
f 402/4/3 395/4/3 401/4/3
f 403/4/3 395/4/3 402/4/3
f 404/4/3 397/4/3 396/4/3
f 404/4/3 317/4/3 384/4/3
f 404/4/3 384/4/3 397/4/3
f 405/4/3 317/4/3 404/4/3
f 406/4/3 385/4/3 370/4/3
f 406/4/3 402/4/3 401/4/3
f 406/4/3 398/4/3 385/4/3
f 406/4/3 358/4/3 306/4/3
f 406/4/3 370/4/3 358/4/3
f 406/4/3 400/4/3 399/4/3
f 406/4/3 401/4/3 400/4/3
f 406/4/3 399/4/3 398/4/3
f 407/4/3 402/4/3 406/4/3
f 408/4/3 404/4/3 396/4/3
f 409/4/3 404/4/3 408/4/3
f 417/3/3 411/3/3 410/3/3
f 418/3/3 411/3/3 417/3/3
f 421/2/3 413/2/3 412/2/3
f 422/2/3 413/2/3 421/2/3
f 425/1/3 415/1/3 414/1/3
f 426/1/3 415/1/3 425/1/3
f 431/3/3 419/3/3 418/3/3
f 431/3/3 417/3/3 416/3/3
f 431/3/3 418/3/3 417/3/3
f 432/3/3 419/3/3 431/3/3
f 435/2/3 423/2/3 422/2/3
f 435/2/3 421/2/3 420/2/3
f 435/2/3 422/2/3 421/2/3
f 436/2/3 423/2/3 435/2/3
f 439/1/3 427/1/3 426/1/3
f 439/1/3 426/1/3 425/1/3
f 439/1/3 425/1/3 424/1/3
f 440/1/3 427/1/3 439/1/3
f 442/4/3 429/4/3 428/4/3
f 443/4/3 429/4/3 442/4/3
f 444/3/3 433/3/3 432/3/3
f 444/3/3 432/3/3 431/3/3
f 444/3/3 431/3/3 430/3/3
f 445/3/3 433/3/3 444/3/3
f 446/3/3 433/3/3 445/3/3
f 447/3/3 433/3/3 446/3/3
f 448/2/3 437/2/3 436/2/3
f 448/2/3 436/2/3 435/2/3
f 448/2/3 435/2/3 434/2/3
f 449/2/3 437/2/3 448/2/3
f 450/2/3 437/2/3 449/2/3
f 451/2/3 437/2/3 450/2/3
f 452/1/3 441/1/3 440/1/3
f 452/1/3 440/1/3 439/1/3
f 452/1/3 439/1/3 438/1/3
f 453/1/3 441/1/3 452/1/3
f 454/1/3 441/1/3 453/1/3
f 455/1/3 441/1/3 454/1/3
f 456/3/3 446/3/3 445/3/3
f 457/3/3 446/3/3 456/3/3
f 458/3/3 446/3/3 457/3/3
f 459/3/3 446/3/3 458/3/3
f 460/2/3 450/2/3 449/2/3
f 461/2/3 450/2/3 460/2/3
f 462/2/3 450/2/3 461/2/3
f 463/2/3 450/2/3 462/2/3
f 464/1/3 454/1/3 453/1/3
f 465/1/3 454/1/3 464/1/3
f 466/1/3 454/1/3 465/1/3
f 467/1/3 454/1/3 466/1/3
f 468/3/3 458/3/3 457/3/3
f 469/3/3 458/3/3 468/3/3
f 470/2/3 462/2/3 461/2/3
f 471/2/3 462/2/3 470/2/3
f 472/1/3 466/1/3 465/1/3
f 473/1/3 466/1/3 472/1/3
f 474/4/4 475/4/4 476/4/4
f 476/4/4 475/4/4 477/4/4
f 478/4/4 479/4/4 480/4/4
f 480/4/4 479/4/4 481/4/4
f 482/4/4 483/4/4 484/4/4
f 486/4/4 487/4/4 488/4/4
f 488/4/4 487/4/4 489/4/4
f 482/4/4 484/4/4 490/4/4
f 484/4/4 485/4/4 490/4/4
f 490/4/4 485/4/4 491/4/4
f 482/4/4 490/4/4 492/4/4
f 492/4/4 490/4/4 493/4/4
f 496/4/5 495/4/5 494/4/5
f 497/4/5 495/4/5 496/4/5
f 500/4/5 499/4/5 498/4/5
f 501/4/5 499/4/5 500/4/5
f 502/4/5 500/4/5 498/4/5
f 503/4/5 499/4/5 501/4/5
f 504/4/5 502/4/5 498/4/5
f 504/4/5 503/4/5 502/4/5
f 505/4/5 499/4/5 503/4/5
f 505/4/5 503/4/5 504/4/5
f 510/4/5 507/4/5 506/4/5
f 511/4/5 507/4/5 510/4/5
f 512/4/5 509/4/5 508/4/5
f 513/4/5 509/4/5 512/4/5
f 518/4/5 515/4/5 514/4/5
f 519/4/5 515/4/5 518/4/5
f 520/4/5 517/4/5 516/4/5
f 521/4/5 517/4/5 520/4/5
f 524/4/5 523/4/5 522/4/5
f 525/4/5 523/4/5 524/4/5
f 530/5/5 527/5/5 526/5/5
f 531/5/5 527/5/5 530/5/5
f 532/5/5 529/5/5 528/5/5
f 533/5/5 529/5/5 532/5/5
f 538/4/5 535/4/5 534/4/5
f 539/4/5 535/4/5 538/4/5
f 540/4/5 537/4/5 536/4/5
f 541/4/5 537/4/5 540/4/5
f 546/4/5 543/4/5 542/4/5
f 547/4/5 543/4/5 546/4/5
f 548/4/5 545/4/5 544/4/5
f 549/4/5 545/4/5 548/4/5
f 552/4/5 551/4/5 550/4/5
f 553/4/5 551/4/5 552/4/5
f 558/5/5 555/5/5 554/5/5
f 559/5/5 555/5/5 558/5/5
f 560/5/5 557/5/5 556/5/5
f 561/5/5 557/5/5 560/5/5
f 566/4/5 563/4/5 562/4/5
f 567/4/5 563/4/5 566/4/5
f 568/4/5 565/4/5 564/4/5
f 569/4/5 565/4/5 568/4/5
f 574/4/5 571/4/5 570/4/5
f 575/4/5 571/4/5 574/4/5
f 576/4/5 573/4/5 572/4/5
f 577/4/5 573/4/5 576/4/5
f 582/4/5 579/4/5 578/4/5
f 583/4/5 579/4/5 582/4/5
f 584/4/5 581/4/5 580/4/5
f 585/4/5 581/4/5 584/4/5
f 590/4/5 587/4/5 586/4/5
f 591/4/5 587/4/5 590/4/5
f 592/4/5 589/4/5 588/4/5
f 593/4/5 589/4/5 592/4/5
f 598/4/5 595/4/5 594/4/5
f 599/4/5 595/4/5 598/4/5
f 600/4/5 597/4/5 596/4/5
f 601/4/5 597/4/5 600/4/5
f 606/4/5 605/4/5 604/4/5
f 607/4/5 605/4/5 606/4/5
f 608/4/5 603/4/5 602/4/5
f 609/4/5 603/4/5 608/4/5
f 612/4/5 605/4/5 607/4/5
f 613/4/5 605/4/5 612/4/5
f 614/4/5 611/4/5 610/4/5
f 615/4/5 611/4/5 614/4/5
f 620/4/5 617/4/5 616/4/5
f 621/4/5 617/4/5 620/4/5
f 622/4/5 619/4/5 618/4/5
f 623/4/5 619/4/5 622/4/5
f 626/4/5 625/4/5 624/4/5
f 627/4/5 625/4/5 626/4/5
f 628/4/6 629/4/6 630/4/6
f 630/4/6 629/4/6 631/4/6
f 628/4/6 630/4/6 632/4/6
f 631/4/6 629/4/6 633/4/6
f 628/4/6 632/4/6 634/4/6
f 632/4/6 633/4/6 634/4/6
f 633/4/6 629/4/6 635/4/6
f 634/4/6 633/4/6 635/4/6
f 636/4/6 637/4/6 638/4/6
f 638/4/6 637/4/6 639/4/6
f 640/4/6 641/4/6 644/4/6
f 644/4/6 641/4/6 645/4/6
f 642/4/6 643/4/6 646/4/6
f 646/4/6 643/4/6 647/4/6
f 648/4/6 649/4/6 652/4/6
f 652/4/6 649/4/6 653/4/6
f 650/4/6 651/4/6 654/4/6
f 654/4/6 651/4/6 655/4/6
f 656/5/6 657/5/6 660/5/6
f 660/5/6 657/5/6 661/5/6
f 658/5/6 659/5/6 664/5/6
f 664/5/6 659/5/6 665/5/6
f 662/4/6 663/4/6 666/4/6
f 666/4/6 663/4/6 667/4/6
f 668/4/6 669/4/6 672/4/6
f 672/4/6 669/4/6 673/4/6
f 670/4/6 671/4/6 674/4/6
f 674/4/6 671/4/6 675/4/6
f 676/4/6 677/4/6 680/4/6
f 680/4/6 677/4/6 681/4/6
f 678/4/6 679/4/6 682/4/6
f 682/4/6 679/4/6 683/4/6
f 684/5/6 685/5/6 688/5/6
f 688/5/6 685/5/6 689/5/6
f 686/5/6 687/5/6 692/5/6
f 692/5/6 687/5/6 693/5/6
f 690/4/6 691/4/6 694/4/6
f 694/4/6 691/4/6 695/4/6
f 696/4/6 697/4/6 700/4/6
f 700/4/6 697/4/6 701/4/6
f 698/4/6 699/4/6 702/4/6
f 702/4/6 699/4/6 703/4/6
f 704/4/6 705/4/6 708/4/6
f 708/4/6 705/4/6 709/4/6
f 706/4/6 707/4/6 710/4/6
f 710/4/6 707/4/6 711/4/6
f 712/4/6 713/4/6 716/4/6
f 716/4/6 713/4/6 717/4/6
f 714/4/6 715/4/6 718/4/6
f 718/4/6 715/4/6 719/4/6
f 720/4/6 721/4/6 724/4/6
f 724/4/6 721/4/6 725/4/6
f 722/4/6 723/4/6 726/4/6
f 726/4/6 723/4/6 727/4/6
f 728/4/6 729/4/6 732/4/6
f 732/4/6 729/4/6 733/4/6
f 730/4/6 731/4/6 736/4/6
f 736/4/6 731/4/6 737/4/6
f 734/4/6 735/4/6 738/4/6
f 738/4/6 735/4/6 739/4/6
f 740/4/6 741/4/6 742/4/6
f 742/4/6 741/4/6 743/4/6
