# MagicaVoxel @ Ephtracy

# group
o 

# material
mtllib Quest.mtl
usemtl palette

# normals
vn -1 0 0
vn 1 0 0
vn 0 0 1
vn 0 0 -1
vn 0 -1 0
vn 0 1 0

# texcoords
vt 0.00195312 0.5
vt 0.0605469 0.5

# verts
v -0.5 0.4 -0.4
v -0.5 0.4 -0.5
v -0.5 0.9 -0.4
v -0.5 0.9 -0.5
v -0.4 0.3 -0.4
v -0.4 0.3 -0.5
v -0.4 0.4 -0.4
v -0.4 0.4 -0.5
v -0.4 0.9 -0.4
v -0.4 0.9 -0.5
v -0.4 1 -0.4
v -0.4 1 -0.5
v -0.1 0.4 -0.3
v -0.1 0.4 -0.4
v -0.1 0.5 -0.3
v -0.1 0.5 -0.4
v -0.1 0.6 -0.3
v -0.1 0.6 -0.4
v -0.1 0.9 -0.3
v -0.1 0.9 -0.4
v 0.2 0.2 -0.4
v 0.2 0.2 -0.5
v 0.2 0.3 -0.4
v 0.2 0.3 -0.5
v 0.3 0.1 -0.4
v 0.3 0.1 -0.5
v 0.3 0.2 -0.4
v 0.3 0.2 -0.5
v 0 0.4 -0.3
v 0 0.4 -0.4
v 0 0.5 -0.3
v 0 0.5 -0.4
v 0 0.6 -0.3
v 0 0.6 -0.4
v 0 0.9 -0.3
v 0 0.9 -0.4
v 0.3 0.2 -0.4
v 0.3 0.2 -0.5
v 0.3 0.4 -0.4
v 0.3 0.4 -0.5
v 0.3 0.9 -0.4
v 0.3 0.9 -0.5
v 0.3 1 -0.4
v 0.3 1 -0.5
v 0.4 0.1 -0.4
v 0.4 0.1 -0.5
v 0.4 0.2 -0.4
v 0.4 0.2 -0.5
v 0.4 0.4 -0.4
v 0.4 0.4 -0.5
v 0.4 0.9 -0.4
v 0.4 0.9 -0.5
v -0.1 0.4 -0.3
v -0.1 0.5 -0.3
v -0.1 0.6 -0.3
v -0.1 0.9 -0.3
v 0 0.4 -0.3
v 0 0.5 -0.3
v 0 0.6 -0.3
v 0 0.9 -0.3
v -0.5 0.4 -0.4
v -0.5 0.9 -0.4
v -0.4 0.3 -0.4
v -0.4 0.4 -0.4
v -0.4 0.9 -0.4
v -0.4 1 -0.4
v -0.1 0.4 -0.4
v -0.1 0.5 -0.4
v -0.1 0.6 -0.4
v -0.1 0.9 -0.4
v 0 0.4 -0.4
v 0 0.5 -0.4
v 0 0.6 -0.4
v 0 0.9 -0.4
v 0.2 0.2 -0.4
v 0.2 0.3 -0.4
v 0.3 0.1 -0.4
v 0.3 0.2 -0.4
v 0.3 0.4 -0.4
v 0.3 0.9 -0.4
v 0.3 1 -0.4
v 0.4 0.1 -0.4
v 0.4 0.2 -0.4
v 0.4 0.4 -0.4
v 0.4 0.9 -0.4
v -0.5 0.4 -0.5
v -0.5 0.9 -0.5
v -0.4 0.3 -0.5
v -0.4 0.4 -0.5
v -0.4 0.9 -0.5
v -0.4 1 -0.5
v 0.2 0.2 -0.5
v 0.2 0.3 -0.5
v 0.3 0.1 -0.5
v 0.3 0.2 -0.5
v 0.3 0.4 -0.5
v 0.3 0.9 -0.5
v 0.3 1 -0.5
v 0.4 0.1 -0.5
v 0.4 0.2 -0.5
v 0.4 0.4 -0.5
v 0.4 0.9 -0.5
v 0.3 0.1 -0.4
v 0.4 0.1 -0.4
v 0.3 0.1 -0.5
v 0.4 0.1 -0.5
v 0.2 0.2 -0.4
v 0.3 0.2 -0.4
v 0.2 0.2 -0.5
v 0.3 0.2 -0.5
v -0.4 0.3 -0.4
v 0.2 0.3 -0.4
v -0.4 0.3 -0.5
v 0.2 0.3 -0.5
v -0.1 0.4 -0.3
v 0 0.4 -0.3
v -0.5 0.4 -0.4
v -0.4 0.4 -0.4
v -0.1 0.4 -0.4
v 0 0.4 -0.4
v 0.3 0.4 -0.4
v 0.4 0.4 -0.4
v -0.5 0.4 -0.5
v -0.4 0.4 -0.5
v 0.3 0.4 -0.5
v 0.4 0.4 -0.5
v -0.1 0.6 -0.3
v 0 0.6 -0.3
v -0.1 0.6 -0.4
v 0 0.6 -0.4
v 0.3 0.2 -0.4
v 0.4 0.2 -0.4
v 0.3 0.2 -0.5
v 0.4 0.2 -0.5
v -0.1 0.5 -0.3
v 0 0.5 -0.3
v -0.1 0.5 -0.4
v 0 0.5 -0.4
v -0.1 0.9 -0.3
v 0 0.9 -0.3
v -0.5 0.9 -0.4
v -0.4 0.9 -0.4
v -0.1 0.9 -0.4
v 0 0.9 -0.4
v 0.3 0.9 -0.4
v 0.4 0.9 -0.4
v -0.5 0.9 -0.5
v -0.4 0.9 -0.5
v 0.3 0.9 -0.5
v 0.4 0.9 -0.5
v -0.4 1 -0.4
v 0.3 1 -0.4
v -0.4 1 -0.5
v 0.3 1 -0.5

# faces
f 3/2/1 2/2/1 1/2/1
f 4/2/1 2/2/1 3/2/1
f 7/2/1 6/2/1 5/2/1
f 8/2/1 6/2/1 7/2/1
f 11/2/1 10/2/1 9/2/1
f 12/2/1 10/2/1 11/2/1
f 15/1/1 14/1/1 13/1/1
f 16/1/1 14/1/1 15/1/1
f 19/1/1 18/1/1 17/1/1
f 20/1/1 18/1/1 19/1/1
f 23/2/1 22/2/1 21/2/1
f 24/2/1 22/2/1 23/2/1
f 27/2/1 26/2/1 25/2/1
f 28/2/1 26/2/1 27/2/1
f 29/1/2 30/1/2 31/1/2
f 31/1/2 30/1/2 32/1/2
f 33/1/2 34/1/2 35/1/2
f 35/1/2 34/1/2 36/1/2
f 37/2/2 38/2/2 39/2/2
f 39/2/2 38/2/2 40/2/2
f 41/2/2 42/2/2 43/2/2
f 43/2/2 42/2/2 44/2/2
f 45/2/2 46/2/2 47/2/2
f 47/2/2 46/2/2 48/2/2
f 49/2/2 50/2/2 51/2/2
f 51/2/2 50/2/2 52/2/2
f 57/1/3 54/1/3 53/1/3
f 58/1/3 54/1/3 57/1/3
f 59/1/3 56/1/3 55/1/3
f 60/1/3 56/1/3 59/1/3
f 64/2/3 62/2/3 61/2/3
f 65/2/3 62/2/3 64/2/3
f 67/2/3 64/2/3 63/2/3
f 67/2/3 66/2/3 65/2/3
f 67/2/3 65/2/3 64/2/3
f 68/2/3 66/2/3 67/2/3
f 69/2/3 66/2/3 68/2/3
f 70/2/3 66/2/3 69/2/3
f 71/2/3 67/2/3 63/2/3
f 72/2/3 69/2/3 68/2/3
f 73/2/3 69/2/3 72/2/3
f 74/2/3 66/2/3 70/2/3
f 76/2/3 73/2/3 72/2/3
f 76/2/3 74/2/3 73/2/3
f 76/2/3 71/2/3 63/2/3
f 76/2/3 72/2/3 71/2/3
f 78/2/3 76/2/3 75/2/3
f 79/2/3 74/2/3 76/2/3
f 79/2/3 76/2/3 78/2/3
f 80/2/3 66/2/3 74/2/3
f 80/2/3 74/2/3 79/2/3
f 81/2/3 66/2/3 80/2/3
f 82/2/3 78/2/3 77/2/3
f 83/2/3 78/2/3 82/2/3
f 84/2/3 80/2/3 79/2/3
f 85/2/3 80/2/3 84/2/3
f 86/2/4 87/2/4 89/2/4
f 89/2/4 87/2/4 90/2/4
f 88/2/4 89/2/4 93/2/4
f 90/2/4 91/2/4 93/2/4
f 89/2/4 90/2/4 93/2/4
f 92/2/4 93/2/4 95/2/4
f 93/2/4 91/2/4 96/2/4
f 95/2/4 93/2/4 96/2/4
f 96/2/4 91/2/4 97/2/4
f 97/2/4 91/2/4 98/2/4
f 94/2/4 95/2/4 99/2/4
f 99/2/4 95/2/4 100/2/4
f 96/2/4 97/2/4 101/2/4
f 101/2/4 97/2/4 102/2/4
f 105/2/5 104/2/5 103/2/5
f 106/2/5 104/2/5 105/2/5
f 109/2/5 108/2/5 107/2/5
f 110/2/5 108/2/5 109/2/5
f 113/2/5 112/2/5 111/2/5
f 114/2/5 112/2/5 113/2/5
f 119/1/5 116/1/5 115/1/5
f 120/1/5 116/1/5 119/1/5
f 123/2/5 118/2/5 117/2/5
f 124/2/5 118/2/5 123/2/5
f 125/2/5 122/2/5 121/2/5
f 126/2/5 122/2/5 125/2/5
f 129/1/5 128/1/5 127/1/5
f 130/1/5 128/1/5 129/1/5
f 131/2/6 132/2/6 133/2/6
f 133/2/6 132/2/6 134/2/6
f 135/1/6 136/1/6 137/1/6
f 137/1/6 136/1/6 138/1/6
f 139/1/6 140/1/6 143/1/6
f 143/1/6 140/1/6 144/1/6
f 141/2/6 142/2/6 147/2/6
f 147/2/6 142/2/6 148/2/6
f 145/2/6 146/2/6 149/2/6
f 149/2/6 146/2/6 150/2/6
f 151/2/6 152/2/6 153/2/6
f 153/2/6 152/2/6 154/2/6
