# MagicaVoxel @ Ephtracy

# group
o 

# material
mtllib StreetLamp_001.mtl
usemtl palette

# normals
vn -1 0 0
vn 1 0 0
vn 0 0 1
vn 0 0 -1
vn 0 -1 0
vn 0 1 0

# texcoords
vt 0.0292969 0.5
vt 0.939453 0.5
vt 0.943359 0.5

# verts
v -2.3 0 1.8
v -2.3 0 1.4
v -2.3 1.5 1.8
v -2.3 1.5 1.4
v -2.3 3.9 1.7
v -2.3 3.9 1.5
v -2.3 4 1.7
v -2.3 4 1.5
v -2.3 4.4 1.7
v -2.3 4.4 1.5
v -2.3 4.5 1.8
v -2.3 4.5 1.7
v -2.3 4.5 1.5
v -2.3 4.5 1.4
v -2.3 4.9 1.8
v -2.3 4.9 1.7
v -2.3 4.9 1.5
v -2.3 4.9 1.4
v -2.3 5 1.7
v -2.3 5 1.5
v -2.2 1.5 1.7
v -2.2 1.5 1.5
v -2.2 3.9 1.8
v -2.2 3.9 1.7
v -2.2 3.9 1.5
v -2.2 3.9 1.4
v -2.2 4 1.8
v -2.2 4 1.7
v -2.2 4 1.5
v -2.2 4 1.4
v -2.2 4.4 1.8
v -2.2 4.4 1.7
v -2.2 4.4 1.5
v -2.2 4.4 1.4
v -2.2 4.5 1.8
v -2.2 4.5 1.7
v -2.2 4.5 1.5
v -2.2 4.5 1.4
v -2.2 4.9 1.8
v -2.2 4.9 1.7
v -2.2 4.9 1.5
v -2.2 4.9 1.4
v -2.2 5 1.8
v -2.2 5 1.7
v -2.2 5 1.5
v -2.2 5 1.4
v -2 1.5 1.7
v -2 1.5 1.5
v -2 3.9 1.8
v -2 3.9 1.7
v -2 3.9 1.5
v -2 3.9 1.4
v -2 4 1.8
v -2 4 1.7
v -2 4 1.5
v -2 4 1.4
v -2 4.4 1.8
v -2 4.4 1.7
v -2 4.4 1.5
v -2 4.4 1.4
v -2 4.5 1.8
v -2 4.5 1.7
v -2 4.5 1.5
v -2 4.5 1.4
v -2 4.9 1.8
v -2 4.9 1.7
v -2 4.9 1.5
v -2 4.9 1.4
v -2 5 1.8
v -2 5 1.7
v -2 5 1.5
v -2 5 1.4
v -1.9 0 1.8
v -1.9 0 1.4
v -1.9 1.5 1.8
v -1.9 1.5 1.4
v -1.9 3.9 1.7
v -1.9 3.9 1.5
v -1.9 4 1.7
v -1.9 4 1.5
v -1.9 4.4 1.7
v -1.9 4.4 1.5
v -1.9 4.5 1.8
v -1.9 4.5 1.7
v -1.9 4.5 1.5
v -1.9 4.5 1.4
v -1.9 4.9 1.8
v -1.9 4.9 1.7
v -1.9 4.9 1.5
v -1.9 4.9 1.4
v -1.9 5 1.7
v -1.9 5 1.5
v -2.3 0 1.8
v -2.3 1.5 1.8
v -2.3 4.5 1.8
v -2.3 4.9 1.8
v -2.2 3.9 1.8
v -2.2 4 1.8
v -2.2 4.4 1.8
v -2.2 4.5 1.8
v -2.2 4.9 1.8
v -2.2 5 1.8
v -2 3.9 1.8
v -2 4 1.8
v -2 4.4 1.8
v -2 4.5 1.8
v -2 4.9 1.8
v -2 5 1.8
v -1.9 0 1.8
v -1.9 1.5 1.8
v -1.9 4.5 1.8
v -1.9 4.9 1.8
v -2.3 3.9 1.7
v -2.3 4 1.7
v -2.3 4.4 1.7
v -2.3 4.5 1.7
v -2.3 4.9 1.7
v -2.3 5 1.7
v -2.2 1.5 1.7
v -2.2 3.9 1.7
v -2.2 4 1.7
v -2.2 4.4 1.7
v -2.2 4.5 1.7
v -2.2 4.9 1.7
v -2.2 5 1.7
v -2 1.5 1.7
v -2 3.9 1.7
v -2 4 1.7
v -2 4.4 1.7
v -2 4.5 1.7
v -2 4.9 1.7
v -2 5 1.7
v -1.9 3.9 1.7
v -1.9 4 1.7
v -1.9 4.4 1.7
v -1.9 4.5 1.7
v -1.9 4.9 1.7
v -1.9 5 1.7
v -2.3 3.9 1.5
v -2.3 4 1.5
v -2.3 4.4 1.5
v -2.3 4.5 1.5
v -2.3 4.9 1.5
v -2.3 5 1.5
v -2.2 1.5 1.5
v -2.2 3.9 1.5
v -2.2 4 1.5
v -2.2 4.4 1.5
v -2.2 4.5 1.5
v -2.2 4.9 1.5
v -2.2 5 1.5
v -2 1.5 1.5
v -2 3.9 1.5
v -2 4 1.5
v -2 4.4 1.5
v -2 4.5 1.5
v -2 4.9 1.5
v -2 5 1.5
v -1.9 3.9 1.5
v -1.9 4 1.5
v -1.9 4.4 1.5
v -1.9 4.5 1.5
v -1.9 4.9 1.5
v -1.9 5 1.5
v -2.3 0 1.4
v -2.3 1.5 1.4
v -2.3 4.5 1.4
v -2.3 4.9 1.4
v -2.2 3.9 1.4
v -2.2 4 1.4
v -2.2 4.4 1.4
v -2.2 4.5 1.4
v -2.2 4.9 1.4
v -2.2 5 1.4
v -2 3.9 1.4
v -2 4 1.4
v -2 4.4 1.4
v -2 4.5 1.4
v -2 4.9 1.4
v -2 5 1.4
v -1.9 0 1.4
v -1.9 1.5 1.4
v -1.9 4.5 1.4
v -1.9 4.9 1.4
v -2.3 0 1.8
v -1.9 0 1.8
v -2.3 0 1.4
v -1.9 0 1.4
v -2.2 3.9 1.8
v -2 3.9 1.8
v -2.3 3.9 1.7
v -2.2 3.9 1.7
v -2 3.9 1.7
v -1.9 3.9 1.7
v -2.3 3.9 1.5
v -2.2 3.9 1.5
v -2 3.9 1.5
v -1.9 3.9 1.5
v -2.2 3.9 1.4
v -2 3.9 1.4
v -2.2 4.4 1.8
v -2 4.4 1.8
v -2.3 4.4 1.7
v -2.2 4.4 1.7
v -2 4.4 1.7
v -1.9 4.4 1.7
v -2.3 4.4 1.5
v -2.2 4.4 1.5
v -2 4.4 1.5
v -1.9 4.4 1.5
v -2.2 4.4 1.4
v -2 4.4 1.4
v -2.3 4.5 1.8
v -2.2 4.5 1.8
v -2 4.5 1.8
v -1.9 4.5 1.8
v -2.3 4.5 1.7
v -2.2 4.5 1.7
v -2 4.5 1.7
v -1.9 4.5 1.7
v -2.3 4.5 1.5
v -2.2 4.5 1.5
v -2 4.5 1.5
v -1.9 4.5 1.5
v -2.3 4.5 1.4
v -2.2 4.5 1.4
v -2 4.5 1.4
v -1.9 4.5 1.4
v -2.3 1.5 1.8
v -1.9 1.5 1.8
v -2.2 1.5 1.7
v -2 1.5 1.7
v -2.2 1.5 1.5
v -2 1.5 1.5
v -2.3 1.5 1.4
v -1.9 1.5 1.4
v -2.2 4 1.8
v -2 4 1.8
v -2.3 4 1.7
v -2.2 4 1.7
v -2 4 1.7
v -1.9 4 1.7
v -2.3 4 1.5
v -2.2 4 1.5
v -2 4 1.5
v -1.9 4 1.5
v -2.2 4 1.4
v -2 4 1.4
v -2.3 4.9 1.8
v -2.2 4.9 1.8
v -2 4.9 1.8
v -1.9 4.9 1.8
v -2.3 4.9 1.7
v -2.2 4.9 1.7
v -2 4.9 1.7
v -1.9 4.9 1.7
v -2.3 4.9 1.5
v -2.2 4.9 1.5
v -2 4.9 1.5
v -1.9 4.9 1.5
v -2.3 4.9 1.4
v -2.2 4.9 1.4
v -2 4.9 1.4
v -1.9 4.9 1.4
v -2.2 5 1.8
v -2 5 1.8
v -2.3 5 1.7
v -2.2 5 1.7
v -2 5 1.7
v -1.9 5 1.7
v -2.3 5 1.5
v -2.2 5 1.5
v -2 5 1.5
v -1.9 5 1.5
v -2.2 5 1.4
v -2 5 1.4

# faces
f 3/2/1 2/2/1 1/2/1
f 4/2/1 2/2/1 3/2/1
f 7/3/1 6/3/1 5/3/1
f 8/3/1 6/3/1 7/3/1
f 12/1/1 10/1/1 9/1/1
f 13/1/1 10/1/1 12/1/1
f 15/1/1 13/1/1 12/1/1
f 15/1/1 14/1/1 13/1/1
f 15/1/1 12/1/1 11/1/1
f 16/1/1 14/1/1 15/1/1
f 17/1/1 14/1/1 16/1/1
f 18/1/1 14/1/1 17/1/1
f 19/1/1 17/1/1 16/1/1
f 20/1/1 17/1/1 19/1/1
f 24/3/1 22/3/1 21/3/1
f 25/3/1 22/3/1 24/3/1
f 27/3/1 24/3/1 23/3/1
f 28/3/1 24/3/1 27/3/1
f 29/3/1 26/3/1 25/3/1
f 30/3/1 26/3/1 29/3/1
f 35/1/1 32/1/1 31/1/1
f 36/1/1 32/1/1 35/1/1
f 37/1/1 34/1/1 33/1/1
f 38/1/1 34/1/1 37/1/1
f 43/1/1 40/1/1 39/1/1
f 44/1/1 40/1/1 43/1/1
f 45/1/1 42/1/1 41/1/1
f 46/1/1 42/1/1 45/1/1
f 47/3/2 48/3/2 50/3/2
f 50/3/2 48/3/2 51/3/2
f 49/3/2 50/3/2 53/3/2
f 53/3/2 50/3/2 54/3/2
f 51/3/2 52/3/2 55/3/2
f 55/3/2 52/3/2 56/3/2
f 57/1/2 58/1/2 61/1/2
f 61/1/2 58/1/2 62/1/2
f 59/1/2 60/1/2 63/1/2
f 63/1/2 60/1/2 64/1/2
f 65/1/2 66/1/2 69/1/2
f 69/1/2 66/1/2 70/1/2
f 67/1/2 68/1/2 71/1/2
f 71/1/2 68/1/2 72/1/2
f 73/2/2 74/2/2 75/2/2
f 75/2/2 74/2/2 76/2/2
f 77/3/2 78/3/2 79/3/2
f 79/3/2 78/3/2 80/3/2
f 81/1/2 82/1/2 84/1/2
f 84/1/2 82/1/2 85/1/2
f 84/1/2 85/1/2 87/1/2
f 85/1/2 86/1/2 87/1/2
f 83/1/2 84/1/2 87/1/2
f 87/1/2 86/1/2 88/1/2
f 88/1/2 86/1/2 89/1/2
f 89/1/2 86/1/2 90/1/2
f 88/1/2 89/1/2 91/1/2
f 91/1/2 89/1/2 92/1/2
f 100/1/3 96/1/3 95/1/3
f 101/1/3 96/1/3 100/1/3
f 103/3/3 98/3/3 97/3/3
f 104/3/3 98/3/3 103/3/3
f 105/1/3 102/1/3 101/1/3
f 105/1/3 100/1/3 99/1/3
f 105/1/3 101/1/3 100/1/3
f 106/1/3 102/1/3 105/1/3
f 107/1/3 102/1/3 106/1/3
f 108/1/3 102/1/3 107/1/3
f 109/2/3 94/2/3 93/2/3
f 110/2/3 94/2/3 109/2/3
f 111/1/3 107/1/3 106/1/3
f 112/1/3 107/1/3 111/1/3
f 120/3/3 114/3/3 113/3/3
f 121/3/3 114/3/3 120/3/3
f 122/1/3 116/1/3 115/1/3
f 123/1/3 116/1/3 122/1/3
f 124/1/3 118/1/3 117/1/3
f 125/1/3 118/1/3 124/1/3
f 126/3/3 120/3/3 119/3/3
f 127/3/3 120/3/3 126/3/3
f 133/3/3 128/3/3 127/3/3
f 134/3/3 128/3/3 133/3/3
f 135/1/3 130/1/3 129/1/3
f 136/1/3 130/1/3 135/1/3
f 137/1/3 132/1/3 131/1/3
f 138/1/3 132/1/3 137/1/3
f 139/3/4 140/3/4 146/3/4
f 146/3/4 140/3/4 147/3/4
f 141/1/4 142/1/4 148/1/4
f 148/1/4 142/1/4 149/1/4
f 143/1/4 144/1/4 150/1/4
f 150/1/4 144/1/4 151/1/4
f 145/3/4 146/3/4 152/3/4
f 152/3/4 146/3/4 153/3/4
f 153/3/4 154/3/4 159/3/4
f 159/3/4 154/3/4 160/3/4
f 155/1/4 156/1/4 161/1/4
f 161/1/4 156/1/4 162/1/4
f 157/1/4 158/1/4 163/1/4
f 163/1/4 158/1/4 164/1/4
f 167/1/4 168/1/4 172/1/4
f 172/1/4 168/1/4 173/1/4
f 169/3/4 170/3/4 175/3/4
f 175/3/4 170/3/4 176/3/4
f 173/1/4 174/1/4 177/1/4
f 171/1/4 172/1/4 177/1/4
f 172/1/4 173/1/4 177/1/4
f 177/1/4 174/1/4 178/1/4
f 178/1/4 174/1/4 179/1/4
f 179/1/4 174/1/4 180/1/4
f 165/2/4 166/2/4 181/2/4
f 181/2/4 166/2/4 182/2/4
f 178/1/4 179/1/4 183/1/4
f 183/1/4 179/1/4 184/1/4
f 187/2/5 186/2/5 185/2/5
f 188/2/5 186/2/5 187/2/5
f 192/3/5 190/3/5 189/3/5
f 193/3/5 190/3/5 192/3/5
f 195/3/5 192/3/5 191/3/5
f 196/3/5 192/3/5 195/3/5
f 197/3/5 194/3/5 193/3/5
f 198/3/5 194/3/5 197/3/5
f 199/3/5 197/3/5 196/3/5
f 200/3/5 197/3/5 199/3/5
f 204/1/5 202/1/5 201/1/5
f 205/1/5 202/1/5 204/1/5
f 207/1/5 204/1/5 203/1/5
f 207/1/5 206/1/5 205/1/5
f 207/1/5 205/1/5 204/1/5
f 208/1/5 206/1/5 207/1/5
f 209/1/5 206/1/5 208/1/5
f 210/1/5 206/1/5 209/1/5
f 211/1/5 209/1/5 208/1/5
f 212/1/5 209/1/5 211/1/5
f 217/1/5 214/1/5 213/1/5
f 218/1/5 214/1/5 217/1/5
f 219/1/5 216/1/5 215/1/5
f 220/1/5 216/1/5 219/1/5
f 225/1/5 222/1/5 221/1/5
f 226/1/5 222/1/5 225/1/5
f 227/1/5 224/1/5 223/1/5
f 228/1/5 224/1/5 227/1/5
f 229/2/6 230/2/6 231/2/6
f 231/2/6 230/2/6 232/2/6
f 229/2/6 231/2/6 233/2/6
f 232/2/6 230/2/6 234/2/6
f 229/2/6 233/2/6 235/2/6
f 233/2/6 234/2/6 235/2/6
f 234/2/6 230/2/6 236/2/6
f 235/2/6 234/2/6 236/2/6
f 237/3/6 238/3/6 240/3/6
f 240/3/6 238/3/6 241/3/6
f 239/3/6 240/3/6 243/3/6
f 241/3/6 242/3/6 243/3/6
f 240/3/6 241/3/6 243/3/6
f 243/3/6 242/3/6 244/3/6
f 244/3/6 242/3/6 245/3/6
f 245/3/6 242/3/6 246/3/6
f 244/3/6 245/3/6 247/3/6
f 247/3/6 245/3/6 248/3/6
f 249/1/6 250/1/6 253/1/6
f 253/1/6 250/1/6 254/1/6
f 251/1/6 252/1/6 255/1/6
f 255/1/6 252/1/6 256/1/6
f 257/1/6 258/1/6 261/1/6
f 261/1/6 258/1/6 262/1/6
f 259/1/6 260/1/6 263/1/6
f 263/1/6 260/1/6 264/1/6
f 265/1/6 266/1/6 268/1/6
f 268/1/6 266/1/6 269/1/6
f 267/1/6 268/1/6 271/1/6
f 269/1/6 270/1/6 271/1/6
f 268/1/6 269/1/6 271/1/6
f 271/1/6 270/1/6 272/1/6
f 272/1/6 270/1/6 273/1/6
f 273/1/6 270/1/6 274/1/6
f 272/1/6 273/1/6 275/1/6
f 275/1/6 273/1/6 276/1/6
